<svg width="973" height="285" viewBox="0 0 973 285" fill="none" xmlns="http://www.w3.org/2000/svg">
<path d="M67 161.543C119.054 154.564 115.583 196.024 184.121 202.073C252.658 208.122 271.745 165.78 302.977 153.682C334.209 141.585 348.09 86.4576 400.144 90.1799C452.198 93.9023 478.225 131.199 521.603 135.852C564.981 140.505 573.656 171.363 614.432 194.163C655.207 216.962 692.512 219.754 743.699 215.101C794.885 210.448 808.766 163.404 833.058 161.543C857.349 159.682 879.038 182.115 899.86 187.234C920.681 192.352 926.754 215.101 971 215.101" stroke="#ECE9F1" stroke-width="4" stroke-linecap="round" stroke-linejoin="round"/>
<path d="M0.714 30.978C1.89933 30.026 2.828 29.2467 3.5 28.64C4.172 28.024 4.73667 27.3847 5.194 26.722C5.66067 26.05 5.894 25.392 5.894 24.748C5.894 24.1413 5.74467 23.6653 5.446 23.32C5.15667 22.9653 4.68533 22.788 4.032 22.788C3.39733 22.788 2.90267 22.9887 2.548 23.39C2.20267 23.782 2.016 24.3093 1.988 24.972H0.756C0.793333 23.9267 1.11067 23.1193 1.708 22.55C2.30533 21.9807 3.07533 21.696 4.018 21.696C4.97933 21.696 5.74 21.962 6.3 22.494C6.86933 23.026 7.154 23.7587 7.154 24.692C7.154 25.4667 6.92067 26.2227 6.454 26.96C5.99667 27.688 5.474 28.332 4.886 28.892C4.298 29.4427 3.54667 30.0867 2.632 30.824H7.448V31.888H0.714V30.978ZM14.5627 24.286C14.3574 23.25 13.7181 22.732 12.6447 22.732C11.8141 22.732 11.1934 23.054 10.7827 23.698C10.3721 24.3327 10.1714 25.3827 10.1807 26.848C10.3954 26.3627 10.7501 25.9847 11.2447 25.714C11.7487 25.434 12.3087 25.294 12.9247 25.294C13.8861 25.294 14.6514 25.5927 15.2207 26.19C15.7994 26.7873 16.0887 27.6133 16.0887 28.668C16.0887 29.3027 15.9627 29.872 15.7107 30.376C15.4681 30.88 15.0947 31.2813 14.5907 31.58C14.0961 31.8787 13.4941 32.028 12.7847 32.028C11.8234 32.028 11.0721 31.8133 10.5307 31.384C9.9894 30.9547 9.6114 30.362 9.39673 29.606C9.18207 28.85 9.07473 27.9167 9.07473 26.806C9.07473 23.3807 10.2694 21.668 12.6587 21.668C13.5734 21.668 14.2921 21.9153 14.8147 22.41C15.3374 22.9047 15.6454 23.53 15.7387 24.286H14.5627ZM12.6587 26.372C12.2574 26.372 11.8794 26.456 11.5247 26.624C11.1701 26.7827 10.8807 27.03 10.6567 27.366C10.4421 27.6927 10.3347 28.094 10.3347 28.57C10.3347 29.2793 10.5401 29.858 10.9507 30.306C11.3614 30.7447 11.9494 30.964 12.7147 30.964C13.3681 30.964 13.8861 30.7633 14.2687 30.362C14.6607 29.9513 14.8567 29.4007 14.8567 28.71C14.8567 27.982 14.6701 27.4127 14.2967 27.002C13.9234 26.582 13.3774 26.372 12.6587 26.372ZM17.8075 26.834C17.8075 25.2287 18.0688 23.978 18.5915 23.082C19.1141 22.1767 20.0288 21.724 21.3355 21.724C22.6328 21.724 23.5428 22.1767 24.0655 23.082C24.5881 23.978 24.8495 25.2287 24.8495 26.834C24.8495 28.4673 24.5881 29.7367 24.0655 30.642C23.5428 31.5473 22.6328 32 21.3355 32C20.0288 32 19.1141 31.5473 18.5915 30.642C18.0688 29.7367 17.8075 28.4673 17.8075 26.834ZM23.5895 26.834C23.5895 26.022 23.5335 25.336 23.4215 24.776C23.3188 24.2067 23.0995 23.7493 22.7635 23.404C22.4368 23.0587 21.9608 22.886 21.3355 22.886C20.7008 22.886 20.2155 23.0587 19.8795 23.404C19.5528 23.7493 19.3335 24.2067 19.2215 24.776C19.1188 25.336 19.0675 26.022 19.0675 26.834C19.0675 27.674 19.1188 28.3787 19.2215 28.948C19.3335 29.5173 19.5528 29.9747 19.8795 30.32C20.2155 30.6653 20.7008 30.838 21.3355 30.838C21.9608 30.838 22.4368 30.6653 22.7635 30.32C23.0995 29.9747 23.3188 29.5173 23.4215 28.948C23.5335 28.3787 23.5895 27.674 23.5895 26.834ZM36.7065 22.312V32H35.4325V24.776L32.2125 32H31.3165L28.0825 24.762V32H26.8085V22.312H28.1805L31.7645 30.32L35.3485 22.312H36.7065Z" fill="#A2A3A5"/>
<path d="M0.714 102.978C1.89933 102.026 2.828 101.247 3.5 100.64C4.172 100.024 4.73667 99.3847 5.194 98.722C5.66067 98.05 5.894 97.392 5.894 96.748C5.894 96.1413 5.74467 95.6653 5.446 95.32C5.15667 94.9653 4.68533 94.788 4.032 94.788C3.39733 94.788 2.90267 94.9887 2.548 95.39C2.20267 95.782 2.016 96.3093 1.988 96.972H0.756C0.793333 95.9267 1.11067 95.1193 1.708 94.55C2.30533 93.9807 3.07533 93.696 4.018 93.696C4.97933 93.696 5.74 93.962 6.3 94.494C6.86933 95.026 7.154 95.7587 7.154 96.692C7.154 97.4667 6.92067 98.2227 6.454 98.96C5.99667 99.688 5.474 100.332 4.886 100.892C4.298 101.443 3.54667 102.087 2.632 102.824H7.448V103.888H0.714V102.978ZM8.76673 102.978C9.95207 102.026 10.8807 101.247 11.5527 100.64C12.2247 100.024 12.7894 99.3847 13.2467 98.722C13.7134 98.05 13.9467 97.392 13.9467 96.748C13.9467 96.1413 13.7974 95.6653 13.4987 95.32C13.2094 94.9653 12.7381 94.788 12.0847 94.788C11.4501 94.788 10.9554 94.9887 10.6007 95.39C10.2554 95.782 10.0687 96.3093 10.0407 96.972H8.80873C8.84607 95.9267 9.1634 95.1193 9.76073 94.55C10.3581 93.9807 11.1281 93.696 12.0707 93.696C13.0321 93.696 13.7927 93.962 14.3527 94.494C14.9221 95.026 15.2067 95.7587 15.2067 96.692C15.2067 97.4667 14.9734 98.2227 14.5067 98.96C14.0494 99.688 13.5267 100.332 12.9387 100.892C12.3507 101.443 11.5994 102.087 10.6847 102.824H15.5007V103.888H8.76673V102.978ZM16.9735 98.834C16.9735 97.2287 17.2348 95.978 17.7575 95.082C18.2801 94.1767 19.1948 93.724 20.5015 93.724C21.7988 93.724 22.7088 94.1767 23.2315 95.082C23.7541 95.978 24.0155 97.2287 24.0155 98.834C24.0155 100.467 23.7541 101.737 23.2315 102.642C22.7088 103.547 21.7988 104 20.5015 104C19.1948 104 18.2801 103.547 17.7575 102.642C17.2348 101.737 16.9735 100.467 16.9735 98.834ZM22.7555 98.834C22.7555 98.022 22.6995 97.336 22.5875 96.776C22.4848 96.2067 22.2655 95.7493 21.9295 95.404C21.6028 95.0587 21.1268 94.886 20.5015 94.886C19.8668 94.886 19.3815 95.0587 19.0455 95.404C18.7188 95.7493 18.4995 96.2067 18.3875 96.776C18.2848 97.336 18.2335 98.022 18.2335 98.834C18.2335 99.674 18.2848 100.379 18.3875 100.948C18.4995 101.517 18.7188 101.975 19.0455 102.32C19.3815 102.665 19.8668 102.838 20.5015 102.838C21.1268 102.838 21.6028 102.665 21.9295 102.32C22.2655 101.975 22.4848 101.517 22.5875 100.948C22.6995 100.379 22.7555 99.674 22.7555 98.834ZM35.8725 94.312V104H34.5985V96.776L31.3785 104H30.4825L27.2485 96.762V104H25.9745V94.312H27.3465L30.9305 102.32L34.5145 94.312H35.8725Z" fill="#A2A3A5"/>
<path d="M0.532 167.04V165.878H3.164V176H1.876V167.04H0.532ZM7.20038 170.736C6.67771 170.531 6.27638 170.232 5.99638 169.84C5.71638 169.448 5.57638 168.972 5.57638 168.412C5.57638 167.908 5.70238 167.455 5.95438 167.054C6.20638 166.643 6.57971 166.321 7.07438 166.088C7.57838 165.845 8.18504 165.724 8.89438 165.724C9.60371 165.724 10.2057 165.845 10.7004 166.088C11.2044 166.321 11.5824 166.643 11.8344 167.054C12.0957 167.455 12.2264 167.908 12.2264 168.412C12.2264 168.953 12.0817 169.429 11.7924 169.84C11.503 170.241 11.1064 170.54 10.6024 170.736C11.181 170.913 11.6384 171.226 11.9744 171.674C12.3197 172.113 12.4924 172.645 12.4924 173.27C12.4924 173.877 12.343 174.409 12.0444 174.866C11.7457 175.314 11.321 175.664 10.7704 175.916C10.229 176.159 9.60371 176.28 8.89438 176.28C8.18504 176.28 7.55971 176.159 7.01838 175.916C6.48638 175.664 6.07104 175.314 5.77238 174.866C5.47371 174.409 5.32438 173.877 5.32438 173.27C5.32438 172.645 5.49238 172.108 5.82838 171.66C6.16437 171.212 6.62171 170.904 7.20038 170.736ZM10.9944 168.566C10.9944 167.997 10.8077 167.558 10.4344 167.25C10.061 166.942 9.54771 166.788 8.89438 166.788C8.25038 166.788 7.74171 166.942 7.36838 167.25C6.99504 167.558 6.80838 168.001 6.80838 168.58C6.80838 169.103 6.99971 169.523 7.38238 169.84C7.77438 170.157 8.27838 170.316 8.89438 170.316C9.51971 170.316 10.0237 170.157 10.4064 169.84C10.7984 169.513 10.9944 169.089 10.9944 168.566ZM8.89438 171.296C8.20371 171.296 7.63904 171.459 7.20038 171.786C6.76171 172.103 6.54237 172.584 6.54237 173.228C6.54237 173.825 6.75238 174.306 7.17238 174.67C7.60171 175.034 8.17571 175.216 8.89438 175.216C9.61304 175.216 10.1824 175.034 10.6024 174.67C11.0224 174.306 11.2324 173.825 11.2324 173.228C11.2324 172.603 11.0177 172.127 10.5884 171.8C10.159 171.464 9.59438 171.296 8.89438 171.296ZM14.1844 170.834C14.1844 169.229 14.4457 167.978 14.9684 167.082C15.4911 166.177 16.4057 165.724 17.7124 165.724C19.0097 165.724 19.9197 166.177 20.4424 167.082C20.9651 167.978 21.2264 169.229 21.2264 170.834C21.2264 172.467 20.9651 173.737 20.4424 174.642C19.9197 175.547 19.0097 176 17.7124 176C16.4057 176 15.4911 175.547 14.9684 174.642C14.4457 173.737 14.1844 172.467 14.1844 170.834ZM19.9664 170.834C19.9664 170.022 19.9104 169.336 19.7984 168.776C19.6957 168.207 19.4764 167.749 19.1404 167.404C18.8137 167.059 18.3377 166.886 17.7124 166.886C17.0777 166.886 16.5924 167.059 16.2564 167.404C15.9297 167.749 15.7104 168.207 15.5984 168.776C15.4957 169.336 15.4444 170.022 15.4444 170.834C15.4444 171.674 15.4957 172.379 15.5984 172.948C15.7104 173.517 15.9297 173.975 16.2564 174.32C16.5924 174.665 17.0777 174.838 17.7124 174.838C18.3377 174.838 18.8137 174.665 19.1404 174.32C19.4764 173.975 19.6957 173.517 19.7984 172.948C19.9104 172.379 19.9664 171.674 19.9664 170.834ZM33.0834 166.312V176H31.8094V168.776L28.5894 176H27.6934L24.4594 168.762V176H23.1854V166.312H24.5574L28.1414 174.32L31.7254 166.312H33.0834Z" fill="#A2A3A5"/>
<path d="M0.532 239.04V237.878H3.164V248H1.876V239.04H0.532ZM5.04438 245.746V244.78L9.95838 237.976H11.4844V244.64H12.8844V245.746H11.4844V248H10.2244V245.746H5.04438ZM10.2804 239.306L6.51438 244.64H10.2804V239.306ZM14.1571 242.834C14.1571 241.229 14.4184 239.978 14.9411 239.082C15.4637 238.177 16.3784 237.724 17.6851 237.724C18.9824 237.724 19.8924 238.177 20.4151 239.082C20.9377 239.978 21.1991 241.229 21.1991 242.834C21.1991 244.467 20.9377 245.737 20.4151 246.642C19.8924 247.547 18.9824 248 17.6851 248C16.3784 248 15.4637 247.547 14.9411 246.642C14.4184 245.737 14.1571 244.467 14.1571 242.834ZM19.9391 242.834C19.9391 242.022 19.8831 241.336 19.7711 240.776C19.6684 240.207 19.4491 239.749 19.1131 239.404C18.7864 239.059 18.3104 238.886 17.6851 238.886C17.0504 238.886 16.5651 239.059 16.2291 239.404C15.9024 239.749 15.6831 240.207 15.5711 240.776C15.4684 241.336 15.4171 242.022 15.4171 242.834C15.4171 243.674 15.4684 244.379 15.5711 244.948C15.6831 245.517 15.9024 245.975 16.2291 246.32C16.5651 246.665 17.0504 246.838 17.6851 246.838C18.3104 246.838 18.7864 246.665 19.1131 246.32C19.4491 245.975 19.6684 245.517 19.7711 244.948C19.8831 244.379 19.9391 243.674 19.9391 242.834ZM33.0561 238.312V248H31.7821V240.776L28.5621 248H27.6661L24.4321 240.762V248H23.1581V238.312H24.5301L28.1141 246.32L31.6981 238.312H33.0561Z" fill="#A2A3A5"/>
<line x1="66" y1="26.5" x2="972" y2="26.5" stroke="#ECE9F1"/>
<line x1="66" y1="98.5" x2="972" y2="98.5" stroke="#ECE9F1"/>
<line x1="66" y1="170.5" x2="972" y2="170.5" stroke="#ECE9F1"/>
<line x1="66" y1="242.5" x2="972" y2="242.5" stroke="#ECE9F1"/>
<path d="M66 226.794C105.805 220.629 138.538 183.034 186.033 176.715C211.348 173.347 231.627 179.902 254.254 190.088C276.88 200.273 272.451 204.671 323.338 212.524C365.331 219.004 376.315 149.14 417.465 151.825C458.614 154.509 477.646 70.5119 521.091 77.5236C564.535 84.5353 573.216 66.4067 614.054 100.764C654.892 135.122 692.622 55.0367 743.886 48.0249C795.151 41.0132 808.503 115.435 832.832 112.63C857.161 109.825 879.066 162.855 899.92 170.568C920.773 178.281 926.686 150.263 971 150.263" stroke="#422F8A" stroke-opacity="0.87" stroke-width="4" stroke-linecap="round" stroke-linejoin="round"/>
<path d="M186.033 176.715C138.538 183.034 105.805 220.629 66 226.794V242H971V150.263C926.686 150.263 920.773 178.281 899.919 170.568C879.066 162.855 857.161 109.825 832.832 112.63C808.503 115.435 795.151 41.0132 743.886 48.0249C692.622 55.0367 654.892 135.122 614.054 100.764C573.216 66.4067 564.535 84.5353 521.091 77.5236C477.646 70.5119 458.614 154.509 417.465 151.825C376.315 149.14 365.331 219.004 323.338 212.524C272.451 204.671 276.88 200.273 254.254 190.088C231.627 179.902 211.348 173.347 186.033 176.715Z" fill="url(#paint0_linear_578_357)"/>
<path d="M66.532 270.04V268.878H69.164V279H67.876V270.04H66.532Z" fill="#A2A3A5"/>
<path d="M219.426 269.984H214.512V273.176C214.727 272.877 215.044 272.635 215.464 272.448C215.884 272.252 216.337 272.154 216.822 272.154C217.597 272.154 218.227 272.317 218.712 272.644C219.198 272.961 219.543 273.377 219.748 273.89C219.963 274.394 220.07 274.931 220.07 275.5C220.07 276.172 219.944 276.774 219.692 277.306C219.44 277.838 219.053 278.258 218.53 278.566C218.017 278.874 217.378 279.028 216.612 279.028C215.632 279.028 214.839 278.776 214.232 278.272C213.626 277.768 213.257 277.096 213.126 276.256H214.372C214.494 276.788 214.75 277.203 215.142 277.502C215.534 277.801 216.029 277.95 216.626 277.95C217.364 277.95 217.919 277.731 218.292 277.292C218.666 276.844 218.852 276.256 218.852 275.528C218.852 274.8 218.666 274.24 218.292 273.848C217.919 273.447 217.368 273.246 216.64 273.246C216.146 273.246 215.712 273.367 215.338 273.61C214.974 273.843 214.708 274.165 214.54 274.576H213.336V268.864H219.426V269.984Z" fill="#A2A3A5"/>
<path d="M359.894 270.04V268.878H362.526V279H361.238V270.04H359.894ZM364.715 273.834C364.715 272.229 364.976 270.978 365.499 270.082C366.021 269.177 366.936 268.724 368.243 268.724C369.54 268.724 370.45 269.177 370.973 270.082C371.495 270.978 371.757 272.229 371.757 273.834C371.757 275.467 371.495 276.737 370.973 277.642C370.45 278.547 369.54 279 368.243 279C366.936 279 366.021 278.547 365.499 277.642C364.976 276.737 364.715 275.467 364.715 273.834ZM370.497 273.834C370.497 273.022 370.441 272.336 370.329 271.776C370.226 271.207 370.007 270.749 369.671 270.404C369.344 270.059 368.868 269.886 368.243 269.886C367.608 269.886 367.123 270.059 366.787 270.404C366.46 270.749 366.241 271.207 366.129 271.776C366.026 272.336 365.975 273.022 365.975 273.834C365.975 274.674 366.026 275.379 366.129 275.948C366.241 276.517 366.46 276.975 366.787 277.32C367.123 277.665 367.608 277.838 368.243 277.838C368.868 277.838 369.344 277.665 369.671 277.32C370.007 276.975 370.226 276.517 370.329 275.948C370.441 275.379 370.497 274.674 370.497 273.834Z" fill="#A2A3A5"/>
<path d="M509.894 270.04V268.878H512.526V279H511.238V270.04H509.894ZM521.169 269.984H516.255V273.176C516.469 272.877 516.787 272.635 517.207 272.448C517.627 272.252 518.079 272.154 518.565 272.154C519.339 272.154 519.969 272.317 520.455 272.644C520.94 272.961 521.285 273.377 521.491 273.89C521.705 274.394 521.813 274.931 521.813 275.5C521.813 276.172 521.687 276.774 521.435 277.306C521.183 277.838 520.795 278.258 520.273 278.566C519.759 278.874 519.12 279.028 518.355 279.028C517.375 279.028 516.581 278.776 515.975 278.272C515.368 277.768 514.999 277.096 514.869 276.256H516.115C516.236 276.788 516.493 277.203 516.885 277.502C517.277 277.801 517.771 277.95 518.369 277.95C519.106 277.95 519.661 277.731 520.035 277.292C520.408 276.844 520.595 276.256 520.595 275.528C520.595 274.8 520.408 274.24 520.035 273.848C519.661 273.447 519.111 273.246 518.383 273.246C517.888 273.246 517.454 273.367 517.081 273.61C516.717 273.843 516.451 274.165 516.283 274.576H515.079V268.864H521.169V269.984Z" fill="#A2A3A5"/>
<path d="M658.792 277.978C659.977 277.026 660.906 276.247 661.578 275.64C662.25 275.024 662.815 274.385 663.272 273.722C663.739 273.05 663.972 272.392 663.972 271.748C663.972 271.141 663.823 270.665 663.524 270.32C663.235 269.965 662.763 269.788 662.11 269.788C661.475 269.788 660.981 269.989 660.626 270.39C660.281 270.782 660.094 271.309 660.066 271.972H658.834C658.871 270.927 659.189 270.119 659.786 269.55C660.383 268.981 661.153 268.696 662.096 268.696C663.057 268.696 663.818 268.962 664.378 269.494C664.947 270.026 665.232 270.759 665.232 271.692C665.232 272.467 664.999 273.223 664.532 273.96C664.075 274.688 663.552 275.332 662.964 275.892C662.376 276.443 661.625 277.087 660.71 277.824H665.526V278.888H658.792V277.978ZM666.999 273.834C666.999 272.229 667.26 270.978 667.783 270.082C668.306 269.177 669.22 268.724 670.527 268.724C671.824 268.724 672.734 269.177 673.257 270.082C673.78 270.978 674.041 272.229 674.041 273.834C674.041 275.467 673.78 276.737 673.257 277.642C672.734 278.547 671.824 279 670.527 279C669.22 279 668.306 278.547 667.783 277.642C667.26 276.737 666.999 275.467 666.999 273.834ZM672.781 273.834C672.781 273.022 672.725 272.336 672.613 271.776C672.51 271.207 672.291 270.749 671.955 270.404C671.628 270.059 671.152 269.886 670.527 269.886C669.892 269.886 669.407 270.059 669.071 270.404C668.744 270.749 668.525 271.207 668.413 271.776C668.31 272.336 668.259 273.022 668.259 273.834C668.259 274.674 668.31 275.379 668.413 275.948C668.525 276.517 668.744 276.975 669.071 277.32C669.407 277.665 669.892 277.838 670.527 277.838C671.152 277.838 671.628 277.665 671.955 277.32C672.291 276.975 672.51 276.517 672.613 275.948C672.725 275.379 672.781 274.674 672.781 273.834Z" fill="#A2A3A5"/>
<path d="M808.792 277.978C809.977 277.026 810.906 276.247 811.578 275.64C812.25 275.024 812.815 274.385 813.272 273.722C813.739 273.05 813.972 272.392 813.972 271.748C813.972 271.141 813.823 270.665 813.524 270.32C813.235 269.965 812.763 269.788 812.11 269.788C811.475 269.788 810.981 269.989 810.626 270.39C810.281 270.782 810.094 271.309 810.066 271.972H808.834C808.871 270.927 809.189 270.119 809.786 269.55C810.383 268.981 811.153 268.696 812.096 268.696C813.057 268.696 813.818 268.962 814.378 269.494C814.947 270.026 815.232 270.759 815.232 271.692C815.232 272.467 814.999 273.223 814.532 273.96C814.075 274.688 813.552 275.332 812.964 275.892C812.376 276.443 811.625 277.087 810.71 277.824H815.526V278.888H808.792V277.978ZM823.453 269.984H818.539V273.176C818.754 272.877 819.071 272.635 819.491 272.448C819.911 272.252 820.364 272.154 820.849 272.154C821.624 272.154 822.254 272.317 822.739 272.644C823.224 272.961 823.57 273.377 823.775 273.89C823.99 274.394 824.097 274.931 824.097 275.5C824.097 276.172 823.971 276.774 823.719 277.306C823.467 277.838 823.08 278.258 822.557 278.566C822.044 278.874 821.404 279.028 820.639 279.028C819.659 279.028 818.866 278.776 818.259 278.272C817.652 277.768 817.284 277.096 817.153 276.256H818.399C818.52 276.788 818.777 277.203 819.169 277.502C819.561 277.801 820.056 277.95 820.653 277.95C821.39 277.95 821.946 277.731 822.319 277.292C822.692 276.844 822.879 276.256 822.879 275.528C822.879 274.8 822.692 274.24 822.319 273.848C821.946 273.447 821.395 273.246 820.667 273.246C820.172 273.246 819.738 273.367 819.365 273.61C819.001 273.843 818.735 274.165 818.567 274.576H817.363V268.864H823.453V269.984Z" fill="#A2A3A5"/>
<path d="M954.805 271.426C954.87 270.567 955.202 269.895 955.799 269.41C956.396 268.925 957.171 268.682 958.123 268.682C958.758 268.682 959.304 268.799 959.761 269.032C960.228 269.256 960.578 269.564 960.811 269.956C961.054 270.348 961.175 270.791 961.175 271.286C961.175 271.865 961.007 272.364 960.671 272.784C960.344 273.204 959.915 273.475 959.383 273.596V273.666C959.99 273.815 960.47 274.109 960.825 274.548C961.18 274.987 961.357 275.561 961.357 276.27C961.357 276.802 961.236 277.283 960.993 277.712C960.75 278.132 960.386 278.463 959.901 278.706C959.416 278.949 958.832 279.07 958.151 279.07C957.162 279.07 956.35 278.813 955.715 278.3C955.08 277.777 954.726 277.04 954.651 276.088H955.883C955.948 276.648 956.177 277.105 956.569 277.46C956.961 277.815 957.484 277.992 958.137 277.992C958.79 277.992 959.285 277.824 959.621 277.488C959.966 277.143 960.139 276.699 960.139 276.158C960.139 275.458 959.906 274.954 959.439 274.646C958.972 274.338 958.268 274.184 957.325 274.184H957.003V273.12H957.339C958.198 273.111 958.846 272.971 959.285 272.7C959.724 272.42 959.943 271.991 959.943 271.412C959.943 270.917 959.78 270.521 959.453 270.222C959.136 269.923 958.678 269.774 958.081 269.774C957.502 269.774 957.036 269.923 956.681 270.222C956.326 270.521 956.116 270.922 956.051 271.426H954.805ZM963.077 273.834C963.077 272.229 963.338 270.978 963.861 270.082C964.384 269.177 965.298 268.724 966.605 268.724C967.902 268.724 968.812 269.177 969.335 270.082C969.858 270.978 970.119 272.229 970.119 273.834C970.119 275.467 969.858 276.737 969.335 277.642C968.812 278.547 967.902 279 966.605 279C965.298 279 964.384 278.547 963.861 277.642C963.338 276.737 963.077 275.467 963.077 273.834ZM968.859 273.834C968.859 273.022 968.803 272.336 968.691 271.776C968.588 271.207 968.369 270.749 968.033 270.404C967.706 270.059 967.23 269.886 966.605 269.886C965.97 269.886 965.485 270.059 965.149 270.404C964.822 270.749 964.603 271.207 964.491 271.776C964.388 272.336 964.337 273.022 964.337 273.834C964.337 274.674 964.388 275.379 964.491 275.948C964.603 276.517 964.822 276.975 965.149 277.32C965.485 277.665 965.97 277.838 966.605 277.838C967.23 277.838 967.706 277.665 968.033 277.32C968.369 276.975 968.588 276.517 968.691 275.948C968.803 275.379 968.859 274.674 968.859 273.834Z" fill="#A2A3A5"/>
<line x1="456.5" y1="126" x2="456.5" y2="242" stroke="#422F8A" stroke-opacity="0.87" stroke-dasharray="4.4 4.4"/>
<g filter="url(#filter0_dd_578_357)">
<path fill-rule="evenodd" clip-rule="evenodd" d="M459.462 104.149C457.55 106.617 454.45 106.617 452.538 104.149L448.302 98.9477C447.42 97.8647 446.979 97.3233 446.434 96.9337C445.952 96.5886 445.412 96.3321 444.84 96.1761C444.194 96 443.496 96 442.099 96H393.229C386.543 96 384.118 95.3038 381.674 93.9965C379.229 92.6892 377.311 90.7708 376.003 88.3263C374.696 85.8819 374 83.4573 374 76.7709V27.2291C374 20.5427 374.696 18.1181 376.003 15.6737C377.311 13.2292 379.229 11.3108 381.674 10.0035C384.118 8.69619 386.543 8 393.229 8H519.771C526.457 8 528.882 8.69619 531.326 10.0035C533.771 11.3108 535.689 13.2292 536.997 15.6737C538.304 18.1181 539 20.5427 539 27.2291V76.7709C539 83.4573 538.304 85.8819 536.997 88.3263C535.689 90.7708 533.771 92.6892 531.326 93.9965C528.882 95.3038 526.457 96 519.771 96H473.703C470.909 96 469.513 96 468.221 96.3522C467.077 96.6642 465.997 97.1773 465.032 97.8675C463.944 98.6466 463.062 99.7295 461.297 101.895L459.462 104.149Z" fill="white"/>
</g>
<g clip-path="url(#clip0_578_357)">
<path d="M392.107 25.424V26.016H390.587V31H389.859V26.016H388.331V25.424H392.107ZM395.179 26.536C395.509 26.536 395.808 26.608 396.075 26.752C396.341 26.8907 396.549 27.1013 396.699 27.384C396.853 27.6667 396.931 28.0107 396.931 28.416V31H396.211V28.52C396.211 28.0827 396.101 27.7493 395.883 27.52C395.664 27.2853 395.365 27.168 394.987 27.168C394.603 27.168 394.296 27.288 394.067 27.528C393.843 27.768 393.731 28.1173 393.731 28.576V31H393.003V25.08H393.731V27.24C393.875 27.016 394.072 26.8427 394.323 26.72C394.579 26.5973 394.864 26.536 395.179 26.536ZM398.496 25.904C398.357 25.904 398.24 25.856 398.144 25.76C398.048 25.664 398 25.5467 398 25.408C398 25.2693 398.048 25.152 398.144 25.056C398.24 24.96 398.357 24.912 398.496 24.912C398.629 24.912 398.741 24.96 398.832 25.056C398.928 25.152 398.976 25.2693 398.976 25.408C398.976 25.5467 398.928 25.664 398.832 25.76C398.741 25.856 398.629 25.904 398.496 25.904ZM398.848 26.616V31H398.12V26.616H398.848ZM401.641 31.072C401.305 31.072 401.003 31.016 400.737 30.904C400.47 30.7867 400.259 30.6267 400.105 30.424C399.95 30.216 399.865 29.9787 399.849 29.712H400.601C400.622 29.9307 400.723 30.1093 400.905 30.248C401.091 30.3867 401.334 30.456 401.633 30.456C401.91 30.456 402.129 30.3947 402.289 30.272C402.449 30.1493 402.529 29.9947 402.529 29.808C402.529 29.616 402.443 29.4747 402.273 29.384C402.102 29.288 401.838 29.1947 401.481 29.104C401.155 29.0187 400.889 28.9333 400.681 28.848C400.478 28.7573 400.302 28.6267 400.153 28.456C400.009 28.28 399.937 28.0507 399.937 27.768C399.937 27.544 400.003 27.3387 400.137 27.152C400.27 26.9653 400.459 26.8187 400.705 26.712C400.95 26.6 401.23 26.544 401.545 26.544C402.03 26.544 402.422 26.6667 402.721 26.912C403.019 27.1573 403.179 27.4933 403.201 27.92H402.473C402.457 27.6907 402.363 27.5067 402.193 27.368C402.027 27.2293 401.803 27.16 401.521 27.16C401.259 27.16 401.051 27.216 400.897 27.328C400.742 27.44 400.665 27.5867 400.665 27.768C400.665 27.912 400.71 28.032 400.801 28.128C400.897 28.2187 401.014 28.2933 401.153 28.352C401.297 28.4053 401.494 28.4667 401.745 28.536C402.059 28.6213 402.315 28.7067 402.513 28.792C402.71 28.872 402.878 28.9947 403.017 29.16C403.161 29.3253 403.235 29.5413 403.241 29.808C403.241 30.048 403.174 30.264 403.041 30.456C402.907 30.648 402.718 30.8 402.473 30.912C402.233 31.0187 401.955 31.072 401.641 31.072ZM412.057 25.464V31H411.329V26.872L409.489 31H408.977L407.129 26.864V31H406.401V25.464H407.185L409.233 30.04L411.281 25.464H412.057ZM415.204 31.072C414.793 31.072 414.42 30.9787 414.084 30.792C413.753 30.6053 413.492 30.3413 413.3 30C413.113 29.6533 413.02 29.2533 413.02 28.8C413.02 28.352 413.116 27.9573 413.308 27.616C413.505 27.2693 413.772 27.0053 414.108 26.824C414.444 26.6373 414.82 26.544 415.236 26.544C415.652 26.544 416.028 26.6373 416.364 26.824C416.7 27.0053 416.964 27.2667 417.156 27.608C417.353 27.9493 417.452 28.3467 417.452 28.8C417.452 29.2533 417.35 29.6533 417.148 30C416.95 30.3413 416.681 30.6053 416.34 30.792C415.998 30.9787 415.62 31.072 415.204 31.072ZM415.204 30.432C415.465 30.432 415.71 30.3707 415.94 30.248C416.169 30.1253 416.353 29.9413 416.492 29.696C416.636 29.4507 416.708 29.152 416.708 28.8C416.708 28.448 416.638 28.1493 416.5 27.904C416.361 27.6587 416.18 27.4773 415.956 27.36C415.732 27.2373 415.489 27.176 415.228 27.176C414.961 27.176 414.716 27.2373 414.492 27.36C414.273 27.4773 414.097 27.6587 413.964 27.904C413.83 28.1493 413.764 28.448 413.764 28.8C413.764 29.1573 413.828 29.4587 413.956 29.704C414.089 29.9493 414.265 30.1333 414.484 30.256C414.702 30.3733 414.942 30.432 415.204 30.432ZM420.545 26.536C421.078 26.536 421.51 26.6987 421.841 27.024C422.172 27.344 422.337 27.808 422.337 28.416V31H421.617V28.52C421.617 28.0827 421.508 27.7493 421.289 27.52C421.07 27.2853 420.772 27.168 420.393 27.168C420.009 27.168 419.702 27.288 419.473 27.528C419.249 27.768 419.137 28.1173 419.137 28.576V31H418.409V26.616H419.137V27.24C419.281 27.016 419.476 26.8427 419.721 26.72C419.972 26.5973 420.246 26.536 420.545 26.536ZM424.414 27.216V29.8C424.414 30.0133 424.459 30.1653 424.55 30.256C424.641 30.3413 424.798 30.384 425.022 30.384H425.558V31H424.902C424.497 31 424.193 30.9067 423.99 30.72C423.787 30.5333 423.686 30.2267 423.686 29.8V27.216H423.118V26.616H423.686V25.512H424.414V26.616H425.558V27.216H424.414ZM428.616 26.536C428.947 26.536 429.246 26.608 429.512 26.752C429.779 26.8907 429.987 27.1013 430.136 27.384C430.291 27.6667 430.368 28.0107 430.368 28.416V31H429.648V28.52C429.648 28.0827 429.539 27.7493 429.32 27.52C429.102 27.2853 428.803 27.168 428.424 27.168C428.04 27.168 427.734 27.288 427.504 27.528C427.28 27.768 427.168 28.1173 427.168 28.576V31H426.44V25.08H427.168V27.24C427.312 27.016 427.51 26.8427 427.76 26.72C428.016 26.5973 428.302 26.536 428.616 26.536Z" fill="#3C3C43" fill-opacity="0.6"/>
<path d="M389.329 52.986C389.827 52.59 390.055 52.4067 390.011 52.436C391.448 51.248 392.577 50.2727 393.399 49.51C394.235 48.7473 394.939 47.948 395.511 47.112C396.083 46.276 396.369 45.462 396.369 44.67C396.369 44.0687 396.229 43.5993 395.951 43.262C395.672 42.9247 395.254 42.756 394.697 42.756C394.139 42.756 393.699 42.9687 393.377 43.394C393.069 43.8047 392.915 44.3913 392.915 45.154H389.285C389.314 43.9073 389.578 42.866 390.077 42.03C390.59 41.194 391.257 40.578 392.079 40.182C392.915 39.786 393.839 39.588 394.851 39.588C396.596 39.588 397.909 40.0353 398.789 40.93C399.683 41.8247 400.131 42.9907 400.131 44.428C400.131 45.9973 399.595 47.4567 398.525 48.806C397.454 50.1407 396.09 51.446 394.433 52.722H400.373V55.78H389.329V52.986ZM401.897 52.986C402.396 52.59 402.623 52.4067 402.579 52.436C404.016 51.248 405.146 50.2727 405.967 49.51C406.803 48.7473 407.507 47.948 408.079 47.112C408.651 46.276 408.937 45.462 408.937 44.67C408.937 44.0687 408.798 43.5993 408.519 43.262C408.24 42.9247 407.822 42.756 407.265 42.756C406.708 42.756 406.268 42.9687 405.945 43.394C405.637 43.8047 405.483 44.3913 405.483 45.154H401.853C401.882 43.9073 402.146 42.866 402.645 42.03C403.158 41.194 403.826 40.578 404.647 40.182C405.483 39.786 406.407 39.588 407.419 39.588C409.164 39.588 410.477 40.0353 411.357 40.93C412.252 41.8247 412.699 42.9907 412.699 44.428C412.699 45.9973 412.164 47.4567 411.093 48.806C410.022 50.1407 408.658 51.446 407.001 52.722H412.941V55.78H401.897V52.986ZM414.597 47.75C414.597 45.2273 415.081 43.24 416.049 41.788C417.032 40.336 418.609 39.61 420.779 39.61C422.95 39.61 424.519 40.336 425.487 41.788C426.47 43.24 426.961 45.2273 426.961 47.75C426.961 50.302 426.47 52.304 425.487 53.756C424.519 55.208 422.95 55.934 420.779 55.934C418.609 55.934 417.032 55.208 416.049 53.756C415.081 52.304 414.597 50.302 414.597 47.75ZM423.265 47.75C423.265 46.2687 423.104 45.132 422.781 44.34C422.459 43.5333 421.791 43.13 420.779 43.13C419.767 43.13 419.1 43.5333 418.777 44.34C418.455 45.132 418.293 46.2687 418.293 47.75C418.293 48.7473 418.352 49.576 418.469 50.236C418.587 50.8813 418.821 51.4093 419.173 51.82C419.54 52.216 420.075 52.414 420.779 52.414C421.483 52.414 422.011 52.216 422.363 51.82C422.73 51.4093 422.972 50.8813 423.089 50.236C423.207 49.576 423.265 48.7473 423.265 47.75ZM433.371 52.524L430.929 58.838H428.531L429.807 52.524H433.371ZM435.397 44.472C435.456 42.9027 435.969 41.6927 436.937 40.842C437.905 39.9913 439.218 39.566 440.875 39.566C441.975 39.566 442.914 39.7567 443.691 40.138C444.483 40.5193 445.077 41.04 445.473 41.7C445.884 42.36 446.089 43.1007 446.089 43.922C446.089 44.89 445.847 45.682 445.363 46.298C444.879 46.8993 444.315 47.31 443.669 47.53V47.618C444.505 47.8967 445.165 48.3587 445.649 49.004C446.133 49.6493 446.375 50.478 446.375 51.49C446.375 52.3993 446.163 53.206 445.737 53.91C445.327 54.5993 444.718 55.142 443.911 55.538C443.119 55.934 442.173 56.132 441.073 56.132C439.313 56.132 437.905 55.6993 436.849 54.834C435.808 53.9687 435.258 52.6633 435.199 50.918H438.851C438.866 51.5633 439.049 52.0767 439.401 52.458C439.753 52.8247 440.267 53.008 440.941 53.008C441.513 53.008 441.953 52.8467 442.261 52.524C442.584 52.1867 442.745 51.7467 442.745 51.204C442.745 50.5 442.518 49.994 442.063 49.686C441.623 49.3633 440.912 49.202 439.929 49.202H439.225V46.144H439.929C440.677 46.144 441.279 46.0193 441.733 45.77C442.203 45.506 442.437 45.044 442.437 44.384C442.437 43.856 442.291 43.4453 441.997 43.152C441.704 42.8587 441.301 42.712 440.787 42.712C440.23 42.712 439.812 42.8807 439.533 43.218C439.269 43.5553 439.115 43.9733 439.071 44.472H435.397ZM448.674 53.14V50.104L455.626 40.16H459.828V49.884H461.632V53.14H459.828V56H456.066V53.14H448.674ZM456.33 44.296L452.634 49.884H456.33V44.296ZM463.342 52.986C463.841 52.59 464.068 52.4067 464.024 52.436C465.462 51.248 466.591 50.2727 467.412 49.51C468.248 48.7473 468.952 47.948 469.524 47.112C470.096 46.276 470.382 45.462 470.382 44.67C470.382 44.0687 470.243 43.5993 469.964 43.262C469.686 42.9247 469.268 42.756 468.71 42.756C468.153 42.756 467.713 42.9687 467.39 43.394C467.082 43.8047 466.928 44.3913 466.928 45.154H463.298C463.328 43.9073 463.592 42.866 464.09 42.03C464.604 41.194 465.271 40.578 466.092 40.182C466.928 39.786 467.852 39.588 468.864 39.588C470.61 39.588 471.922 40.0353 472.802 40.93C473.697 41.8247 474.144 42.9907 474.144 44.428C474.144 45.9973 473.609 47.4567 472.538 48.806C471.468 50.1407 470.104 51.446 468.446 52.722H474.386V55.78H463.342V52.986ZM480.465 52.524L478.023 58.838H475.625L476.901 52.524H480.465ZM481.963 43.438V39.94H488.057V56H484.141V43.438H481.963ZM490.499 52.986C490.997 52.59 491.225 52.4067 491.181 52.436C492.618 51.248 493.747 50.2727 494.569 49.51C495.405 48.7473 496.109 47.948 496.681 47.112C497.253 46.276 497.539 45.462 497.539 44.67C497.539 44.0687 497.399 43.5993 497.121 43.262C496.842 42.9247 496.424 42.756 495.867 42.756C495.309 42.756 494.869 42.9687 494.547 43.394C494.239 43.8047 494.085 44.3913 494.085 45.154H490.455C490.484 43.9073 490.748 42.866 491.247 42.03C491.76 41.194 492.427 40.578 493.249 40.182C494.085 39.786 495.009 39.588 496.021 39.588C497.766 39.588 499.079 40.0353 499.959 40.93C500.853 41.8247 501.301 42.9907 501.301 44.428C501.301 45.9973 500.765 47.4567 499.695 48.806C498.624 50.1407 497.26 51.446 495.603 52.722H501.543V55.78H490.499V52.986ZM503.331 44.472C503.39 42.9027 503.903 41.6927 504.871 40.842C505.839 39.9913 507.152 39.566 508.809 39.566C509.909 39.566 510.848 39.7567 511.625 40.138C512.417 40.5193 513.011 41.04 513.407 41.7C513.818 42.36 514.023 43.1007 514.023 43.922C514.023 44.89 513.781 45.682 513.297 46.298C512.813 46.8993 512.248 47.31 511.603 47.53V47.618C512.439 47.8967 513.099 48.3587 513.583 49.004C514.067 49.6493 514.309 50.478 514.309 51.49C514.309 52.3993 514.096 53.206 513.671 53.91C513.26 54.5993 512.652 55.142 511.845 55.538C511.053 55.934 510.107 56.132 509.007 56.132C507.247 56.132 505.839 55.6993 504.783 54.834C503.742 53.9687 503.192 52.6633 503.133 50.918H506.785C506.8 51.5633 506.983 52.0767 507.335 52.458C507.687 52.8247 508.2 53.008 508.875 53.008C509.447 53.008 509.887 52.8467 510.195 52.524C510.518 52.1867 510.679 51.7467 510.679 51.204C510.679 50.5 510.452 49.994 509.997 49.686C509.557 49.3633 508.846 49.202 507.863 49.202H507.159V46.144H507.863C508.611 46.144 509.212 46.0193 509.667 45.77C510.136 45.506 510.371 45.044 510.371 44.384C510.371 43.856 510.224 43.4453 509.931 43.152C509.638 42.8587 509.234 42.712 508.721 42.712C508.164 42.712 507.746 42.8807 507.467 43.218C507.203 43.5553 507.049 43.9733 507.005 44.472H503.331Z" fill="#11263C"/>
<path d="M397.804 67.696V76H396.712V69.808L393.952 76H393.184L390.412 69.796V76H389.32V67.696H390.496L393.568 74.56L396.64 67.696H397.804ZM399.248 72.688C399.248 72.016 399.384 71.428 399.656 70.924C399.928 70.412 400.3 70.016 400.772 69.736C401.252 69.456 401.784 69.316 402.368 69.316C402.944 69.316 403.444 69.44 403.868 69.688C404.292 69.936 404.608 70.248 404.816 70.624V69.424H405.92V76H404.816V74.776C404.6 75.16 404.276 75.48 403.844 75.736C403.42 75.984 402.924 76.108 402.356 76.108C401.772 76.108 401.244 75.964 400.772 75.676C400.3 75.388 399.928 74.984 399.656 74.464C399.384 73.944 399.248 73.352 399.248 72.688ZM404.816 72.7C404.816 72.204 404.716 71.772 404.516 71.404C404.316 71.036 404.044 70.756 403.7 70.564C403.364 70.364 402.992 70.264 402.584 70.264C402.176 70.264 401.804 70.36 401.468 70.552C401.132 70.744 400.864 71.024 400.664 71.392C400.464 71.76 400.364 72.192 400.364 72.688C400.364 73.192 400.464 73.632 400.664 74.008C400.864 74.376 401.132 74.66 401.468 74.86C401.804 75.052 402.176 75.148 402.584 75.148C402.992 75.148 403.364 75.052 403.7 74.86C404.044 74.66 404.316 74.376 404.516 74.008C404.716 73.632 404.816 73.196 404.816 72.7ZM413.43 69.424L409.47 79.096H408.342L409.638 75.928L406.986 69.424H408.198L410.262 74.752L412.302 69.424H413.43Z" fill="#3C3C43" fill-opacity="0.6"/>
</g>
<g filter="url(#filter1_dd_578_357)">
<rect x="446" y="116" width="20" height="20" rx="10" fill="#422F8A" fill-opacity="0.87"/>
<rect x="448" y="118" width="16" height="16" rx="8" stroke="white" stroke-width="4"/>
</g>
<defs>
<filter id="filter0_dd_578_357" x="358" y="0" width="197" height="130" filterUnits="userSpaceOnUse" color-interpolation-filters="sRGB">
<feFlood flood-opacity="0" result="BackgroundImageFix"/>
<feColorMatrix in="SourceAlpha" type="matrix" values="0 0 0 0 0 0 0 0 0 0 0 0 0 0 0 0 0 0 127 0" result="hardAlpha"/>
<feOffset dy="8"/>
<feGaussianBlur stdDeviation="8"/>
<feColorMatrix type="matrix" values="0 0 0 0 0.196487 0 0 0 0 0.196487 0 0 0 0 0.279476 0 0 0 0.06 0"/>
<feBlend mode="multiply" in2="BackgroundImageFix" result="effect1_dropShadow_578_357"/>
<feColorMatrix in="SourceAlpha" type="matrix" values="0 0 0 0 0 0 0 0 0 0 0 0 0 0 0 0 0 0 127 0" result="hardAlpha"/>
<feOffset dy="8"/>
<feGaussianBlur stdDeviation="4"/>
<feColorMatrix type="matrix" values="0 0 0 0 0.196487 0 0 0 0 0.196487 0 0 0 0 0.279476 0 0 0 0.08 0"/>
<feBlend mode="multiply" in2="effect1_dropShadow_578_357" result="effect2_dropShadow_578_357"/>
<feBlend mode="normal" in="SourceGraphic" in2="effect2_dropShadow_578_357" result="shape"/>
</filter>
<filter id="filter1_dd_578_357" x="440.667" y="113.333" width="30.6667" height="30.6667" filterUnits="userSpaceOnUse" color-interpolation-filters="sRGB">
<feFlood flood-opacity="0" result="BackgroundImageFix"/>
<feColorMatrix in="SourceAlpha" type="matrix" values="0 0 0 0 0 0 0 0 0 0 0 0 0 0 0 0 0 0 127 0" result="hardAlpha"/>
<feOffset dy="2.66667"/>
<feGaussianBlur stdDeviation="2.66667"/>
<feColorMatrix type="matrix" values="0 0 0 0 0.196487 0 0 0 0 0.196487 0 0 0 0 0.279476 0 0 0 0.06 0"/>
<feBlend mode="multiply" in2="BackgroundImageFix" result="effect1_dropShadow_578_357"/>
<feColorMatrix in="SourceAlpha" type="matrix" values="0 0 0 0 0 0 0 0 0 0 0 0 0 0 0 0 0 0 127 0" result="hardAlpha"/>
<feOffset dy="2.66667"/>
<feGaussianBlur stdDeviation="1.33333"/>
<feColorMatrix type="matrix" values="0 0 0 0 0.196487 0 0 0 0 0.196487 0 0 0 0 0.279476 0 0 0 0.06 0"/>
<feBlend mode="multiply" in2="effect1_dropShadow_578_357" result="effect2_dropShadow_578_357"/>
<feBlend mode="normal" in="SourceGraphic" in2="effect2_dropShadow_578_357" result="shape"/>
</filter>
<linearGradient id="paint0_linear_578_357" x1="518.5" y1="47.5586" x2="518.5" y2="323.334" gradientUnits="userSpaceOnUse">
<stop stop-color="#7459D9" stop-opacity="0.1"/>
<stop offset="0.998978" stop-color="white" stop-opacity="0"/>
</linearGradient>
<clipPath id="clip0_578_357">
<rect width="128" height="60" fill="white" transform="translate(388 22)"/>
</clipPath>
</defs>
</svg>
