<svg width="591" height="348" viewBox="0 0 591 348" fill="none" xmlns="http://www.w3.org/2000/svg">
<mask id="mask0_8121_217" style="mask-type:luminance" maskUnits="userSpaceOnUse" x="0" y="0" width="591" height="348">
<rect width="591" height="348" rx="12" fill="white"/>
</mask>
<g mask="url(#mask0_8121_217)">
<g filter="url(#filter0_d_8121_217)">
<rect width="593.017" height="348" rx="20" fill="white"/>
<rect x="0.5" y="0.5" width="592.017" height="347" rx="19.5" stroke="#F8F9FA"/>
</g>
</g>
<path d="M38.3 39.84C39.0867 39.9867 39.7333 40.38 40.24 41.02C40.7467 41.66 41 42.3933 41 43.22C41 43.9667 40.8133 44.6267 40.44 45.2C40.08 45.76 39.5533 46.2 38.86 46.52C38.1667 46.84 37.3467 47 36.4 47H30.38V33.04H36.14C37.0867 33.04 37.9 33.1933 38.58 33.5C39.2733 33.8067 39.7933 34.2333 40.14 34.78C40.5 35.3267 40.68 35.9467 40.68 36.64C40.68 37.4533 40.46 38.1333 40.02 38.68C39.5933 39.2267 39.02 39.6133 38.3 39.84ZM33.18 38.8H35.74C36.4067 38.8 36.92 38.6533 37.28 38.36C37.64 38.0533 37.82 37.62 37.82 37.06C37.82 36.5 37.64 36.0667 37.28 35.76C36.92 35.4533 36.4067 35.3 35.74 35.3H33.18V38.8ZM36 44.72C36.68 44.72 37.2067 44.56 37.58 44.24C37.9667 43.92 38.16 43.4667 38.16 42.88C38.16 42.28 37.96 41.8133 37.56 41.48C37.16 41.1333 36.62 40.96 35.94 40.96H33.18V44.72H36ZM53.6916 35.92V47H50.8716V45.6C50.5116 46.08 50.0382 46.46 49.4516 46.74C48.8782 47.0067 48.2516 47.14 47.5716 47.14C46.7049 47.14 45.9382 46.96 45.2716 46.6C44.6049 46.2267 44.0782 45.6867 43.6916 44.98C43.3182 44.26 43.1316 43.4067 43.1316 42.42V35.92H45.9316V42.02C45.9316 42.9 46.1516 43.58 46.5916 44.06C47.0316 44.5267 47.6316 44.76 48.3916 44.76C49.1649 44.76 49.7716 44.5267 50.2116 44.06C50.6516 43.58 50.8716 42.9 50.8716 42.02V35.92H53.6916ZM55.7342 41.42C55.7342 40.3 55.9542 39.3067 56.3942 38.44C56.8476 37.5733 57.4609 36.9067 58.2342 36.44C59.0076 35.9733 59.8676 35.74 60.8142 35.74C61.5342 35.74 62.2209 35.9 62.8742 36.22C63.5276 36.5267 64.0476 36.94 64.4342 37.46V32.2H67.2742V47H64.4342V45.36C64.0876 45.9067 63.6009 46.3467 62.9742 46.68C62.3476 47.0133 61.6209 47.18 60.7942 47.18C59.8609 47.18 59.0076 46.94 58.2342 46.46C57.4609 45.98 56.8476 45.3067 56.3942 44.44C55.9542 43.56 55.7342 42.5533 55.7342 41.42ZM64.4542 41.46C64.4542 40.78 64.3209 40.2 64.0542 39.72C63.7876 39.2267 63.4276 38.8533 62.9742 38.6C62.5209 38.3333 62.0342 38.2 61.5142 38.2C60.9942 38.2 60.5142 38.3267 60.0742 38.58C59.6342 38.8333 59.2742 39.2067 58.9942 39.7C58.7276 40.18 58.5942 40.7533 58.5942 41.42C58.5942 42.0867 58.7276 42.6733 58.9942 43.18C59.2742 43.6733 59.6342 44.0533 60.0742 44.32C60.5276 44.5867 61.0076 44.72 61.5142 44.72C62.0342 44.72 62.5209 44.5933 62.9742 44.34C63.4276 44.0733 63.7876 43.7 64.0542 43.22C64.3209 42.7267 64.4542 42.14 64.4542 41.46ZM74.3489 35.74C75.1756 35.74 75.9022 35.9067 76.5289 36.24C77.1556 36.56 77.6489 36.98 78.0089 37.5V35.92H80.8289V47.08C80.8289 48.1067 80.6222 49.02 80.2089 49.82C79.7956 50.6333 79.1756 51.2733 78.3489 51.74C77.5222 52.22 76.5222 52.46 75.3489 52.46C73.7756 52.46 72.4822 52.0933 71.4689 51.36C70.4689 50.6267 69.9022 49.6267 69.7689 48.36H72.5489C72.6956 48.8667 73.0089 49.2667 73.4889 49.56C73.9822 49.8667 74.5756 50.02 75.2689 50.02C76.0822 50.02 76.7422 49.7733 77.2489 49.28C77.7556 48.8 78.0089 48.0667 78.0089 47.08V45.36C77.6489 45.88 77.1489 46.3133 76.5089 46.66C75.8822 47.0067 75.1622 47.18 74.3489 47.18C73.4156 47.18 72.5622 46.94 71.7889 46.46C71.0156 45.98 70.4022 45.3067 69.9489 44.44C69.5089 43.56 69.2889 42.5533 69.2889 41.42C69.2889 40.3 69.5089 39.3067 69.9489 38.44C70.4022 37.5733 71.0089 36.9067 71.7689 36.44C72.5422 35.9733 73.4022 35.74 74.3489 35.74ZM78.0089 41.46C78.0089 40.78 77.8756 40.2 77.6089 39.72C77.3422 39.2267 76.9822 38.8533 76.5289 38.6C76.0756 38.3333 75.5889 38.2 75.0689 38.2C74.5489 38.2 74.0689 38.3267 73.6289 38.58C73.1889 38.8333 72.8289 39.2067 72.5489 39.7C72.2822 40.18 72.1489 40.7533 72.1489 41.42C72.1489 42.0867 72.2822 42.6733 72.5489 43.18C72.8289 43.6733 73.1889 44.0533 73.6289 44.32C74.0822 44.5867 74.5622 44.72 75.0689 44.72C75.5889 44.72 76.0756 44.5933 76.5289 44.34C76.9822 44.0733 77.3422 43.7 77.6089 43.22C77.8756 42.7267 78.0089 42.14 78.0089 41.46ZM93.8636 41.22C93.8636 41.62 93.8369 41.98 93.7836 42.3H85.6836C85.7503 43.1 86.0303 43.7267 86.5236 44.18C87.0169 44.6333 87.6236 44.86 88.3436 44.86C89.3836 44.86 90.1236 44.4133 90.5636 43.52H93.5836C93.2636 44.5867 92.6503 45.4667 91.7436 46.16C90.8369 46.84 89.7236 47.18 88.4036 47.18C87.3369 47.18 86.3769 46.9467 85.5236 46.48C84.6836 46 84.0236 45.3267 83.5436 44.46C83.0769 43.5933 82.8436 42.5933 82.8436 41.46C82.8436 40.3133 83.0769 39.3067 83.5436 38.44C84.0103 37.5733 84.6636 36.9067 85.5036 36.44C86.3436 35.9733 87.3103 35.74 88.4036 35.74C89.4569 35.74 90.3969 35.9667 91.2236 36.42C92.0636 36.8733 92.7103 37.52 93.1636 38.36C93.6303 39.1867 93.8636 40.14 93.8636 41.22ZM90.9636 40.42C90.9503 39.7 90.6903 39.1267 90.1836 38.7C89.6769 38.26 89.0569 38.04 88.3236 38.04C87.6303 38.04 87.0436 38.2533 86.5636 38.68C86.0969 39.0933 85.8103 39.6733 85.7036 40.42H90.9636ZM99.1673 38.22V43.58C99.1673 43.9533 99.254 44.2267 99.4273 44.4C99.614 44.56 99.9207 44.64 100.347 44.64H101.647V47H99.8873C97.5273 47 96.3473 45.8533 96.3473 43.56V38.22H95.0273V35.92H96.3473V33.18H99.1673V35.92H101.647V38.22H99.1673ZM109.847 34.6C109.354 34.6 108.94 34.4467 108.607 34.14C108.287 33.82 108.127 33.4267 108.127 32.96C108.127 32.4933 108.287 32.1067 108.607 31.8C108.94 31.48 109.354 31.32 109.847 31.32C110.34 31.32 110.747 31.48 111.067 31.8C111.4 32.1067 111.567 32.4933 111.567 32.96C111.567 33.4267 111.4 33.82 111.067 34.14C110.747 34.4467 110.34 34.6 109.847 34.6ZM111.227 35.92V47H108.427V35.92H111.227ZM120.133 35.76C121.453 35.76 122.52 36.18 123.333 37.02C124.147 37.8467 124.553 39.0067 124.553 40.5V47H121.753V40.88C121.753 40 121.533 39.3267 121.093 38.86C120.653 38.38 120.053 38.14 119.293 38.14C118.52 38.14 117.907 38.38 117.453 38.86C117.013 39.3267 116.793 40 116.793 40.88V47H113.993V35.92H116.793V37.3C117.167 36.82 117.64 36.4467 118.213 36.18C118.8 35.9 119.44 35.76 120.133 35.76ZM131.456 47.18C130.549 47.18 129.736 47.02 129.016 46.7C128.296 46.3667 127.723 45.92 127.296 45.36C126.883 44.8 126.656 44.18 126.616 43.5H129.436C129.489 43.9267 129.696 44.28 130.056 44.56C130.429 44.84 130.889 44.98 131.436 44.98C131.969 44.98 132.383 44.8733 132.676 44.66C132.983 44.4467 133.136 44.1733 133.136 43.84C133.136 43.48 132.949 43.2133 132.576 43.04C132.216 42.8533 131.636 42.6533 130.836 42.44C130.009 42.24 129.329 42.0333 128.796 41.82C128.276 41.6067 127.823 41.28 127.436 40.84C127.063 40.4 126.876 39.8067 126.876 39.06C126.876 38.4467 127.049 37.8867 127.396 37.38C127.756 36.8733 128.263 36.4733 128.916 36.18C129.583 35.8867 130.363 35.74 131.256 35.74C132.576 35.74 133.629 36.0733 134.416 36.74C135.203 37.3933 135.636 38.28 135.716 39.4H133.036C132.996 38.96 132.809 38.6133 132.476 38.36C132.156 38.0933 131.723 37.96 131.176 37.96C130.669 37.96 130.276 38.0533 129.996 38.24C129.729 38.4267 129.596 38.6867 129.596 39.02C129.596 39.3933 129.783 39.68 130.156 39.88C130.529 40.0667 131.109 40.26 131.896 40.46C132.696 40.66 133.356 40.8667 133.876 41.08C134.396 41.2933 134.843 41.6267 135.216 42.08C135.603 42.52 135.803 43.1067 135.816 43.84C135.816 44.48 135.636 45.0533 135.276 45.56C134.929 46.0667 134.423 46.4667 133.756 46.76C133.103 47.04 132.336 47.18 131.456 47.18ZM139.534 34.6C139.041 34.6 138.628 34.4467 138.294 34.14C137.974 33.82 137.814 33.4267 137.814 32.96C137.814 32.4933 137.974 32.1067 138.294 31.8C138.628 31.48 139.041 31.32 139.534 31.32C140.028 31.32 140.434 31.48 140.754 31.8C141.088 32.1067 141.254 32.4933 141.254 32.96C141.254 33.4267 141.088 33.82 140.754 34.14C140.434 34.4467 140.028 34.6 139.534 34.6ZM140.914 35.92V47H138.114V35.92H140.914ZM148.021 35.74C148.847 35.74 149.574 35.9067 150.201 36.24C150.827 36.56 151.321 36.98 151.681 37.5V35.92H154.501V47.08C154.501 48.1067 154.294 49.02 153.881 49.82C153.467 50.6333 152.847 51.2733 152.021 51.74C151.194 52.22 150.194 52.46 149.021 52.46C147.447 52.46 146.154 52.0933 145.141 51.36C144.141 50.6267 143.574 49.6267 143.441 48.36H146.221C146.367 48.8667 146.681 49.2667 147.161 49.56C147.654 49.8667 148.247 50.02 148.941 50.02C149.754 50.02 150.414 49.7733 150.921 49.28C151.427 48.8 151.681 48.0667 151.681 47.08V45.36C151.321 45.88 150.821 46.3133 150.181 46.66C149.554 47.0067 148.834 47.18 148.021 47.18C147.087 47.18 146.234 46.94 145.461 46.46C144.687 45.98 144.074 45.3067 143.621 44.44C143.181 43.56 142.961 42.5533 142.961 41.42C142.961 40.3 143.181 39.3067 143.621 38.44C144.074 37.5733 144.681 36.9067 145.441 36.44C146.214 35.9733 147.074 35.74 148.021 35.74ZM151.681 41.46C151.681 40.78 151.547 40.2 151.281 39.72C151.014 39.2267 150.654 38.8533 150.201 38.6C149.747 38.3333 149.261 38.2 148.741 38.2C148.221 38.2 147.741 38.3267 147.301 38.58C146.861 38.8333 146.501 39.2067 146.221 39.7C145.954 40.18 145.821 40.7533 145.821 41.42C145.821 42.0867 145.954 42.6733 146.221 43.18C146.501 43.6733 146.861 44.0533 147.301 44.32C147.754 44.5867 148.234 44.72 148.741 44.72C149.261 44.72 149.747 44.5933 150.201 44.34C150.654 44.0733 151.014 43.7 151.281 43.22C151.547 42.7267 151.681 42.14 151.681 41.46ZM163.375 35.76C164.695 35.76 165.762 36.18 166.575 37.02C167.389 37.8467 167.795 39.0067 167.795 40.5V47H164.995V40.88C164.995 40 164.775 39.3267 164.335 38.86C163.895 38.38 163.295 38.14 162.535 38.14C161.762 38.14 161.149 38.38 160.695 38.86C160.255 39.3267 160.035 40 160.035 40.88V47H157.235V35.92H160.035V37.3C160.409 36.82 160.882 36.4467 161.455 36.18C162.042 35.9 162.682 35.76 163.375 35.76ZM173.718 38.22V43.58C173.718 43.9533 173.805 44.2267 173.978 44.4C174.165 44.56 174.471 44.64 174.898 44.64H176.198V47H174.438C172.078 47 170.898 45.8533 170.898 43.56V38.22H169.578V35.92H170.898V33.18H173.718V35.92H176.198V38.22H173.718Z" fill="#05004E"/>
<g clip-path="url(#clip0_8121_217)">
<rect x="51" y="257" width="516" height="1" fill="#464E5F" fill-opacity="0.04"/>
<rect x="51" y="216" width="516" height="1" fill="#464E5F" fill-opacity="0.04"/>
<rect x="51" y="175" width="516" height="1" fill="#464E5F" fill-opacity="0.04"/>
<rect x="51" y="134" width="516" height="1" fill="#464E5F" fill-opacity="0.04"/>
<rect x="51" y="93" width="516" height="1" fill="#464E5F" fill-opacity="0.04"/>
</g>
<path opacity="0.7" d="M37.2088 257.572C37.2088 260.092 37.8328 262 40.2328 262C42.6208 262 43.2448 260.092 43.2448 257.572C43.2448 255.088 42.6208 253.192 40.2328 253.192C37.8328 253.192 37.2088 255.088 37.2088 257.572ZM42.1648 257.572C42.1648 259.444 41.9368 261.004 40.2328 261.004C38.5168 261.004 38.2888 259.444 38.2888 257.572C38.2888 255.772 38.5168 254.188 40.2328 254.188C41.9368 254.188 42.1648 255.772 42.1648 257.572Z" fill="#7B91B0"/>
<path opacity="0.7" d="M26.6939 221H27.7979V212.324H25.5419V213.32H26.6939V221ZM29.6737 216.572C29.6737 219.092 30.2977 221 32.6977 221C35.0857 221 35.7097 219.092 35.7097 216.572C35.7097 214.088 35.0857 212.192 32.6977 212.192C30.2977 212.192 29.6737 214.088 29.6737 216.572ZM34.6297 216.572C34.6297 218.444 34.4017 220.004 32.6977 220.004C30.9817 220.004 30.7537 218.444 30.7537 216.572C30.7537 214.772 30.9817 213.188 32.6977 213.188C34.4017 213.188 34.6297 214.772 34.6297 216.572ZM37.2088 216.572C37.2088 219.092 37.8328 221 40.2328 221C42.6208 221 43.2448 219.092 43.2448 216.572C43.2448 214.088 42.6208 212.192 40.2328 212.192C37.8328 212.192 37.2088 214.088 37.2088 216.572ZM42.1648 216.572C42.1648 218.444 41.9368 220.004 40.2328 220.004C38.5168 220.004 38.2888 218.444 38.2888 216.572C38.2888 214.772 38.5168 213.188 40.2328 213.188C41.9368 213.188 42.1648 214.772 42.1648 216.572Z" fill="#7B91B0"/>
<path opacity="0.7" d="M22.6393 178.904H28.4113V177.992H24.2833C25.8313 176.732 28.1593 174.896 28.1593 172.736C28.1593 171.128 27.1033 170.168 25.4713 170.168C23.9113 170.168 22.7473 171.128 22.6753 172.976H23.7313C23.7793 171.884 24.3553 171.104 25.4833 171.104C26.6593 171.104 27.0793 171.824 27.0793 172.784C27.0793 174.56 24.9193 176.288 22.6393 178.124V178.904ZM29.6737 174.572C29.6737 177.092 30.2977 179 32.6977 179C35.0857 179 35.7097 177.092 35.7097 174.572C35.7097 172.088 35.0857 170.192 32.6977 170.192C30.2977 170.192 29.6737 172.088 29.6737 174.572ZM34.6297 174.572C34.6297 176.444 34.4017 178.004 32.6977 178.004C30.9817 178.004 30.7537 176.444 30.7537 174.572C30.7537 172.772 30.9817 171.188 32.6977 171.188C34.4017 171.188 34.6297 172.772 34.6297 174.572ZM37.2088 174.572C37.2088 177.092 37.8328 179 40.2328 179C42.6208 179 43.2448 177.092 43.2448 174.572C43.2448 172.088 42.6208 170.192 40.2328 170.192C37.8328 170.192 37.2088 172.088 37.2088 174.572ZM42.1648 174.572C42.1648 176.444 41.9368 178.004 40.2328 178.004C38.5168 178.004 38.2888 176.444 38.2888 174.572C38.2888 172.772 38.5168 171.188 40.2328 171.188C41.9368 171.188 42.1648 172.772 42.1648 174.572Z" fill="#7B91B0"/>
<path opacity="0.7" d="M22.5833 132.508H23.6513C23.7593 131.668 24.3713 131.092 25.3913 131.092C26.4353 131.092 26.9873 131.668 26.9873 132.496C26.9873 133.504 26.2073 133.948 24.7553 133.96H24.4673V134.872H24.7433C26.3033 134.872 27.1553 135.34 27.1553 136.564C27.1553 137.452 26.6033 138.136 25.4393 138.136C24.2873 138.136 23.6153 137.428 23.5073 136.504H22.4513C22.5833 138.184 23.8073 139.06 25.4513 139.06C27.2633 139.06 28.1993 138.004 28.1993 136.66C28.1993 135.412 27.5153 134.668 26.5073 134.428V134.368C27.4193 134.164 28.0433 133.384 28.0433 132.388C28.0433 131.14 27.1193 130.156 25.4273 130.156C23.8193 130.156 22.6913 131.02 22.5833 132.508ZM29.6737 134.572C29.6737 137.092 30.2977 139 32.6977 139C35.0857 139 35.7097 137.092 35.7097 134.572C35.7097 132.088 35.0857 130.192 32.6977 130.192C30.2977 130.192 29.6737 132.088 29.6737 134.572ZM34.6297 134.572C34.6297 136.444 34.4017 138.004 32.6977 138.004C30.9817 138.004 30.7537 136.444 30.7537 134.572C30.7537 132.772 30.9817 131.188 32.6977 131.188C34.4017 131.188 34.6297 132.772 34.6297 134.572ZM37.2088 134.572C37.2088 137.092 37.8328 139 40.2328 139C42.6208 139 43.2448 137.092 43.2448 134.572C43.2448 132.088 42.6208 130.192 40.2328 130.192C37.8328 130.192 37.2088 132.088 37.2088 134.572ZM42.1648 134.572C42.1648 136.444 41.9368 138.004 40.2328 138.004C38.5168 138.004 38.2888 136.444 38.2888 134.572C38.2888 132.772 38.5168 131.188 40.2328 131.188C41.9368 131.188 42.1648 132.772 42.1648 134.572Z" fill="#7B91B0"/>
<path opacity="0.7" d="M26.3028 98H27.3828V96.068H28.5828V95.12H27.3828V89.408H26.0748L21.8628 95.24V96.068H26.3028V98ZM23.1228 95.12L26.3508 90.548V95.12H23.1228ZM29.6737 93.572C29.6737 96.092 30.2977 98 32.6977 98C35.0857 98 35.7097 96.092 35.7097 93.572C35.7097 91.088 35.0857 89.192 32.6977 89.192C30.2977 89.192 29.6737 91.088 29.6737 93.572ZM34.6297 93.572C34.6297 95.444 34.4017 97.004 32.6977 97.004C30.9817 97.004 30.7537 95.444 30.7537 93.572C30.7537 91.772 30.9817 90.188 32.6977 90.188C34.4017 90.188 34.6297 91.772 34.6297 93.572ZM37.2088 93.572C37.2088 96.092 37.8328 98 40.2328 98C42.6208 98 43.2448 96.092 43.2448 93.572C43.2448 91.088 42.6208 89.192 40.2328 89.192C37.8328 89.192 37.2088 91.088 37.2088 93.572ZM42.1648 93.572C42.1648 95.444 41.9368 97.004 40.2328 97.004C38.5168 97.004 38.2888 95.444 38.2888 93.572C38.2888 91.772 38.5168 90.188 40.2328 90.188C41.9368 90.188 42.1648 91.772 42.1648 93.572Z" fill="#7B91B0"/>
<path d="M70.7416 270.1C70.235 270.1 69.8233 270 69.5066 269.8C69.19 269.597 68.9583 269.315 68.8116 268.955C68.665 268.592 68.5916 268.168 68.5916 267.685C68.5916 267.635 68.5916 267.587 68.5916 267.54C68.5916 267.49 68.5916 267.442 68.5916 267.395H69.4316C69.4316 267.425 69.4316 267.458 69.4316 267.495C69.4316 267.528 69.4316 267.563 69.4316 267.6C69.4316 267.94 69.475 268.24 69.5616 268.5C69.6483 268.76 69.7866 268.963 69.9766 269.11C70.17 269.257 70.425 269.33 70.7416 269.33C71.055 269.33 71.3066 269.257 71.4966 269.11C71.6866 268.963 71.825 268.755 71.9116 268.485C71.9983 268.212 72.0416 267.89 72.0416 267.52V262.625H72.8916V267.63C72.8916 267.987 72.8533 268.315 72.7766 268.615C72.7 268.915 72.5766 269.177 72.4066 269.4C72.24 269.62 72.02 269.792 71.7466 269.915C71.4733 270.038 71.1383 270.1 70.7416 270.1ZM76.2118 270.1C75.8085 270.1 75.4551 270.037 75.1518 269.91C74.8518 269.783 74.6185 269.602 74.4518 269.365C74.2851 269.125 74.2018 268.838 74.2018 268.505C74.2018 268.158 74.2918 267.87 74.4718 267.64C74.6518 267.407 74.9051 267.225 75.2318 267.095C75.5585 266.965 75.9385 266.878 76.3718 266.835C77.0251 266.768 77.4901 266.703 77.7668 266.64C78.0435 266.573 78.1818 266.467 78.1818 266.32C78.1818 266.317 78.1818 266.315 78.1818 266.315C78.1818 266.312 78.1818 266.308 78.1818 266.305C78.1818 265.998 78.0568 265.77 77.8068 265.62C77.5568 265.467 77.1951 265.39 76.7218 265.39C76.2285 265.39 75.8451 265.477 75.5718 265.65C75.2985 265.82 75.1618 266.097 75.1618 266.48H74.3218C74.3218 266.083 74.4235 265.747 74.6268 265.47C74.8301 265.19 75.1118 264.977 75.4718 264.83C75.8351 264.683 76.2535 264.61 76.7268 264.61C77.1601 264.61 77.5501 264.677 77.8968 264.81C78.2468 264.94 78.5235 265.135 78.7268 265.395C78.9335 265.652 79.0368 265.97 79.0368 266.35C79.0368 266.42 79.0368 266.49 79.0368 266.56C79.0368 266.627 79.0368 266.695 79.0368 266.765V269C79.0368 269.117 79.0418 269.23 79.0518 269.34C79.0618 269.45 79.0785 269.547 79.1018 269.63C79.1318 269.73 79.1651 269.812 79.2018 269.875C79.2385 269.935 79.2685 269.977 79.2918 270H78.4368C78.4201 269.983 78.3951 269.945 78.3618 269.885C78.3285 269.822 78.2968 269.748 78.2668 269.665C78.2435 269.598 78.2251 269.515 78.2118 269.415C78.1985 269.312 78.1918 269.205 78.1918 269.095L78.3318 269.19C78.2285 269.37 78.0768 269.528 77.8768 269.665C77.6801 269.802 77.4418 269.908 77.1618 269.985C76.8818 270.062 76.5651 270.1 76.2118 270.1ZM76.3468 269.335C76.6901 269.335 77.0001 269.283 77.2768 269.18C77.5535 269.073 77.7735 268.917 77.9368 268.71C78.1001 268.503 78.1818 268.247 78.1818 267.94V266.885L78.3718 267.205C78.1585 267.288 77.8918 267.357 77.5718 267.41C77.2551 267.46 76.9235 267.502 76.5768 267.535C76.0735 267.582 75.6935 267.67 75.4368 267.8C75.1835 267.93 75.0568 268.148 75.0568 268.455C75.0568 268.745 75.1618 268.965 75.3718 269.115C75.5818 269.262 75.9068 269.335 76.3468 269.335ZM84.2505 270V267.455C84.2505 267.302 84.2505 267.177 84.2505 267.08C84.2505 266.98 84.2505 266.885 84.2505 266.795C84.2505 266.518 84.2039 266.277 84.1105 266.07C84.0172 265.863 83.8705 265.703 83.6705 265.59C83.4705 265.477 83.2089 265.42 82.8855 265.42C82.6022 265.42 82.3389 265.493 82.0955 265.64C81.8555 265.783 81.6622 265.978 81.5155 266.225C81.3722 266.468 81.3005 266.742 81.3005 267.045L80.8155 266.86C80.8155 266.443 80.9172 266.065 81.1205 265.725C81.3272 265.385 81.6005 265.115 81.9405 264.915C82.2839 264.712 82.6572 264.61 83.0605 264.61C83.4705 264.61 83.8289 264.688 84.1355 264.845C84.4422 265.002 84.6789 265.227 84.8455 265.52C85.0155 265.81 85.1005 266.16 85.1005 266.57C85.1005 266.717 85.1005 266.877 85.1005 267.05C85.1005 267.223 85.1005 267.385 85.1005 267.535V270H84.2505ZM80.4505 270V264.69H81.3005V270H80.4505Z" fill="#464E5F"/>
<path d="M115.415 263.375L115.8 262.89V266.26L115.525 265.99H118.51V266.74H115.525L115.8 266.455V270H114.95V262.625H118.955V263.375H115.415ZM120.012 267.685V266.925H124.117L123.967 267.175C123.967 267.155 123.967 267.137 123.967 267.12C123.967 267.1 123.967 267.082 123.967 267.065C123.967 266.758 123.902 266.478 123.772 266.225C123.645 265.968 123.455 265.763 123.202 265.61C122.948 265.457 122.635 265.38 122.262 265.38C121.885 265.38 121.553 265.46 121.267 265.62C120.98 265.78 120.757 266.007 120.597 266.3C120.437 266.59 120.357 266.937 120.357 267.34C120.357 267.75 120.433 268.103 120.587 268.4C120.743 268.697 120.965 268.925 121.252 269.085C121.538 269.245 121.878 269.325 122.272 269.325C122.552 269.325 122.795 269.297 123.002 269.24C123.208 269.18 123.378 269.102 123.512 269.005C123.648 268.905 123.752 268.797 123.822 268.68C123.892 268.563 123.933 268.447 123.947 268.33H124.797C124.78 268.543 124.713 268.755 124.597 268.965C124.48 269.175 124.315 269.367 124.102 269.54C123.888 269.71 123.627 269.847 123.317 269.95C123.007 270.053 122.65 270.105 122.247 270.105C121.713 270.105 121.243 269.988 120.837 269.755C120.43 269.522 120.11 269.198 119.877 268.785C119.647 268.372 119.532 267.897 119.532 267.36C119.532 266.817 119.648 266.34 119.882 265.93C120.115 265.517 120.437 265.193 120.847 264.96C121.257 264.727 121.725 264.61 122.252 264.61C122.788 264.61 123.253 264.727 123.647 264.96C124.04 265.193 124.343 265.513 124.557 265.92C124.77 266.323 124.877 266.783 124.877 267.3C124.877 267.353 124.875 267.423 124.872 267.51C124.868 267.597 124.863 267.655 124.857 267.685H120.012ZM128.797 270.1C128.387 270.1 128.003 270 127.647 269.8C127.29 269.597 127 269.318 126.777 268.965C126.557 268.612 126.447 268.208 126.447 267.755C126.447 267.745 126.447 267.737 126.447 267.73C126.447 267.723 126.447 267.715 126.447 267.705L127.057 267.69C127.057 267.697 127.057 267.705 127.057 267.715C127.057 267.722 127.057 267.728 127.057 267.735C127.057 268.022 127.132 268.283 127.282 268.52C127.435 268.757 127.635 268.945 127.882 269.085C128.128 269.225 128.393 269.295 128.677 269.295C129.147 269.295 129.537 269.135 129.847 268.815C130.16 268.492 130.317 268 130.317 267.34C130.317 266.677 130.162 266.187 129.852 265.87C129.542 265.55 129.15 265.39 128.677 265.39C128.393 265.39 128.128 265.46 127.882 265.6C127.635 265.737 127.435 265.922 127.282 266.155C127.132 266.388 127.057 266.65 127.057 266.94L126.447 266.92C126.447 266.463 126.557 266.062 126.777 265.715C127 265.368 127.29 265.098 127.647 264.905C128.003 264.708 128.387 264.61 128.797 264.61C129.227 264.61 129.623 264.717 129.987 264.93C130.35 265.14 130.642 265.448 130.862 265.855C131.082 266.262 131.192 266.757 131.192 267.34C131.192 267.933 131.083 268.437 130.867 268.85C130.65 269.26 130.36 269.572 129.997 269.785C129.633 269.995 129.233 270.1 128.797 270.1ZM126.202 270V262.185H127.057V270H126.202Z" fill="#464E5F"/>
<path d="M154.249 262.625H155.719V270H154.909V263.305L154.934 263.315L153.054 270H151.834L149.944 263.31L149.969 263.3V270H149.159V262.625H150.629L152.439 269.315H152.429L154.249 262.625ZM159.134 270.1C158.73 270.1 158.377 270.037 158.074 269.91C157.774 269.783 157.54 269.602 157.374 269.365C157.207 269.125 157.124 268.838 157.124 268.505C157.124 268.158 157.214 267.87 157.394 267.64C157.574 267.407 157.827 267.225 158.154 267.095C158.48 266.965 158.86 266.878 159.294 266.835C159.947 266.768 160.412 266.703 160.689 266.64C160.965 266.573 161.104 266.467 161.104 266.32C161.104 266.317 161.104 266.315 161.104 266.315C161.104 266.312 161.104 266.308 161.104 266.305C161.104 265.998 160.979 265.77 160.729 265.62C160.479 265.467 160.117 265.39 159.644 265.39C159.15 265.39 158.767 265.477 158.494 265.65C158.22 265.82 158.084 266.097 158.084 266.48H157.244C157.244 266.083 157.345 265.747 157.549 265.47C157.752 265.19 158.034 264.977 158.394 264.83C158.757 264.683 159.175 264.61 159.649 264.61C160.082 264.61 160.472 264.677 160.819 264.81C161.169 264.94 161.445 265.135 161.649 265.395C161.855 265.652 161.959 265.97 161.959 266.35C161.959 266.42 161.959 266.49 161.959 266.56C161.959 266.627 161.959 266.695 161.959 266.765V269C161.959 269.117 161.964 269.23 161.974 269.34C161.984 269.45 162 269.547 162.024 269.63C162.054 269.73 162.087 269.812 162.124 269.875C162.16 269.935 162.19 269.977 162.214 270H161.359C161.342 269.983 161.317 269.945 161.284 269.885C161.25 269.822 161.219 269.748 161.189 269.665C161.165 269.598 161.147 269.515 161.134 269.415C161.12 269.312 161.114 269.205 161.114 269.095L161.254 269.19C161.15 269.37 160.999 269.528 160.799 269.665C160.602 269.802 160.364 269.908 160.084 269.985C159.804 270.062 159.487 270.1 159.134 270.1ZM159.269 269.335C159.612 269.335 159.922 269.283 160.199 269.18C160.475 269.073 160.695 268.917 160.859 268.71C161.022 268.503 161.104 268.247 161.104 267.94V266.885L161.294 267.205C161.08 267.288 160.814 267.357 160.494 267.41C160.177 267.46 159.845 267.502 159.499 267.535C158.995 267.582 158.615 267.67 158.359 267.8C158.105 267.93 157.979 268.148 157.979 268.455C157.979 268.745 158.084 268.965 158.294 269.115C158.504 269.262 158.829 269.335 159.269 269.335ZM163.372 270V264.69H164.222V266.32L163.942 266.22C163.962 266.023 164.012 265.83 164.092 265.64C164.172 265.447 164.282 265.273 164.422 265.12C164.566 264.963 164.744 264.84 164.957 264.75C165.171 264.657 165.421 264.61 165.707 264.61C165.921 264.61 166.094 264.628 166.227 264.665C166.364 264.698 166.449 264.725 166.482 264.745L166.262 265.58C166.229 265.557 166.161 265.527 166.057 265.49C165.957 265.453 165.814 265.435 165.627 265.435C165.351 265.435 165.121 265.485 164.937 265.585C164.757 265.685 164.614 265.818 164.507 265.985C164.404 266.148 164.331 266.327 164.287 266.52C164.244 266.713 164.222 266.905 164.222 267.095V270H163.372Z" fill="#464E5F"/>
<path d="M195.643 270L197.673 262.605H199.003L201.018 270H200.138L198.333 263.16H198.343L196.523 270H195.643ZM196.693 268.045V267.295H199.983V268.045H196.693ZM202.17 272.185V264.69H203.02V272.185H202.17ZM204.765 270.1C204.355 270.1 203.972 270 203.615 269.8C203.259 269.597 202.969 269.318 202.745 268.965C202.525 268.612 202.415 268.208 202.415 267.755C202.415 267.745 202.415 267.737 202.415 267.73C202.415 267.723 202.415 267.715 202.415 267.705L203.025 267.69C203.025 267.697 203.025 267.705 203.025 267.715C203.025 267.722 203.025 267.728 203.025 267.735C203.025 268.022 203.1 268.283 203.25 268.52C203.404 268.757 203.604 268.945 203.85 269.085C204.097 269.225 204.362 269.295 204.645 269.295C205.115 269.295 205.505 269.135 205.815 268.815C206.129 268.492 206.285 268 206.285 267.34C206.285 266.677 206.13 266.187 205.82 265.87C205.51 265.55 205.119 265.39 204.645 265.39C204.362 265.39 204.097 265.46 203.85 265.6C203.604 265.737 203.404 265.922 203.25 266.155C203.1 266.388 203.025 266.65 203.025 266.94L202.415 266.92C202.415 266.463 202.525 266.062 202.745 265.715C202.969 265.368 203.259 265.098 203.615 264.905C203.972 264.708 204.355 264.61 204.765 264.61C205.195 264.61 205.592 264.717 205.955 264.93C206.319 265.14 206.61 265.448 206.83 265.855C207.05 266.262 207.16 266.757 207.16 267.34C207.16 267.933 207.052 268.437 206.835 268.85C206.619 269.26 206.329 269.572 205.965 269.785C205.602 269.995 205.202 270.1 204.765 270.1ZM208.489 270V264.69H209.339V266.32L209.059 266.22C209.079 266.023 209.129 265.83 209.209 265.64C209.289 265.447 209.399 265.273 209.539 265.12C209.682 264.963 209.86 264.84 210.074 264.75C210.287 264.657 210.537 264.61 210.824 264.61C211.037 264.61 211.21 264.628 211.344 264.665C211.48 264.698 211.565 264.725 211.599 264.745L211.379 265.58C211.345 265.557 211.277 265.527 211.174 265.49C211.074 265.453 210.93 265.435 210.744 265.435C210.467 265.435 210.237 265.485 210.054 265.585C209.874 265.685 209.73 265.818 209.624 265.985C209.52 266.148 209.447 266.327 209.404 266.52C209.36 266.713 209.339 266.905 209.339 267.095V270H208.489Z" fill="#464E5F"/>
<path d="M246.256 262.625H247.726V270H246.916V263.305L246.941 263.315L245.061 270H243.841L241.951 263.31L241.976 263.3V270H241.166V262.625H242.636L244.446 269.315H244.436L246.256 262.625ZM251.141 270.1C250.737 270.1 250.384 270.037 250.081 269.91C249.781 269.783 249.547 269.602 249.381 269.365C249.214 269.125 249.131 268.838 249.131 268.505C249.131 268.158 249.221 267.87 249.401 267.64C249.581 267.407 249.834 267.225 250.161 267.095C250.487 266.965 250.867 266.878 251.301 266.835C251.954 266.768 252.419 266.703 252.696 266.64C252.972 266.573 253.111 266.467 253.111 266.32C253.111 266.317 253.111 266.315 253.111 266.315C253.111 266.312 253.111 266.308 253.111 266.305C253.111 265.998 252.986 265.77 252.736 265.62C252.486 265.467 252.124 265.39 251.651 265.39C251.157 265.39 250.774 265.477 250.501 265.65C250.227 265.82 250.091 266.097 250.091 266.48H249.251C249.251 266.083 249.352 265.747 249.556 265.47C249.759 265.19 250.041 264.977 250.401 264.83C250.764 264.683 251.182 264.61 251.656 264.61C252.089 264.61 252.479 264.677 252.826 264.81C253.176 264.94 253.452 265.135 253.656 265.395C253.862 265.652 253.966 265.97 253.966 266.35C253.966 266.42 253.966 266.49 253.966 266.56C253.966 266.627 253.966 266.695 253.966 266.765V269C253.966 269.117 253.971 269.23 253.981 269.34C253.991 269.45 254.007 269.547 254.031 269.63C254.061 269.73 254.094 269.812 254.131 269.875C254.167 269.935 254.197 269.977 254.221 270H253.366C253.349 269.983 253.324 269.945 253.291 269.885C253.257 269.822 253.226 269.748 253.196 269.665C253.172 269.598 253.154 269.515 253.141 269.415C253.127 269.312 253.121 269.205 253.121 269.095L253.261 269.19C253.157 269.37 253.006 269.528 252.806 269.665C252.609 269.802 252.371 269.908 252.091 269.985C251.811 270.062 251.494 270.1 251.141 270.1ZM251.276 269.335C251.619 269.335 251.929 269.283 252.206 269.18C252.482 269.073 252.702 268.917 252.866 268.71C253.029 268.503 253.111 268.247 253.111 267.94V266.885L253.301 267.205C253.087 267.288 252.821 267.357 252.501 267.41C252.184 267.46 251.852 267.502 251.506 267.535C251.002 267.582 250.622 267.67 250.366 267.8C250.112 267.93 249.986 268.148 249.986 268.455C249.986 268.745 250.091 268.965 250.301 269.115C250.511 269.262 250.836 269.335 251.276 269.335ZM255.344 272.24C255.211 272.24 255.089 272.232 254.979 272.215C254.869 272.202 254.801 272.188 254.774 272.175V271.435C254.817 271.455 254.889 271.472 254.989 271.485C255.089 271.498 255.189 271.505 255.289 271.505C255.502 271.505 255.682 271.46 255.829 271.37C255.976 271.283 256.099 271.163 256.199 271.01C256.299 270.86 256.381 270.69 256.444 270.5L256.604 270.03L254.774 264.69H255.664L257.134 269.265H257.014L258.454 264.69H259.329L257.384 270.455C257.274 270.778 257.141 271.075 256.984 271.345C256.831 271.615 256.624 271.832 256.364 271.995C256.107 272.158 255.767 272.24 255.344 272.24Z" fill="#464E5F"/>
<path d="M288.79 270.1C288.284 270.1 287.872 270 287.555 269.8C287.239 269.597 287.007 269.315 286.86 268.955C286.714 268.592 286.64 268.168 286.64 267.685C286.64 267.635 286.64 267.587 286.64 267.54C286.64 267.49 286.64 267.442 286.64 267.395H287.48C287.48 267.425 287.48 267.458 287.48 267.495C287.48 267.528 287.48 267.563 287.48 267.6C287.48 267.94 287.524 268.24 287.61 268.5C287.697 268.76 287.835 268.963 288.025 269.11C288.219 269.257 288.474 269.33 288.79 269.33C289.104 269.33 289.355 269.257 289.545 269.11C289.735 268.963 289.874 268.755 289.96 268.485C290.047 268.212 290.09 267.89 290.09 267.52V262.625H290.94V267.63C290.94 267.987 290.902 268.315 290.825 268.615C290.749 268.915 290.625 269.177 290.455 269.4C290.289 269.62 290.069 269.792 289.795 269.915C289.522 270.038 289.187 270.1 288.79 270.1ZM294.366 270.095C293.986 270.095 293.669 270.03 293.416 269.9C293.162 269.767 292.961 269.595 292.811 269.385C292.664 269.175 292.559 268.948 292.496 268.705C292.436 268.458 292.406 268.222 292.406 267.995C292.406 267.868 292.406 267.738 292.406 267.605C292.406 267.468 292.406 267.332 292.406 267.195V264.69H293.261V267.085C293.261 267.208 293.261 267.33 293.261 267.45C293.261 267.57 293.261 267.683 293.261 267.79C293.261 268.06 293.297 268.31 293.371 268.54C293.447 268.77 293.579 268.957 293.766 269.1C293.952 269.24 294.209 269.31 294.536 269.31C294.842 269.31 295.111 269.218 295.341 269.035C295.571 268.848 295.751 268.617 295.881 268.34C296.011 268.06 296.076 267.782 296.076 267.505L296.571 267.71C296.571 268.003 296.519 268.292 296.416 268.575C296.312 268.855 296.164 269.11 295.971 269.34C295.781 269.57 295.549 269.753 295.276 269.89C295.006 270.027 294.702 270.095 294.366 270.095ZM296.076 270V264.69H296.926V270H296.076ZM302.202 270V267.455C302.202 267.302 302.202 267.177 302.202 267.08C302.202 266.98 302.202 266.885 302.202 266.795C302.202 266.518 302.155 266.277 302.062 266.07C301.968 265.863 301.822 265.703 301.622 265.59C301.422 265.477 301.16 265.42 300.837 265.42C300.553 265.42 300.29 265.493 300.047 265.64C299.807 265.783 299.613 265.978 299.467 266.225C299.323 266.468 299.252 266.742 299.252 267.045L298.767 266.86C298.767 266.443 298.868 266.065 299.072 265.725C299.278 265.385 299.552 265.115 299.892 264.915C300.235 264.712 300.608 264.61 301.012 264.61C301.422 264.61 301.78 264.688 302.087 264.845C302.393 265.002 302.63 265.227 302.797 265.52C302.967 265.81 303.052 266.16 303.052 266.57C303.052 266.717 303.052 266.877 303.052 267.05C303.052 267.223 303.052 267.385 303.052 267.535V270H302.202ZM298.402 270V264.69H299.252V270H298.402Z" fill="#464E5F"/>
<path d="M334.79 270.1C334.284 270.1 333.872 270 333.555 269.8C333.239 269.597 333.007 269.315 332.86 268.955C332.714 268.592 332.64 268.168 332.64 267.685C332.64 267.635 332.64 267.587 332.64 267.54C332.64 267.49 332.64 267.442 332.64 267.395H333.48C333.48 267.425 333.48 267.458 333.48 267.495C333.48 267.528 333.48 267.563 333.48 267.6C333.48 267.94 333.524 268.24 333.61 268.5C333.697 268.76 333.835 268.963 334.025 269.11C334.219 269.257 334.474 269.33 334.79 269.33C335.104 269.33 335.355 269.257 335.545 269.11C335.735 268.963 335.874 268.755 335.96 268.485C336.047 268.212 336.09 267.89 336.09 267.52V262.625H336.94V267.63C336.94 267.987 336.902 268.315 336.825 268.615C336.749 268.915 336.625 269.177 336.455 269.4C336.289 269.62 336.069 269.792 335.795 269.915C335.522 270.038 335.187 270.1 334.79 270.1ZM340.366 270.095C339.986 270.095 339.669 270.03 339.416 269.9C339.162 269.767 338.961 269.595 338.811 269.385C338.664 269.175 338.559 268.948 338.496 268.705C338.436 268.458 338.406 268.222 338.406 267.995C338.406 267.868 338.406 267.738 338.406 267.605C338.406 267.468 338.406 267.332 338.406 267.195V264.69H339.261V267.085C339.261 267.208 339.261 267.33 339.261 267.45C339.261 267.57 339.261 267.683 339.261 267.79C339.261 268.06 339.297 268.31 339.371 268.54C339.447 268.77 339.579 268.957 339.766 269.1C339.952 269.24 340.209 269.31 340.536 269.31C340.842 269.31 341.111 269.218 341.341 269.035C341.571 268.848 341.751 268.617 341.881 268.34C342.011 268.06 342.076 267.782 342.076 267.505L342.571 267.71C342.571 268.003 342.519 268.292 342.416 268.575C342.312 268.855 342.164 269.11 341.971 269.34C341.781 269.57 341.549 269.753 341.276 269.89C341.006 270.027 340.702 270.095 340.366 270.095ZM342.076 270V264.69H342.926V270H342.076ZM348.202 270V267.455C348.202 267.302 348.202 267.177 348.202 267.08C348.202 266.98 348.202 266.885 348.202 266.795C348.202 266.518 348.155 266.277 348.062 266.07C347.968 265.863 347.822 265.703 347.622 265.59C347.422 265.477 347.16 265.42 346.837 265.42C346.553 265.42 346.29 265.493 346.047 265.64C345.807 265.783 345.613 265.978 345.467 266.225C345.323 266.468 345.252 266.742 345.252 267.045L344.767 266.86C344.767 266.443 344.868 266.065 345.072 265.725C345.278 265.385 345.552 265.115 345.892 264.915C346.235 264.712 346.608 264.61 347.012 264.61C347.422 264.61 347.78 264.688 348.087 264.845C348.393 265.002 348.63 265.227 348.797 265.52C348.967 265.81 349.052 266.16 349.052 266.57C349.052 266.717 349.052 266.877 349.052 267.05C349.052 267.223 349.052 267.385 349.052 267.535V270H348.202ZM344.402 270V264.69H345.252V270H344.402Z" fill="#464E5F"/>
<path d="M382.622 270.1C382.115 270.1 381.703 270 381.387 269.8C381.07 269.597 380.838 269.315 380.692 268.955C380.545 268.592 380.472 268.168 380.472 267.685C380.472 267.635 380.472 267.587 380.472 267.54C380.472 267.49 380.472 267.442 380.472 267.395H381.312C381.312 267.425 381.312 267.458 381.312 267.495C381.312 267.528 381.312 267.563 381.312 267.6C381.312 267.94 381.355 268.24 381.442 268.5C381.528 268.76 381.667 268.963 381.857 269.11C382.05 269.257 382.305 269.33 382.622 269.33C382.935 269.33 383.187 269.257 383.377 269.11C383.567 268.963 383.705 268.755 383.792 268.485C383.878 268.212 383.922 267.89 383.922 267.52V262.625H384.772V267.63C384.772 267.987 384.733 268.315 384.657 268.615C384.58 268.915 384.457 269.177 384.287 269.4C384.12 269.62 383.9 269.792 383.627 269.915C383.353 270.038 383.018 270.1 382.622 270.1ZM388.197 270.095C387.817 270.095 387.5 270.03 387.247 269.9C386.993 269.767 386.792 269.595 386.642 269.385C386.495 269.175 386.39 268.948 386.327 268.705C386.267 268.458 386.237 268.222 386.237 267.995C386.237 267.868 386.237 267.738 386.237 267.605C386.237 267.468 386.237 267.332 386.237 267.195V264.69H387.092V267.085C387.092 267.208 387.092 267.33 387.092 267.45C387.092 267.57 387.092 267.683 387.092 267.79C387.092 268.06 387.128 268.31 387.202 268.54C387.278 268.77 387.41 268.957 387.597 269.1C387.783 269.24 388.04 269.31 388.367 269.31C388.673 269.31 388.942 269.218 389.172 269.035C389.402 268.848 389.582 268.617 389.712 268.34C389.842 268.06 389.907 267.782 389.907 267.505L390.402 267.71C390.402 268.003 390.35 268.292 390.247 268.575C390.143 268.855 389.995 269.11 389.802 269.34C389.612 269.57 389.38 269.753 389.107 269.89C388.837 270.027 388.533 270.095 388.197 270.095ZM389.907 270V264.69H390.757V270H389.907ZM393.148 262.185V270H392.308V262.185H393.148Z" fill="#464E5F"/>
<path d="M414.465 270.1C413.955 270.1 413.519 270.02 413.155 269.86C412.795 269.697 412.519 269.452 412.325 269.125C412.132 268.798 412.035 268.392 412.035 267.905C412.035 267.838 412.035 267.782 412.035 267.735C412.035 267.688 412.035 267.632 412.035 267.565H412.89C412.89 267.628 412.89 267.682 412.89 267.725C412.89 267.768 412.89 267.823 412.89 267.89C412.89 268.4 413.024 268.768 413.29 268.995C413.557 269.218 413.945 269.33 414.455 269.33C414.982 269.33 415.38 269.24 415.65 269.06C415.92 268.88 416.055 268.588 416.055 268.185C416.055 267.902 415.977 267.667 415.82 267.48C415.667 267.29 415.454 267.13 415.18 267C414.907 266.867 414.589 266.745 414.225 266.635C413.815 266.508 413.449 266.348 413.125 266.155C412.805 265.962 412.552 265.723 412.365 265.44C412.182 265.153 412.09 264.805 412.09 264.395C412.09 263.995 412.187 263.657 412.38 263.38C412.577 263.103 412.85 262.893 413.2 262.75C413.55 262.607 413.957 262.535 414.42 262.535C414.91 262.535 415.335 262.612 415.695 262.765C416.059 262.915 416.339 263.145 416.535 263.455C416.735 263.762 416.835 264.148 416.835 264.615C416.835 264.688 416.835 264.752 416.835 264.805C416.835 264.855 416.835 264.917 416.835 264.99H415.98C415.98 264.927 415.98 264.87 415.98 264.82C415.98 264.77 415.98 264.713 415.98 264.65C415.98 264.163 415.849 263.818 415.585 263.615C415.322 263.408 414.939 263.305 414.435 263.305C413.952 263.305 413.579 263.39 413.315 263.56C413.052 263.73 412.92 264.008 412.92 264.395C412.92 264.685 413 264.925 413.16 265.115C413.324 265.302 413.545 265.462 413.825 265.595C414.105 265.725 414.425 265.85 414.785 265.97C415.222 266.113 415.597 266.277 415.91 266.46C416.227 266.64 416.469 266.865 416.635 267.135C416.805 267.405 416.89 267.745 416.89 268.155C416.89 268.565 416.792 268.915 416.595 269.205C416.402 269.495 416.124 269.717 415.76 269.87C415.4 270.023 414.969 270.1 414.465 270.1ZM418.439 267.685V266.925H422.544L422.394 267.175C422.394 267.155 422.394 267.137 422.394 267.12C422.394 267.1 422.394 267.082 422.394 267.065C422.394 266.758 422.329 266.478 422.199 266.225C422.073 265.968 421.883 265.763 421.629 265.61C421.376 265.457 421.063 265.38 420.689 265.38C420.313 265.38 419.981 265.46 419.694 265.62C419.408 265.78 419.184 266.007 419.024 266.3C418.864 266.59 418.784 266.937 418.784 267.34C418.784 267.75 418.861 268.103 419.014 268.4C419.171 268.697 419.393 268.925 419.679 269.085C419.966 269.245 420.306 269.325 420.699 269.325C420.979 269.325 421.223 269.297 421.429 269.24C421.636 269.18 421.806 269.102 421.939 269.005C422.076 268.905 422.179 268.797 422.249 268.68C422.319 268.563 422.361 268.447 422.374 268.33H423.224C423.208 268.543 423.141 268.755 423.024 268.965C422.908 269.175 422.743 269.367 422.529 269.54C422.316 269.71 422.054 269.847 421.744 269.95C421.434 270.053 421.078 270.105 420.674 270.105C420.141 270.105 419.671 269.988 419.264 269.755C418.858 269.522 418.538 269.198 418.304 268.785C418.074 268.372 417.959 267.897 417.959 267.36C417.959 266.817 418.076 266.34 418.309 265.93C418.543 265.517 418.864 265.193 419.274 264.96C419.684 264.727 420.153 264.61 420.679 264.61C421.216 264.61 421.681 264.727 422.074 264.96C422.468 265.193 422.771 265.513 422.984 265.92C423.198 266.323 423.304 266.783 423.304 267.3C423.304 267.353 423.303 267.423 423.299 267.51C423.296 267.597 423.291 267.655 423.284 267.685H418.439ZM424.629 272.185V264.69H425.479V272.185H424.629ZM427.224 270.1C426.814 270.1 426.431 270 426.074 269.8C425.718 269.597 425.428 269.318 425.204 268.965C424.984 268.612 424.874 268.208 424.874 267.755C424.874 267.745 424.874 267.737 424.874 267.73C424.874 267.723 424.874 267.715 424.874 267.705L425.484 267.69C425.484 267.697 425.484 267.705 425.484 267.715C425.484 267.722 425.484 267.728 425.484 267.735C425.484 268.022 425.559 268.283 425.709 268.52C425.863 268.757 426.063 268.945 426.309 269.085C426.556 269.225 426.821 269.295 427.104 269.295C427.574 269.295 427.964 269.135 428.274 268.815C428.588 268.492 428.744 268 428.744 267.34C428.744 266.677 428.589 266.187 428.279 265.87C427.969 265.55 427.578 265.39 427.104 265.39C426.821 265.39 426.556 265.46 426.309 265.6C426.063 265.737 425.863 265.922 425.709 266.155C425.559 266.388 425.484 266.65 425.484 266.94L424.874 266.92C424.874 266.463 424.984 266.062 425.204 265.715C425.428 265.368 425.718 265.098 426.074 264.905C426.431 264.708 426.814 264.61 427.224 264.61C427.654 264.61 428.051 264.717 428.414 264.93C428.778 265.14 429.069 265.448 429.289 265.855C429.509 266.262 429.619 266.757 429.619 267.34C429.619 267.933 429.511 268.437 429.294 268.85C429.078 269.26 428.788 269.572 428.424 269.785C428.061 269.995 427.661 270.1 427.224 270.1ZM432.94 270.08C432.777 270.08 432.617 270.062 432.46 270.025C432.304 269.988 432.162 269.923 432.035 269.83C431.912 269.733 431.814 269.598 431.74 269.425C431.667 269.248 431.63 269.022 431.63 268.745C431.63 268.675 431.63 268.603 431.63 268.53C431.63 268.453 431.63 268.373 431.63 268.29V265.44H430.335V264.69H431.165C431.279 264.69 431.367 264.687 431.43 264.68C431.494 264.67 431.539 264.648 431.565 264.615C431.595 264.578 431.614 264.523 431.62 264.45C431.627 264.373 431.63 264.268 431.63 264.135V262.93H432.485V264.69H434.145V265.44H432.485V268.015C432.485 268.088 432.485 268.16 432.485 268.23C432.485 268.3 432.485 268.365 432.485 268.425C432.485 268.708 432.519 268.93 432.585 269.09C432.655 269.25 432.81 269.33 433.05 269.33C433.147 269.33 433.239 269.322 433.325 269.305C433.412 269.288 433.477 269.272 433.52 269.255V269.995C433.464 270.015 433.384 270.033 433.28 270.05C433.18 270.07 433.067 270.08 432.94 270.08Z" fill="#464E5F"/>
<path d="M462.705 270.1C462.275 270.1 461.88 270.015 461.52 269.845C461.163 269.675 460.852 269.428 460.585 269.105C460.322 268.778 460.117 268.38 459.97 267.91C459.827 267.44 459.755 266.905 459.755 266.305C459.755 265.705 459.827 265.172 459.97 264.705C460.117 264.235 460.322 263.84 460.585 263.52C460.852 263.197 461.165 262.952 461.525 262.785C461.885 262.618 462.278 262.535 462.705 262.535C463.135 262.535 463.53 262.618 463.89 262.785C464.25 262.952 464.562 263.197 464.825 263.52C465.092 263.84 465.297 264.235 465.44 264.705C465.587 265.172 465.66 265.705 465.66 266.305C465.66 266.905 465.587 267.44 465.44 267.91C465.297 268.38 465.092 268.778 464.825 269.105C464.562 269.428 464.25 269.675 463.89 269.845C463.53 270.015 463.135 270.1 462.705 270.1ZM462.705 269.33C463.115 269.33 463.477 269.218 463.79 268.995C464.103 268.772 464.348 268.437 464.525 267.99C464.702 267.54 464.79 266.978 464.79 266.305C464.79 265.628 464.7 265.068 464.52 264.625C464.343 264.182 464.098 263.852 463.785 263.635C463.472 263.418 463.112 263.31 462.705 263.31C462.302 263.31 461.942 263.418 461.625 263.635C461.312 263.852 461.065 264.182 460.885 264.625C460.708 265.068 460.62 265.628 460.62 266.305C460.62 266.982 460.708 267.545 460.885 267.995C461.065 268.442 461.312 268.777 461.625 269C461.942 269.22 462.302 269.33 462.705 269.33ZM469.449 270.1C468.942 270.1 468.482 269.99 468.069 269.77C467.656 269.547 467.327 269.228 467.084 268.815C466.844 268.402 466.724 267.91 466.724 267.34C466.724 266.77 466.844 266.282 467.084 265.875C467.327 265.465 467.656 265.152 468.069 264.935C468.482 264.718 468.942 264.61 469.449 264.61C469.836 264.61 470.181 264.67 470.484 264.79C470.787 264.907 471.044 265.063 471.254 265.26C471.464 265.457 471.624 265.673 471.734 265.91C471.847 266.143 471.904 266.377 471.904 266.61C471.904 266.613 471.904 266.618 471.904 266.625C471.904 266.632 471.904 266.638 471.904 266.645H471.059C471.059 266.628 471.057 266.61 471.054 266.59C471.051 266.567 471.047 266.543 471.044 266.52C471.017 266.297 470.932 266.102 470.789 265.935C470.646 265.765 470.459 265.632 470.229 265.535C469.999 265.438 469.737 265.39 469.444 265.39C469.114 265.39 468.807 265.462 468.524 265.605C468.244 265.745 468.017 265.96 467.844 266.25C467.674 266.537 467.589 266.9 467.589 267.34C467.589 267.777 467.674 268.142 467.844 268.435C468.014 268.728 468.239 268.95 468.519 269.1C468.802 269.247 469.111 269.32 469.444 269.32C469.804 269.32 470.101 269.263 470.334 269.15C470.567 269.037 470.742 268.887 470.859 268.7C470.979 268.51 471.046 268.307 471.059 268.09H471.904C471.904 268.33 471.851 268.57 471.744 268.81C471.637 269.047 471.481 269.263 471.274 269.46C471.067 269.653 470.811 269.808 470.504 269.925C470.201 270.042 469.849 270.1 469.449 270.1ZM475.22 270.08C475.057 270.08 474.897 270.062 474.74 270.025C474.584 269.988 474.442 269.923 474.315 269.83C474.192 269.733 474.094 269.598 474.02 269.425C473.947 269.248 473.91 269.022 473.91 268.745C473.91 268.675 473.91 268.603 473.91 268.53C473.91 268.453 473.91 268.373 473.91 268.29V265.44H472.615V264.69H473.445C473.559 264.69 473.647 264.687 473.71 264.68C473.774 264.67 473.819 264.648 473.845 264.615C473.875 264.578 473.894 264.523 473.9 264.45C473.907 264.373 473.91 264.268 473.91 264.135V262.93H474.765V264.69H476.425V265.44H474.765V268.015C474.765 268.088 474.765 268.16 474.765 268.23C474.765 268.3 474.765 268.365 474.765 268.425C474.765 268.708 474.799 268.93 474.865 269.09C474.935 269.25 475.09 269.33 475.33 269.33C475.427 269.33 475.519 269.322 475.605 269.305C475.692 269.288 475.757 269.272 475.8 269.255V269.995C475.744 270.015 475.664 270.033 475.56 270.05C475.46 270.07 475.347 270.08 475.22 270.08Z" fill="#464E5F"/>
<path d="M506.846 270H506.016V262.625H507.411L510.541 269.51L510.476 269.55V262.625H511.306V270H509.891L506.771 263.125L506.846 263.09V270ZM515.29 270.095C514.756 270.095 514.285 269.977 513.875 269.74C513.468 269.5 513.148 269.173 512.915 268.76C512.685 268.343 512.57 267.87 512.57 267.34C512.57 266.81 512.685 266.34 512.915 265.93C513.148 265.52 513.468 265.198 513.875 264.965C514.285 264.732 514.756 264.615 515.29 264.615C515.823 264.615 516.293 264.732 516.7 264.965C517.11 265.198 517.43 265.52 517.66 265.93C517.893 266.34 518.01 266.81 518.01 267.34C518.01 267.87 517.893 268.343 517.66 268.76C517.43 269.173 517.11 269.5 516.7 269.74C516.293 269.977 515.823 270.095 515.29 270.095ZM515.29 269.315C515.656 269.315 515.98 269.233 516.26 269.07C516.54 268.907 516.758 268.677 516.915 268.38C517.075 268.083 517.155 267.737 517.155 267.34C517.155 266.943 517.075 266.6 516.915 266.31C516.758 266.017 516.54 265.792 516.26 265.635C515.98 265.475 515.656 265.395 515.29 265.395C514.926 265.395 514.603 265.475 514.32 265.635C514.04 265.792 513.82 266.017 513.66 266.31C513.503 266.6 513.425 266.943 513.425 267.34C513.425 267.737 513.503 268.083 513.66 268.38C513.82 268.677 514.04 268.907 514.32 269.07C514.603 269.233 514.926 269.315 515.29 269.315ZM523.387 264.69L521.607 270H520.492L518.672 264.69H519.552L521.117 269.55H520.982L522.507 264.69H523.387Z" fill="#464E5F"/>
<path d="M552.045 270V262.625H553.895C554.382 262.625 554.82 262.71 555.21 262.88C555.603 263.05 555.938 263.295 556.215 263.615C556.495 263.932 556.71 264.318 556.86 264.775C557.01 265.228 557.085 265.74 557.085 266.31C557.085 266.88 557.01 267.393 556.86 267.85C556.71 268.303 556.495 268.69 556.215 269.01C555.938 269.33 555.603 269.575 555.21 269.745C554.82 269.915 554.382 270 553.895 270H552.045ZM552.905 269.735L552.52 269.25H553.795C554.268 269.25 554.687 269.132 555.05 268.895C555.417 268.655 555.703 268.315 555.91 267.875C556.117 267.435 556.22 266.913 556.22 266.31C556.22 265.703 556.117 265.182 555.91 264.745C555.703 264.305 555.417 263.967 555.05 263.73C554.687 263.493 554.268 263.375 553.795 263.375H552.52L552.905 262.89V269.735ZM558.63 267.685V266.925H562.735L562.585 267.175C562.585 267.155 562.585 267.137 562.585 267.12C562.585 267.1 562.585 267.082 562.585 267.065C562.585 266.758 562.52 266.478 562.39 266.225C562.263 265.968 562.073 265.763 561.82 265.61C561.567 265.457 561.253 265.38 560.88 265.38C560.503 265.38 560.172 265.46 559.885 265.62C559.598 265.78 559.375 266.007 559.215 266.3C559.055 266.59 558.975 266.937 558.975 267.34C558.975 267.75 559.052 268.103 559.205 268.4C559.362 268.697 559.583 268.925 559.87 269.085C560.157 269.245 560.497 269.325 560.89 269.325C561.17 269.325 561.413 269.297 561.62 269.24C561.827 269.18 561.997 269.102 562.13 269.005C562.267 268.905 562.37 268.797 562.44 268.68C562.51 268.563 562.552 268.447 562.565 268.33H563.415C563.398 268.543 563.332 268.755 563.215 268.965C563.098 269.175 562.933 269.367 562.72 269.54C562.507 269.71 562.245 269.847 561.935 269.95C561.625 270.053 561.268 270.105 560.865 270.105C560.332 270.105 559.862 269.988 559.455 269.755C559.048 269.522 558.728 269.198 558.495 268.785C558.265 268.372 558.15 267.897 558.15 267.36C558.15 266.817 558.267 266.34 558.5 265.93C558.733 265.517 559.055 265.193 559.465 264.96C559.875 264.727 560.343 264.61 560.87 264.61C561.407 264.61 561.872 264.727 562.265 264.96C562.658 265.193 562.962 265.513 563.175 265.92C563.388 266.323 563.495 266.783 563.495 267.3C563.495 267.353 563.493 267.423 563.49 267.51C563.487 267.597 563.482 267.655 563.475 267.685H558.63ZM566.85 270.1C566.53 270.1 566.233 270.067 565.96 270C565.69 269.93 565.453 269.83 565.25 269.7C565.05 269.567 564.893 269.403 564.78 269.21C564.67 269.017 564.615 268.795 564.615 268.545C564.615 268.518 564.615 268.492 564.615 268.465C564.615 268.435 564.615 268.41 564.615 268.39H565.47C565.47 268.41 565.47 268.427 565.47 268.44C565.47 268.453 565.47 268.473 565.47 268.5C565.47 268.77 565.595 268.977 565.845 269.12C566.095 269.26 566.436 269.33 566.87 269.33C567.136 269.33 567.375 269.303 567.585 269.25C567.795 269.197 567.96 269.115 568.08 269.005C568.203 268.895 568.265 268.757 568.265 268.59C568.265 268.313 568.135 268.117 567.875 268C567.618 267.88 567.233 267.777 566.72 267.69C566.45 267.643 566.193 267.583 565.95 267.51C565.706 267.433 565.49 267.335 565.3 267.215C565.113 267.095 564.965 266.947 564.855 266.77C564.748 266.59 564.695 266.375 564.695 266.125C564.695 265.802 564.79 265.528 564.98 265.305C565.173 265.078 565.433 264.907 565.76 264.79C566.086 264.67 566.45 264.61 566.85 264.61C567.236 264.61 567.593 264.672 567.92 264.795C568.246 264.918 568.508 265.098 568.705 265.335C568.905 265.568 569.005 265.857 569.005 266.2C569.005 266.213 569.005 266.23 569.005 266.25C569.005 266.267 569.005 266.283 569.005 266.3H568.155C568.155 266.283 568.155 266.27 568.155 266.26C568.155 266.25 568.155 266.238 568.155 266.225C568.155 266.032 568.093 265.873 567.97 265.75C567.846 265.623 567.686 265.53 567.49 265.47C567.293 265.407 567.083 265.375 566.86 265.375C566.65 265.375 566.443 265.398 566.24 265.445C566.036 265.488 565.868 265.562 565.735 265.665C565.601 265.768 565.535 265.91 565.535 266.09C565.535 266.27 565.596 266.415 565.72 266.525C565.846 266.632 566.023 266.72 566.25 266.79C566.48 266.857 566.75 266.918 567.06 266.975C567.336 267.025 567.598 267.088 567.845 267.165C568.091 267.238 568.308 267.333 568.495 267.45C568.685 267.567 568.833 267.715 568.94 267.895C569.05 268.072 569.105 268.288 569.105 268.545C569.105 268.805 569.045 269.032 568.925 269.225C568.808 269.418 568.645 269.58 568.435 269.71C568.228 269.84 567.988 269.937 567.715 270C567.445 270.067 567.156 270.1 566.85 270.1Z" fill="#464E5F"/>
<g clip-path="url(#clip1_8121_217)">
<mask id="mask1_8121_217" style="mask-type:luminance" maskUnits="userSpaceOnUse" x="67" y="94" width="484" height="163">
<rect x="67" y="94" width="484" height="163" fill="white"/>
</mask>
<g mask="url(#mask1_8121_217)">
<path d="M62 156.699C74 131.366 113.4 88.999 175 122.199C252 163.699 267 191.199 341 156.699C415 122.199 449 114.699 507 156.699C553.4 190.299 580 170.699 587.5 156.699" stroke="#3CD856" stroke-width="4"/>
<path d="M62 130C87 101.5 111.4 127.8 173 161C250 202.5 255.473 176.014 328.5 139.5C395.5 106 447.5 142 505.5 184C551.9 217.6 581.5 198 589 184" stroke="#8950FC" stroke-width="4"/>
<path d="M62 130C87 101.5 111.4 127.8 173 161C250 202.5 255.473 176.014 328.5 139.5C395.5 106 447.5 142 505.5 184C551.9 217.6 581.5 198 589 184" stroke="#A700FF" stroke-width="4"/>
<path d="M62 161.147C87 132.647 111.4 158.947 173 192.147C250 233.647 250.973 158.514 324 122C391 88.5 449 129.5 507 171.5C553.4 205.1 581.5 229.147 589 215.147" stroke="#EF4444" stroke-width="4"/>
</g>
</g>
<circle cx="387" cy="110" r="7" fill="#F64E60"/>
<path d="M387 259.469L387 91.5314" stroke="#F64E60" stroke-dasharray="2 2"/>
<g clip-path="url(#clip2_8121_217)">
<g clip-path="url(#clip3_8121_217)">
<rect x="364" y="312" width="12" height="12" rx="2" fill="#3CD856"/>
</g>
<g clip-path="url(#clip4_8121_217)">
<rect x="238" y="312" width="12" height="12" rx="2" fill="#EF4444"/>
</g>
<g clip-path="url(#clip5_8121_217)">
<rect x="107" y="312" width="12" height="12" rx="2" fill="#A700FF"/>
</g>
</g>
<defs>
<filter id="filter0_d_8121_217" x="-20" y="-16" width="633.017" height="388" filterUnits="userSpaceOnUse" color-interpolation-filters="sRGB">
<feFlood flood-opacity="0" result="BackgroundImageFix"/>
<feColorMatrix in="SourceAlpha" type="matrix" values="0 0 0 0 0 0 0 0 0 0 0 0 0 0 0 0 0 0 127 0" result="hardAlpha"/>
<feOffset dy="4"/>
<feGaussianBlur stdDeviation="10"/>
<feColorMatrix type="matrix" values="0 0 0 0 0.93198 0 0 0 0 0.93198 0 0 0 0 0.93198 0 0 0 0.501967 0"/>
<feBlend mode="normal" in2="BackgroundImageFix" result="effect1_dropShadow_8121_217"/>
<feBlend mode="normal" in="SourceGraphic" in2="effect1_dropShadow_8121_217" result="shape"/>
</filter>
<clipPath id="clip0_8121_217">
<rect width="516" height="165" fill="white" transform="translate(51 93)"/>
</clipPath>
<clipPath id="clip1_8121_217">
<rect width="484" height="163" fill="white" transform="translate(67 94)"/>
</clipPath>
<clipPath id="clip2_8121_217">
<rect width="386.268" height="12" fill="white" transform="translate(102.87 312)"/>
</clipPath>
<clipPath id="clip3_8121_217">
<rect width="126" height="12" fill="white" transform="translate(364 312)"/>
</clipPath>
<clipPath id="clip4_8121_217">
<rect width="110" height="12" fill="white" transform="translate(238 312)"/>
</clipPath>
<clipPath id="clip5_8121_217">
<rect width="115" height="12" fill="white" transform="translate(107 312)"/>
</clipPath>
</defs>
</svg>
