<svg width="204" height="161" viewBox="0 0 204 161" fill="none" xmlns="http://www.w3.org/2000/svg">
<rect y="0.25" width="203.25" height="159.875" rx="6.75" fill="white"/>
<path d="M12.6225 20.25L12.6225 14.6625L16.26 14.6625L16.26 15.3375L13.3575 15.3375L13.3575 17.1075L16.11 17.1075L16.11 17.7825L13.3575 17.7825L13.3575 19.575L16.26 19.575L16.26 20.25L12.6225 20.25ZM16.6308 20.25L18.0483 18.225L16.6383 16.2075L17.4783 16.2075L18.6858 17.9625L18.2583 17.9625L19.4508 16.2075L20.2983 16.2075L18.8883 18.225L20.2908 20.25L19.4508 20.25L18.2583 18.495L18.6783 18.495L17.4858 20.25L16.6308 20.25ZM20.9189 21.75L20.9189 16.2075L21.6014 16.2075L21.6014 17.0775L21.5114 16.905C21.6614 16.665 21.8664 16.475 22.1264 16.335C22.3864 16.19 22.6839 16.1175 23.0189 16.1175C23.3989 16.1175 23.7389 16.21 24.0389 16.395C24.3439 16.58 24.5839 16.8325 24.7589 17.1525C24.9339 17.4675 25.0214 17.8275 25.0214 18.2325C25.0214 18.6275 24.9339 18.985 24.7589 19.305C24.5839 19.625 24.3439 19.8775 24.0389 20.0625C23.7389 20.2475 23.3964 20.34 23.0114 20.34C22.6864 20.34 22.3889 20.2675 22.1189 20.1225C21.8539 19.9775 21.6489 19.7725 21.5039 19.5075L21.6164 19.3875L21.6164 21.75L20.9189 21.75ZM22.9589 19.665C23.2139 19.665 23.4414 19.6025 23.6414 19.4775C23.8414 19.3525 23.9964 19.1825 24.1064 18.9675C24.2214 18.7475 24.2789 18.5025 24.2789 18.2325C24.2789 17.9525 24.2214 17.7075 24.1064 17.4975C23.9964 17.2825 23.8414 17.1125 23.6414 16.9875C23.4414 16.8575 23.2139 16.7925 22.9589 16.7925C22.7039 16.7925 22.4739 16.855 22.2689 16.98C22.0689 17.105 21.9089 17.2775 21.7889 17.4975C21.6739 17.7125 21.6164 17.9575 21.6164 18.2325C21.6164 18.5025 21.6739 18.7475 21.7889 18.9675C21.9089 19.1825 22.0689 19.3525 22.2689 19.4775C22.4739 19.6025 22.7039 19.665 22.9589 19.665ZM27.796 20.34C27.406 20.34 27.0585 20.2475 26.7535 20.0625C26.4485 19.8775 26.2085 19.625 26.0335 19.305C25.8585 18.98 25.771 18.6175 25.771 18.2175C25.771 17.8125 25.856 17.4525 26.026 17.1375C26.201 16.8225 26.436 16.575 26.731 16.395C27.031 16.21 27.366 16.1175 27.736 16.1175C28.036 16.1175 28.301 16.1725 28.531 16.2825C28.766 16.3875 28.9635 16.5325 29.1235 16.7175C29.2885 16.8975 29.4135 17.105 29.4985 17.34C29.5885 17.57 29.6335 17.81 29.6335 18.06C29.6335 18.115 29.6285 18.1775 29.6185 18.2475C29.6135 18.3125 29.606 18.375 29.596 18.435L26.281 18.435L26.281 17.835L29.191 17.835L28.861 18.105C28.906 17.845 28.881 17.6125 28.786 17.4075C28.691 17.2025 28.551 17.04 28.366 16.92C28.181 16.8 27.971 16.74 27.736 16.74C27.501 16.74 27.286 16.8 27.091 16.92C26.896 17.04 26.7435 17.2125 26.6335 17.4375C26.5285 17.6575 26.486 17.92 26.506 18.225C26.486 18.52 26.531 18.78 26.641 19.005C26.756 19.225 26.916 19.3975 27.121 19.5225C27.331 19.6425 27.5585 19.7025 27.8035 19.7025C28.0735 19.7025 28.301 19.64 28.486 19.515C28.671 19.39 28.821 19.23 28.936 19.035L29.521 19.335C29.441 19.52 29.316 19.69 29.146 19.845C28.981 19.995 28.7835 20.115 28.5535 20.205C28.3285 20.295 28.076 20.34 27.796 20.34ZM30.5429 20.25L30.5429 16.2075L31.2254 16.2075L31.2254 16.995L31.1129 16.9275C31.2129 16.6725 31.3729 16.475 31.5929 16.335C31.8179 16.19 32.0804 16.1175 32.3804 16.1175C32.6704 16.1175 32.9279 16.1825 33.1529 16.3125C33.3829 16.4425 33.5629 16.6225 33.6929 16.8525C33.8279 17.0825 33.8954 17.3425 33.8954 17.6325L33.8954 20.25L33.1904 20.25L33.1904 17.8575C33.1904 17.6325 33.1504 17.4425 33.0704 17.2875C32.9904 17.1325 32.8754 17.0125 32.7254 16.9275C32.5804 16.8375 32.4129 16.7925 32.2229 16.7925C32.0329 16.7925 31.8629 16.8375 31.7129 16.9275C31.5679 17.0125 31.4529 17.135 31.3679 17.295C31.2829 17.45 31.2404 17.6375 31.2404 17.8575L31.2404 20.25L30.5429 20.25ZM36.341 20.34C35.936 20.34 35.5835 20.24 35.2835 20.04C34.9835 19.84 34.771 19.57 34.646 19.23L35.201 18.96C35.316 19.2 35.4735 19.39 35.6735 19.53C35.8735 19.67 36.096 19.74 36.341 19.74C36.561 19.74 36.7435 19.6875 36.8885 19.5825C37.0335 19.4775 37.106 19.34 37.106 19.17C37.106 19.05 37.071 18.955 37.001 18.885C36.936 18.81 36.856 18.7525 36.761 18.7125C36.666 18.6675 36.5785 18.635 36.4985 18.615L35.891 18.4425C35.526 18.3375 35.2585 18.1875 35.0885 17.9925C34.9235 17.7975 34.841 17.57 34.841 17.31C34.841 17.07 34.901 16.8625 35.021 16.6875C35.146 16.5075 35.3135 16.3675 35.5235 16.2675C35.7385 16.1675 35.9785 16.1175 36.2435 16.1175C36.5985 16.1175 36.916 16.2075 37.196 16.3875C37.481 16.5675 37.6835 16.82 37.8035 17.145L37.2335 17.4075C37.1435 17.1975 37.0085 17.0325 36.8285 16.9125C36.6485 16.7875 36.446 16.725 36.221 16.725C36.016 16.725 35.8535 16.7775 35.7335 16.8825C35.6135 16.9825 35.5535 17.11 35.5535 17.265C35.5535 17.38 35.5835 17.475 35.6435 17.55C35.7035 17.62 35.776 17.675 35.861 17.715C35.946 17.75 36.0285 17.78 36.1085 17.805L36.7685 18C37.0985 18.095 37.3535 18.2425 37.5335 18.4425C37.7185 18.6425 37.811 18.8825 37.811 19.1625C37.811 19.3875 37.7485 19.59 37.6235 19.77C37.4985 19.95 37.326 20.09 37.106 20.19C36.886 20.29 36.631 20.34 36.341 20.34ZM40.5841 20.34C40.1941 20.34 39.8466 20.2475 39.5416 20.0625C39.2366 19.8775 38.9966 19.625 38.8216 19.305C38.6466 18.98 38.5591 18.6175 38.5591 18.2175C38.5591 17.8125 38.6441 17.4525 38.8141 17.1375C38.9891 16.8225 39.2241 16.575 39.5191 16.395C39.8191 16.21 40.1541 16.1175 40.5241 16.1175C40.8241 16.1175 41.0891 16.1725 41.3191 16.2825C41.5541 16.3875 41.7516 16.5325 41.9116 16.7175C42.0766 16.8975 42.2016 17.105 42.2866 17.34C42.3766 17.57 42.4216 17.81 42.4216 18.06C42.4216 18.115 42.4166 18.1775 42.4066 18.2475C42.4016 18.3125 42.3941 18.375 42.3841 18.435L39.0691 18.435L39.0691 17.835L41.9791 17.835L41.6491 18.105C41.6941 17.845 41.6691 17.6125 41.5741 17.4075C41.4791 17.2025 41.3391 17.04 41.1541 16.92C40.9691 16.8 40.7591 16.74 40.5241 16.74C40.2891 16.74 40.0741 16.8 39.8791 16.92C39.6841 17.04 39.5316 17.2125 39.4216 17.4375C39.3166 17.6575 39.2741 17.92 39.2941 18.225C39.2741 18.52 39.3191 18.78 39.4291 19.005C39.5441 19.225 39.7041 19.3975 39.9091 19.5225C40.1191 19.6425 40.3466 19.7025 40.5916 19.7025C40.8616 19.7025 41.0891 19.64 41.2741 19.515C41.4591 19.39 41.6091 19.23 41.7241 19.035L42.3091 19.335C42.2291 19.52 42.1041 19.69 41.9341 19.845C41.7691 19.995 41.5716 20.115 41.3416 20.205C41.1166 20.295 40.8641 20.34 40.5841 20.34ZM44.7785 20.34C44.3735 20.34 44.021 20.24 43.721 20.04C43.421 19.84 43.2085 19.57 43.0835 19.23L43.6385 18.96C43.7535 19.2 43.911 19.39 44.111 19.53C44.311 19.67 44.5335 19.74 44.7785 19.74C44.9985 19.74 45.181 19.6875 45.326 19.5825C45.471 19.4775 45.5435 19.34 45.5435 19.17C45.5435 19.05 45.5085 18.955 45.4385 18.885C45.3735 18.81 45.2935 18.7525 45.1985 18.7125C45.1035 18.6675 45.016 18.635 44.936 18.615L44.3285 18.4425C43.9635 18.3375 43.696 18.1875 43.526 17.9925C43.361 17.7975 43.2785 17.57 43.2785 17.31C43.2785 17.07 43.3385 16.8625 43.4585 16.6875C43.5835 16.5075 43.751 16.3675 43.961 16.2675C44.176 16.1675 44.416 16.1175 44.681 16.1175C45.036 16.1175 45.3535 16.2075 45.6335 16.3875C45.9185 16.5675 46.121 16.82 46.241 17.145L45.671 17.4075C45.581 17.1975 45.446 17.0325 45.266 16.9125C45.086 16.7875 44.8835 16.725 44.6585 16.725C44.4535 16.725 44.291 16.7775 44.171 16.8825C44.051 16.9825 43.991 17.11 43.991 17.265C43.991 17.38 44.021 17.475 44.081 17.55C44.141 17.62 44.2135 17.675 44.2985 17.715C44.3835 17.75 44.466 17.78 44.546 17.805L45.206 18C45.536 18.095 45.791 18.2425 45.971 18.4425C46.156 18.6425 46.2485 18.8825 46.2485 19.1625C46.2485 19.3875 46.186 19.59 46.061 19.77C45.936 19.95 45.7635 20.09 45.5435 20.19C45.3235 20.29 45.0685 20.34 44.7785 20.34ZM49.5155 20.25L49.5155 15.3375L48.0005 15.3375L48.0005 14.6625L51.7505 14.6625L51.7505 15.3375L50.258 15.3375L50.258 20.25L49.5155 20.25ZM53.7691 20.34C53.3791 20.34 53.0266 20.25 52.7116 20.07C52.3966 19.885 52.1466 19.6325 51.9616 19.3125C51.7766 18.9925 51.6841 18.63 51.6841 18.225C51.6841 17.82 51.7741 17.46 51.9541 17.145C52.1391 16.83 52.3891 16.58 52.7041 16.395C53.0191 16.21 53.3741 16.1175 53.7691 16.1175C54.1591 16.1175 54.5116 16.21 54.8266 16.395C55.1416 16.575 55.3891 16.8225 55.5691 17.1375C55.7541 17.4525 55.8466 17.815 55.8466 18.225C55.8466 18.635 55.7516 19 55.5616 19.32C55.3716 19.635 55.1191 19.885 54.8041 20.07C54.4941 20.25 54.1491 20.34 53.7691 20.34ZM53.7691 19.665C54.0191 19.665 54.2441 19.6025 54.4441 19.4775C54.6491 19.3525 54.8091 19.18 54.9241 18.96C55.0441 18.74 55.1041 18.495 55.1041 18.225C55.1041 17.95 55.0441 17.7075 54.9241 17.4975C54.8091 17.2825 54.6491 17.1125 54.4441 16.9875C54.2441 16.8575 54.0191 16.7925 53.7691 16.7925C53.5141 16.7925 53.2841 16.8575 53.0791 16.9875C52.8791 17.1125 52.7191 17.2825 52.5991 17.4975C52.4791 17.7075 52.4191 17.95 52.4191 18.225C52.4191 18.495 52.4791 18.74 52.5991 18.96C52.7191 19.18 52.8791 19.3525 53.0791 19.4775C53.2841 19.6025 53.5141 19.665 53.7691 19.665ZM58.3256 20.295C57.9306 20.295 57.6256 20.1825 57.4106 19.9575C57.2006 19.7325 57.0956 19.415 57.0956 19.005L57.0956 16.875L56.3606 16.875L56.3606 16.2075L56.5106 16.2075C56.6906 16.2075 56.8331 16.1525 56.9381 16.0425C57.0431 15.9325 57.0956 15.7875 57.0956 15.6075L57.0956 15.2775L57.7931 15.2775L57.7931 16.2075L58.7006 16.2075L58.7006 16.875L57.7931 16.875L57.7931 18.9825C57.7931 19.1175 57.8131 19.235 57.8531 19.335C57.8981 19.435 57.9706 19.515 58.0706 19.575C58.1706 19.63 58.3031 19.6575 58.4681 19.6575C58.5031 19.6575 58.5456 19.655 58.5956 19.65C58.6506 19.645 58.7006 19.64 58.7456 19.635L58.7456 20.25C58.6806 20.265 58.6081 20.275 58.5281 20.28C58.4481 20.29 58.3806 20.295 58.3256 20.295ZM60.7904 20.34C60.5254 20.34 60.2904 20.2925 60.0854 20.1975C59.8854 20.0975 59.7279 19.9625 59.6129 19.7925C59.4979 19.6175 59.4404 19.4175 59.4404 19.1925C59.4404 18.9775 59.4854 18.785 59.5754 18.615C59.6704 18.44 59.8154 18.2925 60.0104 18.1725C60.2104 18.0525 60.4604 17.9675 60.7604 17.9175L62.2604 17.67L62.2604 18.255L60.9179 18.48C60.6579 18.525 60.4679 18.6075 60.3479 18.7275C60.2329 18.8475 60.1754 18.995 60.1754 19.17C60.1754 19.335 60.2404 19.4725 60.3704 19.5825C60.5054 19.6925 60.6729 19.7475 60.8729 19.7475C61.1279 19.7475 61.3479 19.695 61.5329 19.59C61.7229 19.48 61.8704 19.3325 61.9754 19.1475C62.0854 18.9625 62.1404 18.7575 62.1404 18.5325L62.1404 17.505C62.1404 17.285 62.0579 17.1075 61.8929 16.9725C61.7329 16.8325 61.5204 16.7625 61.2554 16.7625C61.0254 16.7625 60.8204 16.8225 60.6404 16.9425C60.4654 17.0575 60.3354 17.2125 60.2504 17.4075L59.6429 17.0925C59.7179 16.9075 59.8379 16.7425 60.0029 16.5975C60.1679 16.4475 60.3604 16.33 60.5804 16.245C60.8004 16.16 61.0304 16.1175 61.2704 16.1175C61.5804 16.1175 61.8529 16.1775 62.0879 16.2975C62.3229 16.4125 62.5054 16.575 62.6354 16.785C62.7704 16.99 62.8379 17.23 62.8379 17.505L62.8379 20.25L62.1554 20.25L62.1554 19.485L62.2829 19.53C62.1979 19.69 62.0829 19.83 61.9379 19.95C61.7929 20.07 61.6229 20.165 61.4279 20.235C61.2329 20.305 61.0204 20.34 60.7904 20.34ZM63.9194 20.25L63.9194 14.5725L64.6169 14.5725L64.6169 20.25L63.9194 20.25ZM67.0481 18.5475L67.0481 17.91L69.8606 17.91L69.8606 18.5475L67.0481 18.5475ZM73.445 20.25L73.445 19.74L74.99 18.0675C75.295 17.7425 75.5375 17.475 75.7175 17.265C75.9025 17.055 76.0375 16.8675 76.1225 16.7025C76.2075 16.5375 76.25 16.3625 76.25 16.1775C76.25 15.8725 76.16 15.6375 75.98 15.4725C75.8 15.3075 75.5625 15.225 75.2675 15.225C74.9675 15.225 74.7125 15.3125 74.5025 15.4875C74.2925 15.6575 74.1475 15.9 74.0675 16.215L73.4 16.0425C73.465 15.7425 73.585 15.4825 73.76 15.2625C73.935 15.0425 74.1525 14.8725 74.4125 14.7525C74.6725 14.6325 74.9575 14.5725 75.2675 14.5725C75.6075 14.5725 75.905 14.64 76.16 14.775C76.42 14.905 76.6225 15.0875 76.7675 15.3225C76.9175 15.5575 76.9925 15.83 76.9925 16.14C76.9925 16.345 76.95 16.545 76.865 16.74C76.78 16.935 76.655 17.1425 76.49 17.3625C76.325 17.5775 76.11 17.8275 75.845 18.1125L74.465 19.6125L77.1125 19.6125L77.1125 20.25L73.445 20.25ZM80.2523 20.34C79.8073 20.34 79.4173 20.22 79.0823 19.98C78.7523 19.735 78.4948 19.3975 78.3098 18.9675C78.1248 18.5325 78.0323 18.0275 78.0323 17.4525C78.0323 16.8775 78.1248 16.375 78.3098 15.945C78.4948 15.51 78.7523 15.1725 79.0823 14.9325C79.4123 14.6925 79.7998 14.5725 80.2448 14.5725C80.6898 14.5725 81.0773 14.6925 81.4073 14.9325C81.7373 15.1725 81.9948 15.51 82.1798 15.945C82.3698 16.375 82.4648 16.8775 82.4648 17.4525C82.4648 18.0275 82.3723 18.5325 82.1873 18.9675C82.0023 19.4025 81.7423 19.74 81.4073 19.98C81.0773 20.22 80.6923 20.34 80.2523 20.34ZM80.2523 19.6575C80.5523 19.6575 80.8123 19.5675 81.0323 19.3875C81.2523 19.2025 81.4223 18.945 81.5423 18.615C81.6673 18.285 81.7298 17.8975 81.7298 17.4525C81.7298 17.0075 81.6673 16.62 81.5423 16.29C81.4223 15.96 81.2498 15.705 81.0248 15.525C80.8048 15.345 80.5448 15.255 80.2448 15.255C79.9448 15.255 79.6848 15.345 79.4648 15.525C79.2448 15.705 79.0723 15.96 78.9473 16.29C78.8273 16.62 78.7673 17.0075 78.7673 17.4525C78.7673 17.8925 78.8273 18.2775 78.9473 18.6075C79.0723 18.9375 79.2448 19.195 79.4648 19.38C79.6898 19.565 79.9523 19.6575 80.2523 19.6575ZM83.362 20.25L83.362 19.74L84.907 18.0675C85.212 17.7425 85.4545 17.475 85.6345 17.265C85.8195 17.055 85.9545 16.8675 86.0395 16.7025C86.1245 16.5375 86.167 16.3625 86.167 16.1775C86.167 15.8725 86.077 15.6375 85.897 15.4725C85.717 15.3075 85.4795 15.225 85.1845 15.225C84.8845 15.225 84.6295 15.3125 84.4195 15.4875C84.2095 15.6575 84.0645 15.9 83.9845 16.215L83.317 16.0425C83.382 15.7425 83.502 15.4825 83.677 15.2625C83.852 15.0425 84.0695 14.8725 84.3295 14.7525C84.5895 14.6325 84.8745 14.5725 85.1845 14.5725C85.5245 14.5725 85.822 14.64 86.077 14.775C86.337 14.905 86.5395 15.0875 86.6845 15.3225C86.8345 15.5575 86.9095 15.83 86.9095 16.14C86.9095 16.345 86.867 16.545 86.782 16.74C86.697 16.935 86.572 17.1425 86.407 17.3625C86.242 17.5775 86.027 17.8275 85.762 18.1125L84.382 19.6125L87.0295 19.6125L87.0295 20.25L83.362 20.25ZM90.441 20.25L90.441 18.96L87.696 18.96L87.696 18.3525L90.426 14.6625L91.131 14.6625L91.131 18.3525L91.8585 18.3525L91.8585 18.96L91.131 18.96L91.131 20.25L90.441 20.25ZM88.251 18.615L88.146 18.3525L90.441 18.3525L90.441 15.2775L90.6585 15.3375L88.251 18.615Z" fill="#95969B"/>
<path d="M15.042 35.233C14.622 35.233 14.232 35.155 13.872 34.999C13.512 34.837 13.206 34.618 12.954 34.342C12.702 34.066 12.516 33.748 12.396 33.388L13.296 33.01C13.458 33.424 13.695 33.742 14.007 33.964C14.319 34.186 14.679 34.297 15.087 34.297C15.327 34.297 15.537 34.261 15.717 34.189C15.897 34.111 16.035 34.003 16.131 33.865C16.233 33.727 16.284 33.568 16.284 33.388C16.284 33.142 16.215 32.947 16.077 32.803C15.939 32.659 15.735 32.545 15.465 32.461L14.205 32.065C13.701 31.909 13.317 31.672 13.053 31.354C12.789 31.03 12.657 30.652 12.657 30.22C12.657 29.842 12.75 29.512 12.936 29.23C13.122 28.942 13.377 28.717 13.701 28.555C14.031 28.393 14.406 28.312 14.826 28.312C15.228 28.312 15.594 28.384 15.924 28.528C16.254 28.666 16.536 28.858 16.77 29.104C17.01 29.35 17.184 29.635 17.292 29.959L16.41 30.346C16.278 29.992 16.071 29.719 15.789 29.527C15.513 29.335 15.192 29.239 14.826 29.239C14.604 29.239 14.409 29.278 14.241 29.356C14.073 29.428 13.941 29.536 13.845 29.68C13.755 29.818 13.71 29.98 13.71 30.166C13.71 30.382 13.779 30.574 13.917 30.742C14.055 30.91 14.265 31.036 14.547 31.12L15.717 31.489C16.251 31.651 16.653 31.885 16.923 32.191C17.193 32.491 17.328 32.866 17.328 33.316C17.328 33.688 17.229 34.018 17.031 34.306C16.839 34.594 16.572 34.822 16.23 34.99C15.888 35.152 15.492 35.233 15.042 35.233ZM14.628 36.025L14.628 27.52L15.348 27.52L15.348 36.025L14.628 36.025ZM19.8504 35.125L19.8504 34.36L21.6864 32.398C22.0464 32.014 22.3284 31.705 22.5324 31.471C22.7424 31.231 22.8924 31.021 22.9824 30.841C23.0784 30.661 23.1264 30.472 23.1264 30.274C23.1264 29.95 23.0274 29.701 22.8294 29.527C22.6314 29.347 22.3764 29.257 22.0644 29.257C21.7404 29.257 21.4614 29.35 21.2274 29.536C20.9934 29.716 20.8314 29.98 20.7414 30.328L19.8054 30.058C19.8774 29.704 20.0214 29.398 20.2374 29.14C20.4534 28.876 20.7174 28.672 21.0294 28.528C21.3474 28.384 21.6894 28.312 22.0554 28.312C22.4814 28.312 22.8534 28.393 23.1714 28.555C23.4894 28.711 23.7354 28.93 23.9094 29.212C24.0894 29.494 24.1794 29.821 24.1794 30.193C24.1794 30.439 24.1314 30.679 24.0354 30.913C23.9454 31.141 23.8044 31.384 23.6124 31.642C23.4204 31.894 23.1744 32.179 22.8744 32.497L21.2544 34.225L24.3054 34.225L24.3054 35.125L19.8504 35.125ZM27.6143 35.233C27.1463 35.233 26.7353 35.143 26.3813 34.963C26.0333 34.777 25.7633 34.531 25.5713 34.225C25.3793 33.913 25.2833 33.568 25.2833 33.19C25.2833 32.758 25.4003 32.386 25.6343 32.074C25.8743 31.756 26.2103 31.525 26.6423 31.381L26.5973 31.651C26.2793 31.531 26.0273 31.33 25.8413 31.048C25.6613 30.76 25.5713 30.445 25.5713 30.103C25.5713 29.761 25.6583 29.455 25.8323 29.185C26.0123 28.915 26.2553 28.702 26.5613 28.546C26.8733 28.39 27.2243 28.312 27.6143 28.312C28.0103 28.312 28.3613 28.39 28.6673 28.546C28.9733 28.696 29.2133 28.906 29.3873 29.176C29.5673 29.446 29.6573 29.755 29.6573 30.103C29.6573 30.457 29.5643 30.775 29.3783 31.057C29.1983 31.333 28.9523 31.531 28.6403 31.651L28.5953 31.381C29.0273 31.531 29.3633 31.762 29.6033 32.074C29.8433 32.386 29.9633 32.758 29.9633 33.19C29.9633 33.568 29.8643 33.913 29.6663 34.225C29.4743 34.531 29.2013 34.777 28.8473 34.963C28.4933 35.143 28.0823 35.233 27.6143 35.233ZM27.6143 34.333C27.8723 34.333 28.0973 34.285 28.2893 34.189C28.4813 34.087 28.6313 33.949 28.7393 33.775C28.8473 33.601 28.9013 33.397 28.9013 33.163C28.9013 32.929 28.8473 32.725 28.7393 32.551C28.6313 32.377 28.4813 32.242 28.2893 32.146C28.0973 32.05 27.8723 32.002 27.6143 32.002C27.3623 32.002 27.1403 32.05 26.9483 32.146C26.7563 32.242 26.6063 32.377 26.4983 32.551C26.3903 32.725 26.3363 32.929 26.3363 33.163C26.3363 33.397 26.3903 33.601 26.4983 33.775C26.6063 33.949 26.7563 34.087 26.9483 34.189C27.1403 34.285 27.3623 34.333 27.6143 34.333ZM27.6143 31.102C27.8063 31.102 27.9743 31.063 28.1183 30.985C28.2683 30.901 28.3853 30.787 28.4693 30.643C28.5533 30.499 28.5953 30.337 28.5953 30.157C28.5953 29.971 28.5533 29.809 28.4693 29.671C28.3853 29.527 28.2683 29.416 28.1183 29.338C27.9743 29.254 27.8063 29.212 27.6143 29.212C27.4283 29.212 27.2603 29.254 27.1103 29.338C26.9603 29.416 26.8433 29.527 26.7593 29.671C26.6753 29.809 26.6333 29.971 26.6333 30.157C26.6333 30.337 26.6753 30.499 26.7593 30.643C26.8433 30.787 26.9603 30.901 27.1103 30.985C27.2603 31.063 27.4283 31.102 27.6143 31.102ZM31.312 36.448L31.312 35.953C31.51 35.905 31.663 35.812 31.771 35.674C31.879 35.542 31.945 35.359 31.969 35.125L31.492 35.125L31.492 33.955L32.527 33.955L32.527 34.72C32.527 35.2 32.425 35.587 32.221 35.881C32.017 36.175 31.714 36.364 31.312 36.448ZM36.0472 35.233C35.6872 35.233 35.3482 35.167 35.0302 35.035C34.7182 34.903 34.4482 34.717 34.2202 34.477C33.9982 34.237 33.8392 33.955 33.7432 33.631L34.6432 33.289C34.7632 33.607 34.9462 33.853 35.1922 34.027C35.4382 34.201 35.7232 34.288 36.0472 34.288C36.3112 34.288 36.5392 34.237 36.7312 34.135C36.9292 34.033 37.0822 33.889 37.1902 33.703C37.3042 33.517 37.3612 33.292 37.3612 33.028C37.3612 32.77 37.3042 32.548 37.1902 32.362C37.0822 32.176 36.9292 32.035 36.7312 31.939C36.5392 31.843 36.3112 31.795 36.0472 31.795C35.9392 31.795 35.8282 31.804 35.7142 31.822C35.6062 31.84 35.5102 31.864 35.4262 31.894L35.1922 31.399L36.9562 29.32L34.1032 29.32L34.1032 28.42L38.1442 28.42L38.1442 29.275L36.4162 31.345L36.3892 31.003C36.7912 31.009 37.1452 31.099 37.4512 31.273C37.7572 31.441 37.9942 31.675 38.1622 31.975C38.3362 32.269 38.4232 32.611 38.4232 33.001C38.4232 33.421 38.3212 33.802 38.1172 34.144C37.9132 34.48 37.6312 34.747 37.2712 34.945C36.9172 35.137 36.5092 35.233 36.0472 35.233ZM41.7471 35.233C41.2791 35.233 40.8681 35.143 40.5141 34.963C40.1661 34.777 39.8961 34.531 39.7041 34.225C39.5121 33.913 39.4161 33.568 39.4161 33.19C39.4161 32.758 39.5331 32.386 39.7671 32.074C40.0071 31.756 40.3431 31.525 40.7751 31.381L40.7301 31.651C40.4121 31.531 40.1601 31.33 39.9741 31.048C39.7941 30.76 39.7041 30.445 39.7041 30.103C39.7041 29.761 39.7911 29.455 39.9651 29.185C40.1451 28.915 40.3881 28.702 40.6941 28.546C41.0061 28.39 41.3571 28.312 41.7471 28.312C42.1431 28.312 42.4941 28.39 42.8001 28.546C43.1061 28.696 43.3461 28.906 43.5201 29.176C43.7001 29.446 43.7901 29.755 43.7901 30.103C43.7901 30.457 43.6971 30.775 43.5111 31.057C43.3311 31.333 43.0851 31.531 42.7731 31.651L42.7281 31.381C43.1601 31.531 43.4961 31.762 43.7361 32.074C43.9761 32.386 44.0961 32.758 44.0961 33.19C44.0961 33.568 43.9971 33.913 43.7991 34.225C43.6071 34.531 43.3341 34.777 42.9801 34.963C42.6261 35.143 42.2151 35.233 41.7471 35.233ZM41.7471 34.333C42.0051 34.333 42.2301 34.285 42.4221 34.189C42.6141 34.087 42.7641 33.949 42.8721 33.775C42.9801 33.601 43.0341 33.397 43.0341 33.163C43.0341 32.929 42.9801 32.725 42.8721 32.551C42.7641 32.377 42.6141 32.242 42.4221 32.146C42.2301 32.05 42.0051 32.002 41.7471 32.002C41.4951 32.002 41.2731 32.05 41.0811 32.146C40.8891 32.242 40.7391 32.377 40.6311 32.551C40.5231 32.725 40.4691 32.929 40.4691 33.163C40.4691 33.397 40.5231 33.601 40.6311 33.775C40.7391 33.949 40.8891 34.087 41.0811 34.189C41.2731 34.285 41.4951 34.333 41.7471 34.333ZM41.7471 31.102C41.9391 31.102 42.1071 31.063 42.2511 30.985C42.4011 30.901 42.5181 30.787 42.6021 30.643C42.6861 30.499 42.7281 30.337 42.7281 30.157C42.7281 29.971 42.6861 29.809 42.6021 29.671C42.5181 29.527 42.4011 29.416 42.2511 29.338C42.1071 29.254 41.9391 29.212 41.7471 29.212C41.5611 29.212 41.3931 29.254 41.2431 29.338C41.0931 29.416 40.9761 29.527 40.8921 29.671C40.8081 29.809 40.7661 29.971 40.7661 30.157C40.7661 30.337 40.8081 30.499 40.8921 30.643C40.9761 30.787 41.0931 30.901 41.2431 30.985C41.3931 31.063 41.5611 31.102 41.7471 31.102ZM47.8208 35.233C47.2868 35.233 46.8188 35.089 46.4168 34.801C46.0148 34.507 45.6998 34.102 45.4718 33.586C45.2498 33.064 45.1388 32.458 45.1388 31.768C45.1388 31.072 45.2498 30.466 45.4718 29.95C45.6998 29.434 46.0118 29.032 46.4078 28.744C46.8098 28.456 47.2778 28.312 47.8118 28.312C48.3458 28.312 48.8108 28.456 49.2068 28.744C49.6088 29.032 49.9208 29.437 50.1428 29.959C50.3708 30.475 50.4848 31.078 50.4848 31.768C50.4848 32.458 50.3738 33.064 50.1518 33.586C49.9298 34.102 49.6178 34.507 49.2158 34.801C48.8198 35.089 48.3548 35.233 47.8208 35.233ZM47.8208 34.261C48.1508 34.261 48.4358 34.159 48.6758 33.955C48.9158 33.751 49.1018 33.463 49.2338 33.091C49.3658 32.719 49.4318 32.278 49.4318 31.768C49.4318 31.258 49.3658 30.817 49.2338 30.445C49.1018 30.073 48.9158 29.785 48.6758 29.581C48.4358 29.377 48.1478 29.275 47.8118 29.275C47.4818 29.275 47.1968 29.377 46.9568 29.581C46.7168 29.785 46.5308 30.073 46.3988 30.445C46.2668 30.817 46.2008 31.258 46.2008 31.768C46.2008 32.272 46.2668 32.713 46.3988 33.091C46.5308 33.463 46.7168 33.751 46.9568 33.955C47.2028 34.159 47.4908 34.261 47.8208 34.261ZM52.0762 35.125L52.0762 33.955L53.1112 33.955L53.1112 35.125L52.0762 35.125ZM57.3833 35.233C56.8493 35.233 56.3813 35.089 55.9793 34.801C55.5773 34.507 55.2623 34.102 55.0343 33.586C54.8123 33.064 54.7013 32.458 54.7013 31.768C54.7013 31.072 54.8123 30.466 55.0343 29.95C55.2623 29.434 55.5743 29.032 55.9703 28.744C56.3723 28.456 56.8403 28.312 57.3743 28.312C57.9083 28.312 58.3733 28.456 58.7693 28.744C59.1713 29.032 59.4833 29.437 59.7053 29.959C59.9333 30.475 60.0473 31.078 60.0473 31.768C60.0473 32.458 59.9363 33.064 59.7143 33.586C59.4923 34.102 59.1803 34.507 58.7783 34.801C58.3823 35.089 57.9173 35.233 57.3833 35.233ZM57.3833 34.261C57.7133 34.261 57.9983 34.159 58.2383 33.955C58.4783 33.751 58.6643 33.463 58.7963 33.091C58.9283 32.719 58.9943 32.278 58.9943 31.768C58.9943 31.258 58.9283 30.817 58.7963 30.445C58.6643 30.073 58.4783 29.785 58.2383 29.581C57.9983 29.377 57.7103 29.275 57.3743 29.275C57.0443 29.275 56.7593 29.377 56.5193 29.581C56.2793 29.785 56.0933 30.073 55.9613 30.445C55.8293 30.817 55.7633 31.258 55.7633 31.768C55.7633 32.272 55.8293 32.713 55.9613 33.091C56.0933 33.463 56.2793 33.751 56.5193 33.955C56.7653 34.159 57.0533 34.261 57.3833 34.261ZM63.8257 35.233C63.2917 35.233 62.8237 35.089 62.4217 34.801C62.0197 34.507 61.7047 34.102 61.4767 33.586C61.2547 33.064 61.1437 32.458 61.1437 31.768C61.1437 31.072 61.2547 30.466 61.4767 29.95C61.7047 29.434 62.0167 29.032 62.4127 28.744C62.8147 28.456 63.2827 28.312 63.8167 28.312C64.3507 28.312 64.8157 28.456 65.2117 28.744C65.6137 29.032 65.9257 29.437 66.1477 29.959C66.3757 30.475 66.4897 31.078 66.4897 31.768C66.4897 32.458 66.3787 33.064 66.1567 33.586C65.9347 34.102 65.6227 34.507 65.2207 34.801C64.8247 35.089 64.3597 35.233 63.8257 35.233ZM63.8257 34.261C64.1557 34.261 64.4407 34.159 64.6807 33.955C64.9207 33.751 65.1067 33.463 65.2387 33.091C65.3707 32.719 65.4367 32.278 65.4367 31.768C65.4367 31.258 65.3707 30.817 65.2387 30.445C65.1067 30.073 64.9207 29.785 64.6807 29.581C64.4407 29.377 64.1527 29.275 63.8167 29.275C63.4867 29.275 63.2017 29.377 62.9617 29.581C62.7217 29.785 62.5357 30.073 62.4037 30.445C62.2717 30.817 62.2057 31.258 62.2057 31.768C62.2057 32.272 62.2717 32.713 62.4037 33.091C62.5357 33.463 62.7217 33.751 62.9617 33.955C63.2077 34.159 63.4957 34.261 63.8257 34.261Z" fill="#212227"/>
<rect x="12" y="73.5" width="16.5" height="56.625" rx="2.25" fill="#DEE2F6"/>
<path d="M14.7536 145.125L14.7536 144.3L15.0761 144.3C15.3261 144.3 15.5261 144.227 15.6761 144.082C15.8261 143.932 15.9011 143.732 15.9011 143.482L15.9011 139.537L16.7786 139.537L16.7786 143.452C16.7786 143.792 16.7086 144.087 16.5686 144.337C16.4336 144.587 16.2361 144.782 15.9761 144.922C15.7211 145.057 15.4211 145.125 15.0761 145.125L14.7536 145.125ZM19.0559 145.215C18.7809 145.215 18.5384 145.167 18.3284 145.072C18.1234 144.972 17.9634 144.837 17.8484 144.667C17.7334 144.492 17.6759 144.287 17.6759 144.052C17.6759 143.832 17.7234 143.635 17.8184 143.46C17.9184 143.285 18.0709 143.137 18.2759 143.017C18.4809 142.897 18.7384 142.812 19.0484 142.762L20.4584 142.53L20.4584 143.197L19.2134 143.415C18.9884 143.455 18.8234 143.527 18.7184 143.632C18.6134 143.732 18.5609 143.862 18.5609 144.022C18.5609 144.177 18.6184 144.305 18.7334 144.405C18.8534 144.5 19.0059 144.547 19.1909 144.547C19.4209 144.547 19.6209 144.497 19.7909 144.397C19.9659 144.297 20.1009 144.165 20.1959 144C20.2909 143.83 20.3384 143.642 20.3384 143.437L20.3384 142.395C20.3384 142.195 20.2634 142.032 20.1134 141.907C19.9684 141.777 19.7734 141.712 19.5284 141.712C19.3034 141.712 19.1059 141.772 18.9359 141.892C18.7709 142.007 18.6484 142.157 18.5684 142.342L17.8634 141.99C17.9384 141.79 18.0609 141.615 18.2309 141.465C18.4009 141.31 18.5984 141.19 18.8234 141.105C19.0534 141.02 19.2959 140.977 19.5509 140.977C19.8709 140.977 20.1534 141.037 20.3984 141.157C20.6484 141.277 20.8409 141.445 20.9759 141.66C21.1159 141.87 21.1859 142.115 21.1859 142.395L21.1859 145.125L20.3759 145.125L20.3759 144.39L20.5484 144.412C20.4534 144.577 20.3309 144.72 20.1809 144.84C20.0359 144.96 19.8684 145.052 19.6784 145.117C19.4934 145.182 19.2859 145.215 19.0559 145.215ZM22.1769 145.125L22.1769 141.067L22.9869 141.067L22.9869 141.862L22.8894 141.757C22.9894 141.502 23.1494 141.31 23.3694 141.18C23.5894 141.045 23.8444 140.977 24.1344 140.977C24.4344 140.977 24.6994 141.042 24.9294 141.172C25.1594 141.302 25.3394 141.482 25.4694 141.712C25.5994 141.942 25.6644 142.207 25.6644 142.507L25.6644 145.125L24.8244 145.125L24.8244 142.732C24.8244 142.527 24.7869 142.355 24.7119 142.215C24.6369 142.07 24.5294 141.96 24.3894 141.885C24.2544 141.805 24.0994 141.765 23.9244 141.765C23.7494 141.765 23.5919 141.805 23.4519 141.885C23.3169 141.96 23.2119 142.07 23.1369 142.215C23.0619 142.36 23.0244 142.532 23.0244 142.732L23.0244 145.125L22.1769 145.125Z" fill="#212227"/>
<rect x="35.25" y="117" width="16.5" height="13.125" rx="2.25" fill="#00ada8"/>
<path d="M37.1305 145.125L37.1305 139.537L40.768 139.537L40.768 140.325L38.0155 140.325L38.0155 142.005L40.468 142.005L40.468 142.792L38.0155 142.792L38.0155 145.125L37.1305 145.125ZM43.223 145.215C42.818 145.215 42.458 145.122 42.143 144.937C41.833 144.747 41.5905 144.492 41.4155 144.172C41.2405 143.847 41.153 143.485 41.153 143.085C41.153 142.675 41.2405 142.312 41.4155 141.997C41.5955 141.682 41.8355 141.435 42.1355 141.255C42.4355 141.07 42.7755 140.977 43.1555 140.977C43.4605 140.977 43.733 141.03 43.973 141.135C44.213 141.24 44.4155 141.385 44.5805 141.57C44.7455 141.75 44.8705 141.957 44.9555 142.192C45.0455 142.427 45.0905 142.677 45.0905 142.942C45.0905 143.007 45.088 143.075 45.083 143.145C45.078 143.215 45.068 143.28 45.053 143.34L41.8205 143.34L41.8205 142.665L44.573 142.665L44.168 142.972C44.218 142.727 44.2005 142.51 44.1155 142.32C44.0355 142.125 43.9105 141.972 43.7405 141.862C43.5755 141.747 43.3805 141.69 43.1555 141.69C42.9305 141.69 42.7305 141.747 42.5555 141.862C42.3805 141.972 42.2455 142.132 42.1505 142.342C42.0555 142.547 42.018 142.797 42.038 143.092C42.013 143.367 42.0505 143.607 42.1505 143.812C42.2555 144.017 42.4005 144.177 42.5855 144.292C42.7755 144.407 42.9905 144.465 43.2305 144.465C43.4755 144.465 43.683 144.41 43.853 144.3C44.028 144.19 44.1655 144.047 44.2655 143.872L44.9555 144.21C44.8755 144.4 44.7505 144.572 44.5805 144.727C44.4155 144.877 44.2155 144.997 43.9805 145.087C43.7505 145.172 43.498 145.215 43.223 145.215ZM48.0851 145.215C47.7701 145.215 47.4826 145.15 47.2226 145.02C46.9676 144.89 46.7701 144.702 46.6301 144.457L46.7276 144.3L46.7276 145.125L45.9176 145.125L45.9176 139.447L46.7651 139.447L46.7651 141.907L46.6301 141.712C46.7801 141.482 46.9801 141.302 47.2301 141.172C47.4801 141.042 47.7651 140.977 48.0851 140.977C48.4701 140.977 48.8151 141.07 49.1201 141.255C49.4301 141.44 49.6726 141.692 49.8476 142.012C50.0276 142.332 50.1176 142.692 50.1176 143.092C50.1176 143.492 50.0276 143.852 49.8476 144.172C49.6726 144.492 49.4326 144.747 49.1276 144.937C48.8226 145.122 48.4751 145.215 48.0851 145.215ZM48.0026 144.427C48.2426 144.427 48.4551 144.37 48.6401 144.255C48.8251 144.14 48.9701 143.982 49.0751 143.782C49.1851 143.577 49.2401 143.347 49.2401 143.092C49.2401 142.837 49.1851 142.61 49.0751 142.41C48.9701 142.21 48.8251 142.052 48.6401 141.937C48.4551 141.822 48.2426 141.765 48.0026 141.765C47.7676 141.765 47.5551 141.822 47.3651 141.937C47.1801 142.052 47.0326 142.21 46.9226 142.41C46.8176 142.61 46.7651 142.837 46.7651 143.092C46.7651 143.347 46.8176 143.577 46.9226 143.782C47.0326 143.982 47.1801 144.14 47.3651 144.255C47.5551 144.37 47.7676 144.427 48.0026 144.427Z" fill="#212227"/>
<rect x="58.5" y="84.375" width="16.5" height="45.75" rx="2.25" fill="#DEE2F6"/>
<path d="M60.5233 145.125L60.5233 139.537L61.3483 139.537L63.4483 142.447L63.0358 142.447L65.0983 139.537L65.9233 139.537L65.9233 145.125L65.0458 145.125L65.0458 140.58L65.3758 140.67L63.2683 143.55L63.1783 143.55L61.1158 140.67L61.4083 140.58L61.4083 145.125L60.5233 145.125ZM68.211 145.215C67.936 145.215 67.6935 145.167 67.4835 145.072C67.2785 144.972 67.1185 144.837 67.0035 144.667C66.8885 144.492 66.831 144.287 66.831 144.052C66.831 143.832 66.8785 143.635 66.9735 143.46C67.0735 143.285 67.226 143.137 67.431 143.017C67.636 142.897 67.8935 142.812 68.2035 142.762L69.6135 142.53L69.6135 143.197L68.3685 143.415C68.1435 143.455 67.9785 143.527 67.8735 143.632C67.7685 143.732 67.716 143.862 67.716 144.022C67.716 144.177 67.7735 144.305 67.8885 144.405C68.0085 144.5 68.161 144.547 68.346 144.547C68.576 144.547 68.776 144.497 68.946 144.397C69.121 144.297 69.256 144.165 69.351 144C69.446 143.83 69.4935 143.642 69.4935 143.437L69.4935 142.395C69.4935 142.195 69.4185 142.032 69.2685 141.907C69.1235 141.777 68.9285 141.712 68.6835 141.712C68.4585 141.712 68.261 141.772 68.091 141.892C67.926 142.007 67.8035 142.157 67.7235 142.342L67.0185 141.99C67.0935 141.79 67.216 141.615 67.386 141.465C67.556 141.31 67.7535 141.19 67.9785 141.105C68.2085 141.02 68.451 140.977 68.706 140.977C69.026 140.977 69.3085 141.037 69.5535 141.157C69.8035 141.277 69.996 141.445 70.131 141.66C70.271 141.87 70.341 142.115 70.341 142.395L70.341 145.125L69.531 145.125L69.531 144.39L69.7035 144.412C69.6085 144.577 69.486 144.72 69.336 144.84C69.191 144.96 69.0235 145.052 68.8335 145.117C68.6485 145.182 68.441 145.215 68.211 145.215ZM71.3319 145.125L71.3319 141.067L72.1419 141.067L72.1419 141.885L72.0669 141.765C72.1569 141.5 72.3019 141.31 72.5019 141.195C72.7019 141.075 72.9419 141.015 73.2219 141.015L73.4694 141.015L73.4694 141.787L73.1169 141.787C72.8369 141.787 72.6094 141.875 72.4344 142.05C72.2644 142.22 72.1794 142.465 72.1794 142.785L72.1794 145.125L71.3319 145.125Z" fill="#212227"/>
<rect x="81.75" y="95.625" width="16.5" height="34.5" rx="2.25" fill="#00ada8"/>
<path d="M83.6152 145.125L85.5802 139.537L86.6752 139.537L88.6402 145.125L87.6952 145.125L87.2677 143.872L84.9952 143.872L84.5602 145.125L83.6152 145.125ZM85.2502 143.085L86.9977 143.085L86.0077 140.16L86.2552 140.16L85.2502 143.085ZM89.2206 146.625L89.2206 141.067L90.0306 141.067L90.0306 141.907L89.9331 141.712C90.0831 141.482 90.2831 141.302 90.5331 141.172C90.7831 141.042 91.0681 140.977 91.3881 140.977C91.7731 140.977 92.1181 141.07 92.4231 141.255C92.7331 141.44 92.9756 141.692 93.1506 142.012C93.3306 142.332 93.4206 142.692 93.4206 143.092C93.4206 143.492 93.3306 143.852 93.1506 144.172C92.9756 144.492 92.7356 144.747 92.4306 144.937C92.1256 145.122 91.7781 145.215 91.3881 145.215C91.0731 145.215 90.7856 145.15 90.5256 145.02C90.2706 144.89 90.0731 144.702 89.9331 144.457L90.0681 144.3L90.0681 146.625L89.2206 146.625ZM91.3056 144.427C91.5456 144.427 91.7581 144.37 91.9431 144.255C92.1281 144.14 92.2731 143.982 92.3781 143.782C92.4881 143.577 92.5431 143.347 92.5431 143.092C92.5431 142.837 92.4881 142.61 92.3781 142.41C92.2731 142.21 92.1281 142.052 91.9431 141.937C91.7581 141.822 91.5456 141.765 91.3056 141.765C91.0706 141.765 90.8581 141.822 90.6681 141.937C90.4831 142.052 90.3356 142.21 90.2256 142.41C90.1206 142.61 90.0681 142.837 90.0681 143.092C90.0681 143.347 90.1206 143.577 90.2256 143.782C90.3356 143.982 90.4831 144.14 90.6681 144.255C90.8581 144.37 91.0706 144.427 91.3056 144.427ZM94.245 145.125L94.245 141.067L95.055 141.067L95.055 141.885L94.98 141.765C95.07 141.5 95.215 141.31 95.415 141.195C95.615 141.075 95.855 141.015 96.135 141.015L96.3825 141.015L96.3825 141.787L96.03 141.787C95.75 141.787 95.5225 141.875 95.3475 142.05C95.1775 142.22 95.0925 142.465 95.0925 142.785L95.0925 145.125L94.245 145.125Z" fill="#212227"/>
<rect x="105" y="58.125" width="16.5" height="72" rx="2.25" fill="#00ada8"/>
<path d="M106.247 145.125L106.247 139.537L107.072 139.537L109.172 142.447L108.759 142.447L110.822 139.537L111.647 139.537L111.647 145.125L110.769 145.125L110.769 140.58L111.099 140.67L108.992 143.55L108.902 143.55L106.839 140.67L107.132 140.58L107.132 145.125L106.247 145.125ZM113.935 145.215C113.66 145.215 113.417 145.167 113.207 145.072C113.002 144.972 112.842 144.837 112.727 144.667C112.612 144.492 112.555 144.287 112.555 144.052C112.555 143.832 112.602 143.635 112.697 143.46C112.797 143.285 112.95 143.137 113.155 143.017C113.36 142.897 113.617 142.812 113.927 142.762L115.337 142.53L115.337 143.197L114.092 143.415C113.867 143.455 113.702 143.527 113.597 143.632C113.492 143.732 113.44 143.862 113.44 144.022C113.44 144.177 113.497 144.305 113.612 144.405C113.732 144.5 113.885 144.547 114.07 144.547C114.3 144.547 114.5 144.497 114.67 144.397C114.845 144.297 114.98 144.165 115.075 144C115.17 143.83 115.217 143.642 115.217 143.437L115.217 142.395C115.217 142.195 115.142 142.032 114.992 141.907C114.847 141.777 114.652 141.712 114.407 141.712C114.182 141.712 113.985 141.772 113.815 141.892C113.65 142.007 113.527 142.157 113.447 142.342L112.742 141.99C112.817 141.79 112.94 141.615 113.11 141.465C113.28 141.31 113.477 141.19 113.702 141.105C113.932 141.02 114.175 140.977 114.43 140.977C114.75 140.977 115.032 141.037 115.277 141.157C115.527 141.277 115.72 141.445 115.855 141.66C115.995 141.87 116.065 142.115 116.065 142.395L116.065 145.125L115.255 145.125L115.255 144.39L115.427 144.412C115.332 144.577 115.21 144.72 115.06 144.84C114.915 144.96 114.747 145.052 114.557 145.117C114.372 145.182 114.165 145.215 113.935 145.215ZM117.416 146.782C117.316 146.782 117.216 146.772 117.116 146.752C117.021 146.737 116.933 146.712 116.853 146.677L116.853 145.95C116.913 145.965 116.986 145.977 117.071 145.987C117.156 146.002 117.238 146.01 117.318 146.01C117.553 146.01 117.726 145.957 117.836 145.852C117.951 145.752 118.053 145.595 118.143 145.38L118.413 144.765L118.398 145.477L116.643 141.067L117.551 141.067L118.848 144.45L118.541 144.45L119.831 141.067L120.746 141.067L118.953 145.567C118.858 145.807 118.738 146.017 118.593 146.197C118.453 146.382 118.286 146.525 118.091 146.625C117.901 146.73 117.676 146.782 117.416 146.782Z" fill="#212227"/>
<rect x="128.25" y="84.375" width="16.5" height="45.75" rx="2.25" fill="#DEE2F6"/>
<path d="M130.974 145.125L130.974 144.3L131.297 144.3C131.547 144.3 131.747 144.227 131.897 144.082C132.047 143.932 132.122 143.732 132.122 143.482L132.122 139.537L132.999 139.537L132.999 143.452C132.999 143.792 132.929 144.087 132.789 144.337C132.654 144.587 132.457 144.782 132.197 144.922C131.942 145.057 131.642 145.125 131.297 145.125L130.974 145.125ZM135.509 145.215C135.204 145.215 134.937 145.147 134.707 145.012C134.477 144.872 134.297 144.68 134.167 144.435C134.042 144.185 133.979 143.897 133.979 143.572L133.979 141.067L134.827 141.067L134.827 143.497C134.827 143.682 134.864 143.845 134.939 143.985C135.014 144.125 135.119 144.235 135.254 144.315C135.389 144.39 135.544 144.427 135.719 144.427C135.899 144.427 136.057 144.387 136.192 144.307C136.327 144.227 136.432 144.115 136.507 143.97C136.587 143.825 136.627 143.655 136.627 143.46L136.627 141.067L137.467 141.067L137.467 145.125L136.664 145.125L136.664 144.33L136.754 144.435C136.659 144.685 136.502 144.877 136.282 145.012C136.062 145.147 135.804 145.215 135.509 145.215ZM138.456 145.125L138.456 141.067L139.266 141.067L139.266 141.862L139.169 141.757C139.269 141.502 139.429 141.31 139.649 141.18C139.869 141.045 140.124 140.977 140.414 140.977C140.714 140.977 140.979 141.042 141.209 141.172C141.439 141.302 141.619 141.482 141.749 141.712C141.879 141.942 141.944 142.207 141.944 142.507L141.944 145.125L141.104 145.125L141.104 142.732C141.104 142.527 141.066 142.355 140.991 142.215C140.916 142.07 140.809 141.96 140.669 141.885C140.534 141.805 140.379 141.765 140.204 141.765C140.029 141.765 139.871 141.805 139.731 141.885C139.596 141.96 139.491 142.07 139.416 142.215C139.341 142.36 139.304 142.532 139.304 142.732L139.304 145.125L138.456 145.125Z" fill="#212227"/>
<rect x="151.5" y="106.875" width="16.5" height="23.25" rx="2.25" fill="#DEE2F6"/>
<path d="M155.502 145.125L155.502 144.3L155.825 144.3C156.075 144.3 156.275 144.227 156.425 144.082C156.575 143.932 156.65 143.732 156.65 143.482L156.65 139.537L157.527 139.537L157.527 143.452C157.527 143.792 157.457 144.087 157.317 144.337C157.182 144.587 156.985 144.782 156.725 144.922C156.47 145.057 156.17 145.125 155.825 145.125L155.502 145.125ZM160.037 145.215C159.732 145.215 159.465 145.147 159.235 145.012C159.005 144.872 158.825 144.68 158.695 144.435C158.57 144.185 158.507 143.897 158.507 143.572L158.507 141.067L159.355 141.067L159.355 143.497C159.355 143.682 159.392 143.845 159.467 143.985C159.542 144.125 159.647 144.235 159.782 144.315C159.917 144.39 160.072 144.427 160.247 144.427C160.427 144.427 160.585 144.387 160.72 144.307C160.855 144.227 160.96 144.115 161.035 143.97C161.115 143.825 161.155 143.655 161.155 143.46L161.155 141.067L161.995 141.067L161.995 145.125L161.192 145.125L161.192 144.33L161.282 144.435C161.187 144.685 161.03 144.877 160.81 145.012C160.59 145.147 160.332 145.215 160.037 145.215ZM162.984 145.125L162.984 139.447L163.832 139.447L163.832 145.125L162.984 145.125Z" fill="#212227"/>
<rect x="174.75" y="73.5" width="16.5" height="56.625" rx="2.25" fill="#DEE2F6"/>
<path d="M175.868 145.125L177.833 139.537L178.928 139.537L180.893 145.125L179.948 145.125L179.521 143.872L177.248 143.872L176.813 145.125L175.868 145.125ZM177.503 143.085L179.251 143.085L178.261 140.16L178.508 140.16L177.503 143.085ZM182.848 145.215C182.543 145.215 182.275 145.147 182.045 145.012C181.815 144.872 181.635 144.68 181.505 144.435C181.38 144.185 181.318 143.897 181.318 143.572L181.318 141.067L182.165 141.067L182.165 143.497C182.165 143.682 182.203 143.845 182.278 143.985C182.353 144.125 182.458 144.235 182.593 144.315C182.728 144.39 182.883 144.427 183.058 144.427C183.238 144.427 183.395 144.387 183.53 144.307C183.665 144.227 183.77 144.115 183.845 143.97C183.925 143.825 183.965 143.655 183.965 143.46L183.965 141.067L184.805 141.067L184.805 145.125L184.003 145.125L184.003 144.33L184.093 144.435C183.998 144.685 183.84 144.877 183.62 145.012C183.4 145.147 183.143 145.215 182.848 145.215ZM187.752 146.775C187.457 146.775 187.185 146.727 186.935 146.632C186.685 146.537 186.47 146.405 186.29 146.235C186.11 146.07 185.975 145.875 185.885 145.65L186.665 145.327C186.735 145.517 186.862 145.675 187.047 145.8C187.237 145.925 187.47 145.987 187.745 145.987C187.96 145.987 188.152 145.945 188.322 145.86C188.492 145.78 188.627 145.66 188.727 145.5C188.827 145.345 188.877 145.157 188.877 144.937L188.877 144.022L189.027 144.195C188.887 144.455 188.692 144.652 188.442 144.787C188.197 144.922 187.92 144.99 187.61 144.99C187.235 144.99 186.897 144.902 186.597 144.727C186.297 144.552 186.06 144.312 185.885 144.007C185.715 143.702 185.63 143.36 185.63 142.98C185.63 142.595 185.715 142.252 185.885 141.952C186.06 141.652 186.295 141.415 186.59 141.24C186.885 141.065 187.222 140.977 187.602 140.977C187.912 140.977 188.187 141.045 188.427 141.18C188.672 141.31 188.872 141.5 189.027 141.75L188.915 141.96L188.915 141.067L189.717 141.067L189.717 144.937C189.717 145.287 189.632 145.6 189.462 145.875C189.297 146.155 189.067 146.375 188.772 146.535C188.477 146.695 188.137 146.775 187.752 146.775ZM187.707 144.202C187.932 144.202 188.132 144.15 188.307 144.045C188.482 143.935 188.62 143.79 188.72 143.61C188.825 143.425 188.877 143.217 188.877 142.987C188.877 142.757 188.825 142.55 188.72 142.365C188.615 142.18 188.475 142.035 188.3 141.93C188.125 141.82 187.927 141.765 187.707 141.765C187.477 141.765 187.272 141.82 187.092 141.93C186.912 142.035 186.77 142.18 186.665 142.365C186.565 142.545 186.515 142.752 186.515 142.987C186.515 143.212 186.565 143.417 186.665 143.602C186.77 143.787 186.912 143.935 187.092 144.045C187.272 144.15 187.477 144.202 187.707 144.202Z" fill="#212227"/>
</svg>
