<svg xmlns="http://www.w3.org/2000/svg" viewBox="0 0 500 500"><g id="freepik--background-complete--inject-2"><rect x="300.06" y="289.89" width="88.24" height="122.11" style="fill:#ebebeb"></rect><rect x="295.79" y="285.35" width="96.79" height="4.53" style="fill:#dbdbdb"></rect><rect x="392.58" y="285.35" width="30.44" height="4.53" style="fill:#ebebeb"></rect><rect x="388.3" y="289.89" width="29.9" height="122.11" style="fill:#dbdbdb"></rect><path d="M378.82,346.42H309.55V307.25h69.27Zm-69-.25h68.77V307.5H309.8Z" style="fill:#c7c7c7"></path><rect x="334.52" y="318.71" width="13.48" height="7.75" style="fill:#c7c7c7"></rect><path d="M352.11,326H338.38v-6.83h13.73Zm-13.48-.25h13.23v-6.33H338.63Z" style="fill:#c7c7c7"></path><path d="M378.82,395.58H309.55V356.42h69.27Zm-69-.25h68.77V356.67H309.8Z" style="fill:#c7c7c7"></path><rect x="334.52" y="367.87" width="13.48" height="7.75" style="fill:#c7c7c7"></rect><path d="M352.11,375.16H338.38v-6.83h13.73Zm-13.48-.25h13.23v-6.33H338.63Z" style="fill:#c7c7c7"></path><circle cx="429.66" cy="94.31" r="28.15" transform="translate(-10.19 100) rotate(-13.12)" style="fill:#ebebeb"></circle><circle cx="430.95" cy="94.93" r="26.86" transform="translate(59.09 332.53) rotate(-45)" style="fill:#dbdbdb"></circle><circle cx="430.95" cy="94.93" r="25.17" transform="translate(13.72 238.63) rotate(-31.43)" style="fill:#fff"></circle><path d="M455.55,89.59c-11.46,7-30.3,18.34-40.83,24.58a25.25,25.25,0,0,1-6.88-9.25l34.82-32.26A25.17,25.17,0,0,1,455.55,89.59Z" style="fill:#ebebeb;opacity:0.5"></path><path d="M456.1,95.81a24.94,24.94,0,0,1-1.67,8.18l-31.38,14.84a24.08,24.08,0,0,1-4-1.7C428.56,111.65,445.89,101.68,456.1,95.81Z" style="fill:#ebebeb;opacity:0.5"></path><rect x="430.71" y="71.59" width="0.49" height="3.81" style="fill:#c7c7c7"></rect><rect x="419.99" y="74.46" width="0.49" height="3.81" transform="translate(18.11 220.33) rotate(-30)" style="fill:#c7c7c7"></rect><rect x="412.14" y="82.31" width="0.49" height="3.81" transform="translate(133.24 399.23) rotate(-60)" style="fill:#c7c7c7"></rect><rect x="407.61" y="94.69" width="3.81" height="0.49" style="fill:#c7c7c7"></rect><rect x="410.48" y="105.41" width="3.81" height="0.49" transform="translate(2.44 220.4) rotate(-30.01)" style="fill:#c7c7c7"></rect><rect x="418.33" y="113.25" width="3.81" height="0.49" transform="matrix(0.5, -0.87, 0.87, 0.5, 112.03, 420.88)" style="fill:#c7c7c7"></rect><rect x="430.71" y="114.46" width="0.49" height="3.81" style="fill:#c7c7c7"></rect><rect x="441.42" y="111.59" width="0.49" height="3.81" transform="translate(2.42 236.04) rotate(-30)" style="fill:#c7c7c7"></rect><rect x="449.27" y="103.74" width="0.49" height="3.81" transform="translate(133.23 442.08) rotate(-59.99)" style="fill:#c7c7c7"></rect><rect x="450.47" y="94.69" width="3.81" height="0.49" style="fill:#c7c7c7"></rect><rect x="447.6" y="83.97" width="3.81" height="0.49" transform="translate(18.15 236.14) rotate(-30.01)" style="fill:#c7c7c7"></rect><rect x="439.76" y="76.13" width="3.81" height="0.49" transform="translate(154.86 420.82) rotate(-60.03)" style="fill:#c7c7c7"></rect><polygon points="431.31 73.32 432.14 96.63 429.75 96.6 430.67 73.31 431.31 73.32" style="fill:#c7c7c7"></polygon><polygon points="445.83 86.8 430.15 96.81 429.01 94.72 445.52 86.23 445.83 86.8" style="fill:#a6a6a6"></polygon><path d="M431.76,94.93a.82.82,0,0,1-.81.82.82.82,0,0,1-.82-.82.82.82,0,0,1,.82-.81A.81.81,0,0,1,431.76,94.93Z" style="fill:#c7c7c7"></path><rect x="142.91" y="273.45" width="6.81" height="48.43" style="fill:#ebebeb"></rect><rect x="154.61" y="285.17" width="6.81" height="36.7" style="fill:#ebebeb"></rect><rect x="166.31" y="303.52" width="6.81" height="18.35" style="fill:#ebebeb"></rect><rect x="178" y="293.04" width="6.81" height="28.83" style="fill:#ebebeb"></rect><rect x="189.7" y="282.03" width="6.81" height="39.84" style="fill:#ebebeb"></rect><rect x="201.4" y="275.56" width="6.81" height="46.32" style="fill:#ebebeb"></rect><path d="M139,267.29l.08,13.64,0,13.65,0,27.29-.17-.17q9.38,0,18.76,0l18.76,0,18.77,0,18.76.1-18.76.1-18.77,0-18.76,0q-9.37,0-18.76,0h-.17v-.17l0-27.29,0-13.65Z" style="fill:#ebebeb"></path><path d="M137.47,270a6,6,0,0,1,3,0,5.72,5.72,0,0,1-3,0Z" style="fill:#ebebeb"></path><path d="M137.47,274.17a6,6,0,0,1,3,0,5.16,5.16,0,0,1-1.5.2A5.53,5.53,0,0,1,137.47,274.17Z" style="fill:#ebebeb"></path><path d="M137.47,278.32a6,6,0,0,1,3,0,6,6,0,0,1-3,0Z" style="fill:#ebebeb"></path><path d="M137.47,282.47a6,6,0,0,1,3,0,6,6,0,0,1-3,0Z" style="fill:#ebebeb"></path><path d="M137.47,286.62a5.73,5.73,0,0,1,3,0,5.15,5.15,0,0,1-1.5.19A5.51,5.51,0,0,1,137.47,286.62Z" style="fill:#ebebeb"></path><path d="M137.47,290.77a5.73,5.73,0,0,1,3,0,6,6,0,0,1-3,0Z" style="fill:#ebebeb"></path><path d="M137.47,294.91a6,6,0,0,1,3,0,5.73,5.73,0,0,1-3,0Z" style="fill:#ebebeb"></path><path d="M137.47,299.06a6,6,0,0,1,3,0,5.16,5.16,0,0,1-1.5.2A5.53,5.53,0,0,1,137.47,299.06Z" style="fill:#ebebeb"></path><path d="M137.47,303.21a6,6,0,0,1,3,0,6,6,0,0,1-3,0Z" style="fill:#ebebeb"></path><path d="M137.47,307.36a6,6,0,0,1,3,0,6,6,0,0,1-3,0Z" style="fill:#ebebeb"></path><path d="M137.47,311.51a5.53,5.53,0,0,1,1.5-.2,5.16,5.16,0,0,1,1.5.2,6,6,0,0,1-3,0Z" style="fill:#ebebeb"></path><path d="M137.47,315.66a5.73,5.73,0,0,1,3,0,6,6,0,0,1-3,0Z" style="fill:#ebebeb"></path><path d="M100.09,107.31a2.15,2.15,0,0,1,0-2.25l.33-.58.3-.59a2.14,2.14,0,0,1,1.86-1.26l2.77-.08-.28-9-2.77.08a2.15,2.15,0,0,1-1.95-1.13c-.21-.39-.45-.77-.7-1.14a2.16,2.16,0,0,1-.15-2.24l1.31-2.43-8-4.27-1.31,2.43A2.13,2.13,0,0,1,89.63,86a12.18,12.18,0,0,0-1.35,0,2.15,2.15,0,0,1-2-1L84.8,82.65l-7.66,4.76,1.46,2.36a2.15,2.15,0,0,1,0,2.24,6.65,6.65,0,0,0-.33.58c-.11.2-.21.39-.3.59a2.14,2.14,0,0,1-1.87,1.26l-2.77.08.28,9,2.76-.09a2.17,2.17,0,0,1,2,1.13,10.45,10.45,0,0,0,.71,1.15,2.15,2.15,0,0,1,.14,2.24l-1.3,2.43,8,4.27,1.31-2.43a2.11,2.11,0,0,1,1.94-1.12,12.18,12.18,0,0,0,1.35-.05,2.17,2.17,0,0,1,2,1l1.45,2.35,7.67-4.76Zm-14.24-2.26a7.39,7.39,0,1,1,10-3A7.4,7.4,0,0,1,85.85,105.05Z" style="fill:#ebebeb"></path><path d="M72.85,69.09a1.48,1.48,0,0,1-.74-1.39c0-.16,0-.31,0-.47s0-.31,0-.47a1.51,1.51,0,0,1,.73-1.39l1.68-1-3.15-5.47-1.68,1a1.52,1.52,0,0,1-1.58-.06,8.13,8.13,0,0,0-.81-.47A1.5,1.5,0,0,1,66.47,58V56.1H60.14V58a1.5,1.5,0,0,1-.83,1.33,8.13,8.13,0,0,0-.81.47,1.52,1.52,0,0,1-1.58.06l-1.68-1L52.08,64.4l1.69,1a1.49,1.49,0,0,1,.73,1.39c0,.15,0,.31,0,.46s0,.31,0,.47a1.49,1.49,0,0,1-.73,1.39l-1.69,1,3.16,5.48,1.68-1a1.48,1.48,0,0,1,1.57.05c.27.17.54.33.82.47a1.5,1.5,0,0,1,.83,1.34v1.93h6.33V76.43a1.5,1.5,0,0,1,.83-1.34c.28-.14.55-.3.82-.47a1.48,1.48,0,0,1,1.57-.05l1.68,1,3.15-5.48Zm-9.54,3.32a5.18,5.18,0,1,1,5.17-5.18A5.18,5.18,0,0,1,63.31,72.41Z" style="fill:#ebebeb"></path><path d="M457.28,189.81a1.53,1.53,0,0,1-.74-1.4c0-.15,0-.31,0-.46s0-.32,0-.47a1.48,1.48,0,0,1,.74-1.39l1.68-1-3.16-5.48-1.68,1a1.5,1.5,0,0,1-1.58-.05,8.13,8.13,0,0,0-.81-.47,1.5,1.5,0,0,1-.83-1.34v-1.93h-6.32v1.93a1.52,1.52,0,0,1-.83,1.34,8.28,8.28,0,0,0-.82.47,1.48,1.48,0,0,1-1.57.05l-1.68-1-3.16,5.48,1.68,1a1.54,1.54,0,0,1,.74,1.39c0,.16,0,.31,0,.47s0,.31,0,.46a1.55,1.55,0,0,1-.74,1.4l-1.68,1,3.16,5.47,1.67-1a1.5,1.5,0,0,1,1.58.06c.26.17.53.32.81.47a1.51,1.51,0,0,1,.84,1.33v1.94h6.32v-1.94a1.5,1.5,0,0,1,.83-1.33c.28-.15.55-.3.82-.47a1.48,1.48,0,0,1,1.57-.06l1.68,1,3.16-5.47Zm-9.54,3.32a5.18,5.18,0,1,1,5.17-5.18A5.18,5.18,0,0,1,447.74,193.13Z" style="fill:#ebebeb"></path></g><g id="freepik--Shadow--inject-2"><ellipse cx="250" cy="447.18" rx="203" ry="23.07" style="fill:#ebebeb"></ellipse></g><g id="freepik--Floor--inject-2"><polygon points="36.47 412.48 89.85 412.24 143.23 412.15 250 411.98 356.77 412.15 410.15 412.23 463.53 412.48 410.15 412.72 356.77 412.81 250 412.98 143.23 412.81 89.85 412.72 36.47 412.48" style="fill:#263238"></polygon></g><g id="freepik--Board--inject-2"><polygon points="178.3 435.72 171.59 435.72 218.59 247.41 235.3 247.41 178.3 435.72" style="fill:#455a64"></polygon><polygon points="235.3 247.42 226.87 275.26 211.64 275.26 218.58 247.44 218.59 247.42 235.3 247.42" style="fill:#263238"></polygon><polygon points="243.35 425.72 236.65 425.72 241.65 247.41 258.35 247.41 243.35 425.72" style="fill:#455a64"></polygon><polygon points="258.35 247.42 256.01 275.26 240.87 275.26 241.65 247.44 241.65 247.42 258.35 247.42" style="fill:#263238"></polygon><polygon points="308.7 435.72 315.41 435.72 278.41 247.41 261.7 247.41 308.7 435.72" style="fill:#455a64"></polygon><polygon points="283.88 275.26 268.65 275.26 261.7 247.42 278.41 247.42 278.42 247.44 283.88 275.26" style="fill:#263238"></polygon><rect x="197.43" y="355.05" width="97.52" height="3.68" style="fill:#455a64"></rect><rect x="117.17" y="63.05" width="265.65" height="196.02" style="fill:#ebebeb"></rect><rect x="107.45" y="55.24" width="285.11" height="14.53" style="fill:#37474f"></rect><rect x="125.79" y="79.18" width="28.77" height="34.09" style="fill:#fff"></rect><path d="M141.21,81.5a1,1,0,0,1-2.07,0,1,1,0,1,1,2.07,0Z" style="fill:#455a64"></path><path d="M131.27,86c2.9-.23,5.81-.24,8.72-.27s5.82,0,8.73.27c-2.91.22-5.82.24-8.73.27S134.17,86.23,131.27,86Z" style="fill:#ebebeb"></path><path d="M131.27,88.7a41.74,41.74,0,0,1,9.48,0,41.74,41.74,0,0,1-9.48,0Z" style="fill:#ebebeb"></path><path d="M131.27,91.39c2-.21,4-.26,6.06-.27s4,.06,6.06.27a55.85,55.85,0,0,1-6.06.27A58.5,58.5,0,0,1,131.27,91.39Z" style="fill:#ebebeb"></path><path d="M131.27,94.09c2.52-.21,5-.26,7.58-.27s5.06.06,7.58.27c-2.52.21-5.05.26-7.58.27S133.79,94.3,131.27,94.09Z" style="fill:#ebebeb"></path><path d="M131.27,96.78c2.19-.21,4.39-.26,6.58-.27s4.4.06,6.59.27c-2.19.21-4.39.26-6.59.27S133.46,97,131.27,96.78Z" style="fill:#ebebeb"></path><path d="M131.27,99.48c2.81-.23,5.62-.24,8.43-.27s5.62,0,8.43.27c-2.81.22-5.62.24-8.43.27S134.08,99.7,131.27,99.48Z" style="fill:#ebebeb"></path><path d="M131.27,102.17a55,55,0,0,1,10.89,0,55,55,0,0,1-10.89,0Z" style="fill:#ebebeb"></path><path d="M131.27,104.86c2.9-.22,5.81-.23,8.72-.27s5.82,0,8.73.27c-2.91.23-5.82.24-8.73.28S134.17,105.09,131.27,104.86Z" style="fill:#ebebeb"></path><path d="M131.27,107.56c2.9-.22,5.81-.24,8.72-.27s5.82,0,8.73.27c-2.91.22-5.82.24-8.73.27S134.17,107.78,131.27,107.56Z" style="fill:#ebebeb"></path><rect x="347.29" y="167.61" width="26.79" height="31.74" style="fill:#fff"></rect><path d="M361.5,171.89a.82.82,0,0,1-.82.81.81.81,0,0,1,0-1.62A.82.82,0,0,1,361.5,171.89Z" style="fill:#455a64"></path><path d="M351,175.53a20.16,20.16,0,0,1,5.94,0,21.11,21.11,0,0,1-5.94,0Z" style="fill:#ebebeb"></path><path d="M351,177.92a35.31,35.31,0,0,1,7.69,0,35.31,35.31,0,0,1-7.69,0Z" style="fill:#ebebeb"></path><path d="M351,180.31a30.28,30.28,0,0,1,7.12,0,28.91,28.91,0,0,1-7.12,0Z" style="fill:#ebebeb"></path><path d="M351,182.71a28.91,28.91,0,0,1,7.12,0,30.28,30.28,0,0,1-7.12,0Z" style="fill:#ebebeb"></path><path d="M351,185.1a21.39,21.39,0,0,1,3.09-.21,20.27,20.27,0,0,1,3.1.21,19.08,19.08,0,0,1-3.1.21A18.88,18.88,0,0,1,351,185.1Z" style="fill:#ebebeb"></path><path d="M351,187.49a37.44,37.44,0,0,1,7.92,0,35.75,35.75,0,0,1-7.92,0Z" style="fill:#ebebeb"></path><path d="M351,189.89a24.41,24.41,0,0,1,6.54,0,25.56,25.56,0,0,1-6.54,0Z" style="fill:#ebebeb"></path><path d="M351,192.28a37.4,37.4,0,0,1,4.1-.21,35.3,35.3,0,0,1,4.1.21,40.13,40.13,0,0,1-8.2,0Z" style="fill:#ebebeb"></path><path d="M351,194.67a40.13,40.13,0,0,1,8.2,0,38.31,38.31,0,0,1-8.2,0Z" style="fill:#ebebeb"></path><path d="M362.74,175.53a34.59,34.59,0,0,1,7.79,0,36.23,36.23,0,0,1-7.79,0Z" style="fill:#ebebeb"></path><path d="M362.74,177.92a15.71,15.71,0,0,1,5.12,0,15.71,15.71,0,0,1-5.12,0Z" style="fill:#ebebeb"></path><path d="M362.74,180.31a32.09,32.09,0,0,1,7.33,0,30.64,30.64,0,0,1-7.33,0Z" style="fill:#ebebeb"></path><path d="M362.74,182.71a29,29,0,0,1,7.13,0,30.37,30.37,0,0,1-7.13,0Z" style="fill:#ebebeb"></path><path d="M362.74,185.1a33.92,33.92,0,0,1,3.89-.21,31.86,31.86,0,0,1,3.9.21,36.23,36.23,0,0,1-7.79,0Z" style="fill:#ebebeb"></path><path d="M362.74,187.49a22.91,22.91,0,0,1,6.19,0,21.88,21.88,0,0,1-6.19,0Z" style="fill:#ebebeb"></path><path d="M362.74,189.89a30.64,30.64,0,0,1,7.33,0,32.09,32.09,0,0,1-7.33,0Z" style="fill:#ebebeb"></path><path d="M362.74,192.28a18.06,18.06,0,0,1,2.83-.21,17,17,0,0,1,2.84.21,19.24,19.24,0,0,1-5.67,0Z" style="fill:#ebebeb"></path><path d="M362.74,194.67a17.72,17.72,0,0,1,5.44,0,16.92,16.92,0,0,1-5.44,0Z" style="fill:#ebebeb"></path><rect x="133.5" y="111.67" width="17.31" height="17.31" style="fill:#000000"></rect><path d="M143.19,113.42a1,1,0,1,1-1-1A1,1,0,0,1,143.19,113.42Z" style="fill:#455a64"></path><polygon points="157.23 178.76 203.45 178.65 249.66 178.76 203.45 178.88 157.23 178.76" style="fill:#c7c7c7"></polygon><polygon points="157.23 182.53 203.45 182.42 249.66 182.53 203.45 182.65 157.23 182.53" style="fill:#c7c7c7"></polygon><polygon points="157.23 186.3 203.45 186.19 249.66 186.3 203.45 186.42 157.23 186.3" style="fill:#c7c7c7"></polygon><polygon points="157.23 190.07 203.45 189.96 249.66 190.07 203.45 190.19 157.23 190.07" style="fill:#c7c7c7"></polygon><polygon points="157.23 193.84 203.45 193.72 249.66 193.84 203.45 193.96 157.23 193.84" style="fill:#c7c7c7"></polygon><polygon points="157.23 197.61 203.45 197.49 249.66 197.61 203.45 197.73 157.23 197.61" style="fill:#c7c7c7"></polygon><polygon points="157.23 201.38 203.45 201.26 249.66 201.38 203.45 201.5 157.23 201.38" style="fill:#c7c7c7"></polygon><polygon points="157.23 205.15 203.45 205.03 249.66 205.15 203.45 205.27 157.23 205.15" style="fill:#c7c7c7"></polygon><polygon points="157.23 208.92 203.45 208.8 249.66 208.92 203.45 209.04 157.23 208.92" style="fill:#c7c7c7"></polygon><polygon points="157.23 212.69 203.45 212.57 249.66 212.69 203.45 212.81 157.23 212.69" style="fill:#c7c7c7"></polygon><polygon points="157.23 216.46 203.45 216.34 249.66 216.46 203.45 216.57 157.23 216.46" style="fill:#c7c7c7"></polygon><polygon points="157.23 220.23 203.45 220.11 249.66 220.23 203.45 220.34 157.23 220.23" style="fill:#c7c7c7"></polygon><polygon points="157.23 224 203.45 223.88 249.66 224 203.45 224.11 157.23 224" style="fill:#c7c7c7"></polygon><polygon points="157.23 227.77 203.45 227.65 249.66 227.77 203.45 227.88 157.23 227.77" style="fill:#c7c7c7"></polygon><polygon points="157.23 231.53 203.45 231.42 249.66 231.53 203.45 231.65 157.23 231.53" style="fill:#c7c7c7"></polygon><rect x="167" y="220.11" width="7.01" height="15.82" style="fill:#000000"></rect><rect x="180.01" y="211.67" width="7.01" height="24.26" style="fill:#000000"></rect><rect x="193.01" y="202.23" width="7.01" height="33.7" style="fill:#000000"></rect><rect x="206.01" y="198.17" width="7.01" height="37.76" style="fill:#000000"></rect><rect x="219.02" y="190.94" width="7.01" height="44.99" style="fill:#000000"></rect><rect x="232.02" y="183.79" width="7.01" height="52.14" style="fill:#000000"></rect><path d="M159.73,176.12l.19,14.95.12,15c.09,10,.11,19.94.13,29.91l-.43-.43,22.48,0,22.48.05,22.48.14,22.48.26-22.48.26-22.48.14-22.48,0-22.48,0h-.44v-.43c0-10,0-19.94.13-29.91l.12-15Z" style="fill:#c7c7c7"></path><rect x="167" y="239.09" width="7.01" height="0.63" style="fill:#c7c7c7"></rect><rect x="180.01" y="239.09" width="7.01" height="0.63" style="fill:#c7c7c7"></rect><rect x="193.01" y="239.09" width="7.01" height="0.63" style="fill:#c7c7c7"></rect><rect x="206.01" y="239.09" width="7.01" height="0.63" style="fill:#c7c7c7"></rect><rect x="219.02" y="239.09" width="7.01" height="0.63" style="fill:#c7c7c7"></rect><rect x="232.02" y="239.09" width="7.01" height="0.63" style="fill:#c7c7c7"></rect><path d="M167.79,222.11a85.44,85.44,0,0,0,10.24-.78,101.56,101.56,0,0,0,10.09-1.82,87.29,87.29,0,0,0,19.26-6.78,69.19,69.19,0,0,0,16.83-11.46l.94-.86.9-.91,1.79-1.83c1.1-1.3,2.29-2.53,3.29-3.91a71.92,71.92,0,0,0,5.74-8.5l.06,0a61.41,61.41,0,0,1-12.18,16.55,59.94,59.94,0,0,1-8,6.54,68.08,68.08,0,0,1-8.92,5.24,83.36,83.36,0,0,1-19.53,6.63A84.6,84.6,0,0,1,167.79,222.11Z" style="fill:#263238"></path><polygon points="238.86 190.13 237.89 190.38 236.69 185.59 232.01 187.13 231.7 186.18 237.4 184.31 238.86 190.13" style="fill:#263238"></polygon><path d="M208,142.69a42.91,42.91,0,0,0-10.41,1.37,38.41,38.41,0,0,0-9.72,3.87,24.81,24.81,0,0,0-7.78,6.8,20.26,20.26,0,0,0-3.75,9.55,17.56,17.56,0,0,0,1.47,10,19.31,19.31,0,0,0,6.82,7.56,32.11,32.11,0,0,0,9.46,4.18,45.21,45.21,0,0,0,10.28,1.53c6.93.22,14-.81,20.25-3.92a22.6,22.6,0,0,0,8-6.44,16.51,16.51,0,0,0,3.29-9.57A16.68,16.68,0,0,0,232.9,158a25.79,25.79,0,0,0-7.44-7.2,33.53,33.53,0,0,0-19.92-5.47,33.73,33.73,0,0,1,20.19,5.05,26.35,26.35,0,0,1,7.69,7.26,17.31,17.31,0,0,1,3.2,10.09,16.94,16.94,0,0,1-3.36,10.06,23.42,23.42,0,0,1-8.25,6.74c-6.39,3.23-13.63,4.3-20.69,4.11a46.16,46.16,0,0,1-10.51-1.6,33.28,33.28,0,0,1-9.71-4.36,20.27,20.27,0,0,1-7.09-7.94,18,18,0,0,1-1.43-10.51,21,21,0,0,1,4-9.82,25.14,25.14,0,0,1,8.05-6.85,38.53,38.53,0,0,1,9.89-3.68A43.42,43.42,0,0,1,208,142.69Z" style="fill:#455a64"></path><rect x="206.43" y="82.97" width="87.14" height="2.27" style="fill:#c7c7c7"></rect><rect x="221.33" y="87.71" width="57.34" height="2.27" style="fill:#c7c7c7"></rect><rect x="179.87" y="161.44" width="47.14" height="2.27" style="fill:#c7c7c7"></rect><rect x="194.77" y="166.18" width="17.34" height="2.27" style="fill:#c7c7c7"></rect><polygon points="270.06 152.95 280.67 152.85 291.27 152.81 312.49 152.74 333.7 152.81 344.31 152.85 354.92 152.95 344.31 153.05 333.7 153.09 312.49 153.16 291.27 153.09 280.67 153.05 270.06 152.95" style="fill:#c7c7c7"></polygon><polygon points="270.06 147.08 280.67 146.98 291.27 146.94 312.49 146.87 333.7 146.94 344.31 146.98 354.92 147.08 344.31 147.19 333.7 147.22 312.49 147.29 291.27 147.22 280.67 147.19 270.06 147.08" style="fill:#c7c7c7"></polygon><polygon points="270.06 141.22 280.67 141.11 291.27 141.07 312.49 141 333.7 141.07 344.31 141.11 354.92 141.22 344.31 141.32 333.7 141.35 312.49 141.43 291.27 141.35 280.67 141.32 270.06 141.22" style="fill:#c7c7c7"></polygon><polygon points="270.06 135.35 280.67 135.25 291.27 135.21 312.49 135.14 333.7 135.21 344.31 135.24 354.92 135.35 344.31 135.45 333.7 135.49 312.49 135.56 291.27 135.49 280.67 135.45 270.06 135.35" style="fill:#c7c7c7"></polygon><polygon points="270.06 129.48 280.67 129.38 291.27 129.34 312.49 129.27 333.7 129.34 344.31 129.38 354.92 129.48 344.31 129.58 333.7 129.62 312.49 129.69 291.27 129.62 280.67 129.58 270.06 129.48" style="fill:#c7c7c7"></polygon><polygon points="270.06 123.61 280.67 123.51 291.27 123.47 312.49 123.4 333.7 123.47 344.31 123.51 354.92 123.61 344.31 123.72 333.7 123.75 312.49 123.82 291.27 123.75 280.67 123.72 270.06 123.61" style="fill:#c7c7c7"></polygon><polygon points="270.06 117.74 280.67 117.64 291.27 117.6 312.49 117.53 333.7 117.6 344.31 117.64 354.92 117.74 344.31 117.85 333.7 117.89 312.49 117.95 291.27 117.88 280.67 117.85 270.06 117.74" style="fill:#c7c7c7"></polygon><polygon points="270.06 111.88 280.67 111.77 291.27 111.74 312.49 111.67 333.7 111.74 344.31 111.77 354.92 111.88 344.31 111.98 333.7 112.02 312.49 112.09 291.27 112.02 280.67 111.98 270.06 111.88" style="fill:#c7c7c7"></polygon><polygon points="270.06 106.01 280.67 105.91 291.27 105.87 312.49 105.8 333.7 105.87 344.31 105.91 354.92 106.01 344.31 106.11 333.7 106.15 312.49 106.22 291.27 106.15 280.67 106.11 270.06 106.01" style="fill:#c7c7c7"></polygon><polygon points="273.17 150.72 272.99 149.9 283.95 147.4 294.54 137.02 298.77 139.84 307.18 131.45 311.8 134.22 314.82 131.69 323.18 140.51 334.18 127.28 343.36 137.05 353.86 132.25 354.21 133.01 343.16 138.07 334.22 128.56 323.22 141.78 314.75 132.85 311.88 135.25 307.31 132.51 298.88 140.93 294.64 138.1 284.38 148.17 273.17 150.72" style="fill:#455a64"></polygon><path d="M285.29,147.69a1.11,1.11,0,1,1-1.11-1.11A1.11,1.11,0,0,1,285.29,147.69Z" style="fill:#455a64"></path><circle cx="294.48" cy="137.65" r="1.11" style="fill:#455a64"></circle><path d="M308.44,132.07a1.11,1.11,0,1,1-1.11-1.12A1.11,1.11,0,0,1,308.44,132.07Z" style="fill:#455a64"></path><path d="M313,134.78a1.11,1.11,0,1,1-1.11-1.11A1.11,1.11,0,0,1,313,134.78Z" style="fill:#455a64"></path><path d="M315.91,132.35a1.11,1.11,0,1,1-1.11-1.11A1.11,1.11,0,0,1,315.91,132.35Z" style="fill:#455a64"></path><path d="M335.21,127.92a1.11,1.11,0,1,1-1.11-1.11A1.11,1.11,0,0,1,335.21,127.92Z" style="fill:#455a64"></path><circle cx="343.42" cy="137.4" r="1.11" style="fill:#455a64"></circle><path d="M355.15,132.78a1.11,1.11,0,1,1-1.11-1.11A1.12,1.12,0,0,1,355.15,132.78Z" style="fill:#455a64"></path><path d="M324.28,141.05a1.11,1.11,0,1,1-1.11-1.11A1.11,1.11,0,0,1,324.28,141.05Z" style="fill:#455a64"></path><polygon points="273.17 150.72 272.99 149.71 284.58 137.03 289.33 139.54 301.89 126.77 305.36 129.62 311.28 124.52 322.56 132.64 325.07 129.78 331.47 135.68 340.84 127.36 346.88 132.53 353.93 130.63 354.15 131.44 346.67 133.46 340.85 128.48 331.46 136.82 325.14 130.99 322.69 133.78 311.32 125.6 305.38 130.72 301.95 127.91 289.49 140.57 284.76 138.09 273.17 150.72" style="fill:#263238"></polygon><path d="M285.69,137.77a1.11,1.11,0,1,1-1.11-1.11A1.11,1.11,0,0,1,285.69,137.77Z" style="fill:#263238"></path><path d="M290.46,140a1.11,1.11,0,1,1-1.11-1.11A1.12,1.12,0,0,1,290.46,140Z" style="fill:#263238"></path><path d="M302.88,127.42a1.11,1.11,0,1,1-1.11-1.11A1.11,1.11,0,0,1,302.88,127.42Z" style="fill:#263238"></path><path d="M306.62,130.13A1.12,1.12,0,1,1,305.5,129,1.12,1.12,0,0,1,306.62,130.13Z" style="fill:#263238"></path><path d="M312.42,125.06a1.11,1.11,0,1,1-1.11-1.11A1.11,1.11,0,0,1,312.42,125.06Z" style="fill:#263238"></path><path d="M323.67,133.18a1.12,1.12,0,1,1-1.12-1.11A1.12,1.12,0,0,1,323.67,133.18Z" style="fill:#263238"></path><path d="M326.08,130.42a1.11,1.11,0,1,1-1.11-1.11A1.11,1.11,0,0,1,326.08,130.42Z" style="fill:#263238"></path><path d="M332.44,136.29a1.11,1.11,0,1,1-1.11-1.11A1.11,1.11,0,0,1,332.44,136.29Z" style="fill:#263238"></path><path d="M342,128.2a1.11,1.11,0,1,1-1.11-1.11A1.11,1.11,0,0,1,342,128.2Z" style="fill:#263238"></path><path d="M347.94,133a1.11,1.11,0,1,1-1.11-1.11A1.12,1.12,0,0,1,347.94,133Z" style="fill:#263238"></path><circle cx="354.04" cy="130.95" r="1.11" style="fill:#263238"></circle><polygon points="273.07 150.63 272.99 149.71 287.45 141.4 295.11 144.85 299.31 143.44 303.7 146.15 312.8 139.46 316.46 142.42 320.3 141.27 326.6 144.83 336.55 140.08 342.83 144.78 353.79 136.9 354.29 137.58 342.82 145.83 336.45 141.06 326.56 145.78 320.2 142.18 316.28 143.36 312.78 140.52 303.74 147.16 299.21 144.37 295.07 145.76 287.49 142.35 273.07 150.63" style="fill:#000000"></polygon><path d="M288.58,141.87a1.11,1.11,0,1,1-1.11-1.11A1.11,1.11,0,0,1,288.58,141.87Z" style="fill:#000000"></path><path d="M296.2,145.27a1.11,1.11,0,1,1-1.11-1.12A1.11,1.11,0,0,1,296.2,145.27Z" style="fill:#000000"></path><path d="M300.38,144.1a1.11,1.11,0,1,1-1.11-1.11A1.11,1.11,0,0,1,300.38,144.1Z" style="fill:#000000"></path><path d="M304.89,146.58a1.11,1.11,0,0,1-2.22,0,1.11,1.11,0,1,1,2.22,0Z" style="fill:#000000"></path><path d="M317.43,142.73a1.11,1.11,0,1,1-1.11-1.11A1.11,1.11,0,0,1,317.43,142.73Z" style="fill:#000000"></path><path d="M327.64,145.21a1.11,1.11,0,1,1-1.11-1.11A1.11,1.11,0,0,1,327.64,145.21Z" style="fill:#000000"></path><circle cx="342.99" cy="145.21" r="1.11" style="fill:#000000"></circle><path d="M313.83,139.94a1.11,1.11,0,0,1-2.22,0,1.11,1.11,0,1,1,2.22,0Z" style="fill:#000000"></path><path d="M321.44,141.87a1.11,1.11,0,1,1-1.11-1.11A1.12,1.12,0,0,1,321.44,141.87Z" style="fill:#000000"></path><path d="M337.52,140.51a1.12,1.12,0,1,1-1.11-1.12A1.11,1.11,0,0,1,337.52,140.51Z" style="fill:#000000"></path><path d="M355.15,137.24a1.11,1.11,0,1,1-1.11-1.11A1.11,1.11,0,0,1,355.15,137.24Z" style="fill:#000000"></path><polygon points="273.03 103.26 273.12 117.11 273.16 130.95 273.21 158.65 273.03 158.47 293.23 158.45 313.42 158.5 333.61 158.54 353.81 158.65 333.61 158.76 313.42 158.8 293.23 158.85 273.03 158.83 272.85 158.83 272.85 158.65 272.9 130.95 272.95 117.11 273.03 103.26" style="fill:#c7c7c7"></polygon><circle cx="292.92" cy="204.27" r="22.86" transform="translate(28.86 444.68) rotate(-77.21)" style="fill:#455a64"></circle><path d="M292.92,204.27l-8.16,21.35a22.86,22.86,0,1,1,31-21.35Z" style="fill:#dbdbdb"></path><path d="M292.92,204.27l18.36,13.61a22.85,22.85,0,1,1,4.5-13.61Z" style="fill:#dbdbdb"></path><path d="M292.92,204.27l-20.29,10.52a22.86,22.86,0,1,1,43.15-10.52Z" style="fill:#000000"></path><polygon points="302.2 194.28 301.85 193.93 312.81 182.98 326.73 182.98 326.73 183.47 313.01 183.47 302.2 194.28" style="fill:#c7c7c7"></polygon><rect x="305.41" y="207.77" width="21.32" height="0.49" style="fill:#c7c7c7"></rect><polygon points="326.73 231.85 312.25 231.85 312.18 231.76 301.84 219.09 302.22 218.78 312.49 231.36 326.73 231.36 326.73 231.85" style="fill:#c7c7c7"></polygon><path d="M327.79,183.22a1.06,1.06,0,1,1-1.06-1.06A1.06,1.06,0,0,1,327.79,183.22Z" style="fill:#c7c7c7"></path><path d="M327.79,208a1.06,1.06,0,1,1-1.06-1.06A1.07,1.07,0,0,1,327.79,208Z" style="fill:#c7c7c7"></path><path d="M327.79,231.6a1.06,1.06,0,1,1-1.06-1A1.06,1.06,0,0,1,327.79,231.6Z" style="fill:#c7c7c7"></path><rect x="330.74" y="182.98" width="9.52" height="0.49" style="fill:#c7c7c7"></rect><rect x="330.74" y="184.55" width="13.3" height="0.49" style="fill:#c7c7c7"></rect><rect x="330.74" y="186.13" width="11.44" height="0.49" style="fill:#c7c7c7"></rect><rect x="330.74" y="187.7" width="14.55" height="0.49" style="fill:#c7c7c7"></rect><rect x="330.74" y="189.28" width="12.61" height="0.49" style="fill:#c7c7c7"></rect><rect x="330.74" y="190.85" width="10.8" height="0.49" style="fill:#c7c7c7"></rect><rect x="330.74" y="207.77" width="13.14" height="0.49" style="fill:#c7c7c7"></rect><rect x="330.74" y="209.35" width="8.88" height="0.49" style="fill:#c7c7c7"></rect><rect x="330.74" y="210.92" width="12.07" height="0.49" style="fill:#c7c7c7"></rect><rect x="330.74" y="212.5" width="13.14" height="0.49" style="fill:#c7c7c7"></rect><rect x="330.74" y="214.07" width="14.55" height="0.49" style="fill:#c7c7c7"></rect><rect x="330.74" y="215.65" width="10.8" height="0.49" style="fill:#c7c7c7"></rect><rect x="330.74" y="231.36" width="11.01" height="0.49" style="fill:#c7c7c7"></rect><rect x="330.74" y="232.93" width="14.55" height="0.49" style="fill:#c7c7c7"></rect><rect x="330.74" y="234.51" width="9.2" height="0.49" style="fill:#c7c7c7"></rect><rect x="330.74" y="236.08" width="14.55" height="0.49" style="fill:#c7c7c7"></rect><rect x="330.74" y="237.66" width="12.57" height="0.49" style="fill:#c7c7c7"></rect><rect x="330.74" y="239.23" width="7.75" height="0.49" style="fill:#c7c7c7"></rect><rect x="168.55" y="107.43" width="26.23" height="2.25" style="fill:#c7c7c7"></rect><rect x="168.55" y="112.14" width="35.44" height="2.25" style="fill:#c7c7c7"></rect><rect x="168.55" y="116.85" width="18.81" height="2.25" style="fill:#c7c7c7"></rect><rect x="157.23" y="107.43" width="5.47" height="5.47" style="fill:#000000"></rect><rect x="168.55" y="125.64" width="31.18" height="2.25" style="fill:#c7c7c7"></rect><rect x="168.55" y="130.35" width="24.66" height="2.25" style="fill:#c7c7c7"></rect><rect x="168.55" y="135.06" width="35.44" height="2.25" style="fill:#c7c7c7"></rect><rect x="157.23" y="125.64" width="5.47" height="5.47" style="fill:#fff"></rect><path d="M242.17,166.74a25.75,25.75,0,0,1,.61-10.18,26.13,26.13,0,0,1,4.37-9.3l.37-.54.42-.48.86-1,.85-1c.3-.31.64-.58.95-.88.65-.57,1.28-1.15,2-1.7l2.12-1.46,1.07-.71,1.15-.59,2.28-1.17a24.63,24.63,0,0,1,2.39-.93L264,136l0,.12c-1.54.73-3.09,1.4-4.59,2.16l-2.18,1.27-1.09.63-1,.76-2,1.48c-.63.55-1.23,1.14-1.85,1.7-.3.29-.62.55-.91.86l-.82.94-.81,1-.41.48-.36.51a28.87,28.87,0,0,0-4.45,8.91c-.27.8-.42,1.62-.64,2.43s-.3,1.66-.42,2.49A28.47,28.47,0,0,0,242.17,166.74Z" style="fill:#455a64"></path><polygon points="262.37 141.1 261.47 140.66 263.63 136.23 259.06 134.4 259.43 133.47 265 135.7 262.37 141.1" style="fill:#455a64"></polygon><path d="M271.26,164a30.59,30.59,0,0,0-2.51,3.78c-.37.66-.73,1.33-1.08,2s-.65,1.36-.94,2.06a34.36,34.36,0,0,0-2.43,8.63,32,32,0,0,0-.14,9,30.65,30.65,0,0,0,.76,4.45c.33,1.47.84,2.9,1.25,4.37l-.13.05-.86-2.12a14.66,14.66,0,0,1-.79-2.16,31.29,31.29,0,0,1-1-4.48,28.81,28.81,0,0,1,0-9.22,29.38,29.38,0,0,1,2.74-8.79A27.88,27.88,0,0,1,271.26,164Z" style="fill:#455a64"></path><polygon points="261.14 196.6 261.58 195.71 266.01 197.88 267.85 193.31 268.78 193.68 266.53 199.25 261.14 196.6" style="fill:#455a64"></polygon><path d="M159.26,137a33.79,33.79,0,0,0-.44,3.86,35.55,35.55,0,0,0-.06,3.86,32,32,0,0,0,1.18,7.56,22.84,22.84,0,0,0,3.26,6.87c.37.51.71,1,1.12,1.55l1.3,1.41a10.93,10.93,0,0,0,1.39,1.33l1.47,1.28-.09.13a21.6,21.6,0,0,1-5.86-5.22l-.62-.78-.51-.85c-.32-.58-.72-1.12-1-1.73l-.8-1.82c-.25-.62-.42-1.26-.62-1.89a26,26,0,0,1-1-7.83A26.88,26.88,0,0,1,159.26,137Z" style="fill:#455a64"></path><polygon points="163.38 166.1 163.26 165.1 168.16 164.54 167.24 159.69 168.22 159.51 169.34 165.41 163.38 166.1" style="fill:#455a64"></polygon><path d="M241.38,117.12c1.43,7.31-2.69,10-2.85,12.17a34.34,34.34,0,0,0,.21,3.9l-7.36,2.35a34.26,34.26,0,0,0-2.09-3.31c-1.35-1.64-6.3-1.49-9.36-8.27-2-4.46-.87-12.87,6.92-15.36S240.44,112.32,241.38,117.12Z" style="fill:#000000"></path><rect x="230.19" y="123.66" width="0.51" height="12.5" transform="translate(-34.04 124.55) rotate(-28.25)" style="fill:#fff"></rect><rect x="236" y="121.81" width="0.51" height="12.5" transform="translate(-14.04 30.23) rotate(-7.11)" style="fill:#fff"></rect><path d="M232.73,127.05h0a2.33,2.33,0,0,1-2.15-.84.93.93,0,0,1-.52.53h0c-1.13.36-2.3-1.79-2.35-1.89l.22-.12c.31.58,1.28,2,2,1.77h0a.78.78,0,0,0,.41-.48,5.43,5.43,0,0,1-1.21-1.9c-.2-.65-.07-1.11.36-1.25h0a.76.76,0,0,1,.75.16,3.17,3.17,0,0,1,.46,2.66,1.76,1.76,0,0,1-.07.27,2.2,2.2,0,0,0,2,.85h0c.54-.17.85-.81,1-1.58a3.26,3.26,0,0,1-1.31-1.76c-.26-.83-.11-1.45.4-1.62h0c.42-.13.79.2,1,.91a5.68,5.68,0,0,1,.17,2.34,1.1,1.1,0,0,0,.8.05h0c.65-.21.73-2,.71-2.66h.25c0,.27.07,2.61-.89,2.92h0a1.35,1.35,0,0,1-.91-.05A2,2,0,0,1,232.73,127.05Zm.09-5c-.44.14-.4.79-.23,1.3a3.11,3.11,0,0,0,1.1,1.58,5.48,5.48,0,0,0-.18-2.13c-.08-.26-.32-.87-.69-.75Zm-3.2,1c-.37.12-.31.57-.19.93a4.78,4.78,0,0,0,1,1.71l0-.11a3,3,0,0,0-.4-2.42.46.46,0,0,0-.49-.11Z" style="fill:#fff"></path><rect x="230.48" y="134" width="9.53" height="1.86" transform="translate(-29.87 77.84) rotate(-17.69)" style="fill:#263238"></rect><rect x="231.14" y="136.06" width="9.53" height="1.86" transform="translate(-30.47 78.14) rotate(-17.68)" style="fill:#263238"></rect><rect x="231.79" y="138.13" width="9.53" height="1.86" transform="translate(-31.06 78.44) rotate(-17.69)" style="fill:#263238"></rect><path d="M230.37,103a7.74,7.74,0,0,1-.5-2.9,7.53,7.53,0,0,1,.5-2.89,8.63,8.63,0,0,1,0,5.79Z" style="fill:#455a64"></path><path d="M218.9,107.65a8,8,0,0,1-2.4-1.7,7.9,7.9,0,0,1-1.7-2.4,7.61,7.61,0,0,1,2.41,1.7A7.7,7.7,0,0,1,218.9,107.65Z" style="fill:#455a64"></path><path d="M214.09,119.05a8.63,8.63,0,0,1-5.79,0,8.63,8.63,0,0,1,5.79,0Z" style="fill:#455a64"></path><path d="M218.76,130.52a7.9,7.9,0,0,1-1.7,2.4,7.73,7.73,0,0,1-2.4,1.7,7.46,7.46,0,0,1,1.7-2.4A7.57,7.57,0,0,1,218.76,130.52Z" style="fill:#455a64"></path><path d="M246.44,119.26a8.66,8.66,0,0,1,5.8,0,8.66,8.66,0,0,1-5.8,0Z" style="fill:#455a64"></path><path d="M241.77,107.79a8.74,8.74,0,0,1,4.1-4.1,8.51,8.51,0,0,1-4.1,4.1Z" style="fill:#455a64"></path></g><g id="freepik--Plant--inject-2"><path d="M175.69,375.17s-17.31-3.92-26.8-12.67-14.79-24.4-14.79-24.4a147.87,147.87,0,0,1,19.42,5.1,32.72,32.72,0,0,1,5.87,8.3,40.49,40.49,0,0,0,.05-5.94,26.56,26.56,0,0,1,6.16,3.75C173.47,356.19,175.69,375.17,175.69,375.17Z" style="fill:#000000"></path><path d="M144.91,345.71c-2.36-1.63-4.76-3.21-7.11-4.86a.13.13,0,0,1,.14-.23c4.46,2.67,8.86,5.51,13.11,8.5,1.49,1,2.94,2.12,4.38,3.22l-.3-.51c-.52-.87-1.06-1.72-1.61-2.58a37.32,37.32,0,0,0-3.68-4.9c-.05-.06,0-.14.09-.08,1.34,1.55,2.69,3.09,3.92,4.74.59.78,1.13,1.6,1.65,2.43.27.43.53.86.78,1.3.08.15.17.3.26.45,2.23,1.76,4.41,3.59,6.49,5.53q1.93,1.8,3.72,3.72c-.67-2.1-1.25-4.22-2-6.28,0-.07.09-.1.12,0,.75,2.16,1.58,4.34,2.16,6.56q2,2.15,3.79,4.46l-.06-.28c-.2-.81-.4-1.63-.62-2.44-.42-1.56-.88-3.12-1.41-4.65a27.21,27.21,0,0,0-4.65-8.79c-.05-.06,0-.14.08-.08a33.67,33.67,0,0,1,6.63,13.85c.19.73.36,1.47.53,2.22.09.39.19.79.26,1.19.52.71,1,1.42,1.53,2.16a75,75,0,0,1,7.32,14.36A164.23,164.23,0,0,1,186,402c0,.11-.14.15-.17,0-3.39-10.13-6.85-20.4-12.64-29.46q-1.84-2.86-4-5.53a32.69,32.69,0,0,1-8.42-1.68,37.32,37.32,0,0,1-8.44-4.07A52.65,52.65,0,0,1,148,358c-.07,0,0-.15.07-.09a34.51,34.51,0,0,0,7.94,4.8,42.69,42.69,0,0,0,8.73,2.93c1.28.28,2.58.49,3.87.66a73.79,73.79,0,0,0-5.1-5.66c-.59-.58-1.19-1.14-1.79-1.7a41.4,41.4,0,0,0-6.4-3.67c-2.84-1.37-5.63-2.82-8.44-4.25-1.58-.8-3.16-1.63-4.75-2.41-.07,0,0-.13.06-.1,2.84,1.38,5.73,2.66,8.61,4,2.7,1.23,5.43,2.48,8,3.93l.33.2c-2.35-2-4.78-4-7.26-5.86C149.6,349,147.28,347.35,144.91,345.71Z" style="fill:#263238"></path><path d="M145.89,354.64c1.41.61,2.85,1.16,4.24,1.81s2.79,1.46,4.15,2.26a.05.05,0,1,1-.05.09c-1.38-.66-2.78-1.28-4.15-2s-2.78-1.45-4.22-2.08C145.79,354.72,145.82,354.6,145.89,354.64Z" style="fill:#263238"></path><path d="M231.94,287.92a24.79,24.79,0,0,0-5.18,14.38c0,1.55.19,3.71.37,6.26a41.24,41.24,0,0,0-11.3,9.66,20.43,20.43,0,0,1,11.42-2.74,34,34,0,0,1-.66,5.18,19.34,19.34,0,0,0-7.34,1.45,16.31,16.31,0,0,1,6.62,1.32c-3.09,9.81-12.26,19.9-37.6,24.18A53.17,53.17,0,0,1,192.76,312C200.35,297,231.94,287.92,231.94,287.92Z" style="fill:#000000"></path><path d="M179.51,389.63q.66-6.3,1.64-12.55a246,246,0,0,1,5.11-24.79,98.61,98.61,0,0,1,3.65-11.3,17.24,17.24,0,0,1-.09-2c0-.81,0-1.62,0-2.44,0-1.62.09-3.24.23-4.86a57.45,57.45,0,0,1,1.56-9.49c.46-1.81,1-3.58,1.53-5.37a.06.06,0,0,1,.11,0,69.68,69.68,0,0,0-1.87,9.48,86.57,86.57,0,0,0-.85,9.51c0,.87-.05,1.74-.05,2.61,0,.37,0,.75,0,1.12a81.45,81.45,0,0,1,4.27-8.83,106.13,106.13,0,0,1,8.67-13,5.25,5.25,0,0,1,.21-1.42c.11-.57.24-1.13.36-1.7q.39-1.72.87-3.45c.63-2.29,1.46-4.51,2.18-6.78a.06.06,0,0,1,.11,0c-.67,2.25-1.11,4.57-1.63,6.86l-.75,3.39-.36,1.7s0,.08,0,.12c1-1.29,2.07-2.56,3.13-3.82,4.84-5.67,10.15-10.9,15.48-16.1.66-.64,1.33-1.26,2-1.89,0-.05.13,0,.08.09-5.1,5.32-10.13,10.7-14.88,16.34-1.13,1.34-2.25,2.69-3.34,4.06l1.73-1.14c1.47-1,3-1.91,4.5-2.77s3.09-1.7,4.67-2.48,3.36-1.46,4.93-2.37c.06,0,.12.07,0,.1a36.59,36.59,0,0,0-4.62,2.56c-1.54.91-3.08,1.83-4.59,2.8s-3,1.87-4.47,2.83c-1.23.8-2.44,1.68-3.72,2.42a119.34,119.34,0,0,0-8.12,11.81,88.71,88.71,0,0,0-4.19,7.95l.91-.39,2.32-1,4.48-2c2.84-1.23,5.72-2.37,8.51-3.72a38.17,38.17,0,0,0,4.55-2.53c.06,0,.12.06.05.11-5.19,3.58-11,6.1-16.76,8.64l-2.49,1.11c-.69.3-1.37.64-2.08.9a87.51,87.51,0,0,0-4.28,11.74,239.06,239.06,0,0,0-5.52,24.51c-1.45,8.27-2.43,16.6-3.19,25-.1,1-.19,2.08-.31,3.13a.33.33,0,0,1-.66,0C178.63,398.1,179.06,393.85,179.51,389.63Z" style="fill:#263238"></path><path d="M194.92,319.67c.46-2.58,1.15-5.09,1.84-7.61,0-.08.13,0,.12,0-.65,2.47-1.1,5-1.57,7.51s-.89,5.13-1.25,7.71c0,0-.08,0-.07,0A65.3,65.3,0,0,1,194.92,319.67Z" style="fill:#263238"></path><path d="M205.84,326.65a46.38,46.38,0,0,1,5.51-3.1q1.38-.71,2.79-1.38c1-.47,2-.86,2.92-1.34.07,0,.13.07.06.11-.93.46-1.81,1-2.72,1.52L211.59,324a62.13,62.13,0,0,1-5.62,2.9A.14.14,0,0,1,205.84,326.65Z" style="fill:#263238"></path><path d="M175.38,345.18s-16-3.83-23.38-14.57c-7-10.27-9.29-27.76-9.48-29.3.29,1.41,3.6,16.7,14.51,23.82C165.38,330.59,173.45,335.08,175.38,345.18Z" style="fill:#263238;opacity:0.1"></path><path d="M160.59,317.5a20.51,20.51,0,0,1,5.91,9.73s0,0-.05,0a23.9,23.9,0,0,0-5.94-9.66S160.54,317.45,160.59,317.5Z" style="fill:#263238"></path><path d="M175.38,345.18s-16-3.83-23.38-14.57c-7-10.27-9.29-27.76-9.48-29.3a.87.87,0,0,1,0-.11s7.68,10.92,15.76,13.71S177.69,327.33,175.38,345.18Z" style="fill:#000000"></path><path d="M145.35,307.22a64,64,0,0,0,5,8.47,33.88,33.88,0,0,0,6.59,6.78c2.18,1.73,4.48,3.3,6.68,5a.56.56,0,0,1,0-.08c-.41-.61-.86-1.21-1.31-1.79-.92-1.17-1.92-2.28-2.93-3.37-2-2.16-4-4.28-5.81-6.62a23.84,23.84,0,0,1-2.57-4.14c0-.06.08-.1.11,0,2.6,5.41,7.79,8.87,11.5,13.45.52.65,1,1.32,1.48,2a8.67,8.67,0,0,1,.92,1.63,33.22,33.22,0,0,1,5.46,5.53,21.16,21.16,0,0,0-.64-3.11,15.6,15.6,0,0,0-1.7-4.06c0-.07.06-.13.1-.07a19.65,19.65,0,0,1,1.87,4,14.23,14.23,0,0,1,.58,3.46h0a33.29,33.29,0,0,1,2.17,3.37c-.07-.34-.14-.68-.2-1-.32-1.59-.67-3.18-1.09-4.76a28.41,28.41,0,0,0-3.85-9,.06.06,0,0,1,.1-.07,34.48,34.48,0,0,1,4.27,8.83c.51,1.57.92,3.17,1.28,4.78.17.79.33,1.58.48,2.38.08.41.17.83.23,1.25a57.49,57.49,0,0,1,3.7,10.86,161.36,161.36,0,0,1,3.42,20.26,168,168,0,0,1,1.1,21.51c0,.9-.07,1.8-.12,2.7,0,.23-.36.26-.37,0-.15-3.56-.25-7.11-.46-10.67s-.52-7.1-.9-10.64A185.65,185.65,0,0,0,177,353.38c-1.29-5.86-3-11.76-6.18-16.89a31.44,31.44,0,0,0-5.78-6.87c-2.25-2-4.7-3.79-7.07-5.65a38.73,38.73,0,0,1-6.49-6.24,51.16,51.16,0,0,1-5.09-8.27c-.38-.73-.77-1.45-1.15-2.17C145.21,307.22,145.31,307.16,145.35,307.22Z" style="fill:#263238"></path><path d="M148.11,309.57a55,55,0,0,0,3.57,6.24c0,.05,0,.1-.07.05a43.15,43.15,0,0,1-3.61-6.25C148,309.54,148.08,309.5,148.11,309.57Z" style="fill:#263238"></path><path d="M234.17,338.1s.26,22.76-13.36,29.34-20.91,1.09-30.16,3.3l0,0c.35-.54,7-10,17.46-12.64C218.93,355.39,230.9,347.58,234.17,338.1Z" style="fill:#000000"></path><path d="M234.17,338.1s.26,22.76-13.36,29.34-20.91,1.09-30.16,3.3l0,0a51.66,51.66,0,0,1,15.47-4.56C214.73,365.12,231.13,359.53,234.17,338.1Z" style="opacity:0.1"></path><path d="M189.75,371.14a23.21,23.21,0,0,1,5.42-3.67c.29-.14.59-.25.89-.38.14-.18.29-.35.45-.52.41-.42.84-.83,1.29-1.22a18.93,18.93,0,0,1,2.73-2c2.26-1.33,4.73-2.25,7-3.49.06,0,.12.07.05.11-1.14.59-2.24,1.24-3.35,1.89s-2.18,1.23-3.23,1.91a23,23,0,0,0-2.69,2c-.24.21-.47.43-.7.67a36.25,36.25,0,0,1,4.6-1.23c2.49-.5,5-.86,7.5-1.39a35,35,0,0,0,3.61-1c1.13-.91,2.26-1.82,3.33-2.8a27.62,27.62,0,0,0,3.51-3.9c.05-.06.15,0,.1.06a41.75,41.75,0,0,1-5.58,6.16c.59-.23,1.17-.46,1.74-.73a27.94,27.94,0,0,0,11.6-9.65c.05-.06.15,0,.1.07a31.82,31.82,0,0,1-9.38,9,28.25,28.25,0,0,1-5.93,2.81,54.79,54.79,0,0,1-7.37,1.74,52.15,52.15,0,0,0-7.21,1.72,21.89,21.89,0,0,0-6.05,3.18,28.28,28.28,0,0,0-8.16,10.12,50.57,50.57,0,0,0-4.49,16.64c0,.25-.41.25-.39,0C179.82,387.75,182.38,377.79,189.75,371.14Z" style="fill:#263238"></path><path d="M205.55,363.72a7.76,7.76,0,0,1,2.8-2.54,10.19,10.19,0,0,0,3.33-2.75c0-.07.14,0,.1.06a11.36,11.36,0,0,1-2.94,2.63,10.27,10.27,0,0,0-3.2,2.65C205.6,363.82,205.52,363.77,205.55,363.72Z" style="fill:#263238"></path><polygon points="198.33 387.94 197.71 400.46 195.81 438.72 167.25 438.72 165.35 400.46 164.73 387.94 198.33 387.94" style="fill:#37474f"></polygon><polygon points="198.33 387.94 197.71 400.46 165.35 400.46 164.73 387.94 198.33 387.94" style="fill:#263238"></polygon><rect x="162.73" y="382.72" width="37.6" height="11.94" style="fill:#37474f"></rect></g><g id="freepik--character-2--inject-2"><path d="M339.7,448.81c2.12.69,62.6-.1,64.88-1.59.87-.55,1.27-9.37,1.45-20v-.33c0-2.2.07-4.46.08-6.76,0-.32,0-.63,0-.95l-2.94-31.37-40.45.41,4,31.07,0,1.24.24,6.43,0,.66s-23,10.65-25.35,12.56S337.58,448.14,339.7,448.81Z" style="fill: rgb(235, 148, 129);"></path><path d="M339.7,448.81c2.12.69,62.6-.1,64.88-1.59.87-.55,1.27-9.37,1.45-20v-.33c0-2.2.07-4.46.08-6.76,0-.32,0-.63,0-.95l-39.4.11,0,1.24.24,6.43,0,.66s-23,10.65-25.35,12.56S337.58,448.14,339.7,448.81Z" style="fill:#ebebeb"></path><path d="M339.7,448.81c1.09.35,17.52.31,33.58,0,3.23-.06,6.44-.14,9.5-.22,11.45-.32,20.91-.79,21.79-1.36s1.27-9.12,1.44-19.59c0-.15,0-.3,0-.45s0-.23,0-.34h0l-39,.07,0,.67s-23,10.65-25.34,12.55S337.58,448.13,339.7,448.81Z" style="fill:#455a64"></path><path d="M340.36,446.46c10.19-.38,51.32-1,61.43-.57.08,0,.08.06,0,.07-10.09.6-51.23.84-61.43.67C340.14,446.62,340.14,446.47,340.36,446.46Z" style="fill:#263238"></path><path d="M362.67,427.09c4-.81,8.92-.25,12,2.57.12.1,0,.27-.17.23a57.21,57.21,0,0,0-11.82-2.3A.25.25,0,0,1,362.67,427.09Z" style="fill:#263238"></path><path d="M359.8,428.87c4-.8,8.92-.25,12,2.57.12.11,0,.28-.17.24a56.54,56.54,0,0,0-11.83-2.31A.25.25,0,0,1,359.8,428.87Z" style="fill:#263238"></path><path d="M356.93,430.65c4-.8,8.91-.25,12,2.57.13.11,0,.28-.16.24a56,56,0,0,0-11.83-2.3A.26.26,0,0,1,356.93,430.65Z" style="fill:#263238"></path><path d="M373.28,448.8c3.23-.06,6.44-.14,9.5-.22,11.45-.32,20.91-.79,21.79-1.36s1.27-9.12,1.44-19.59c0-.15,0-.3,0-.45s0-.23,0-.34h0C400.65,430.59,381.83,443.11,373.28,448.8Z" style="fill:#263238"></path><path d="M364.36,427.05h43.55s-8.77-101.72-8.43-103.49c.44-2.28,3-12.57,6.43-26,1.08-4.21,2.23-8.73,3.43-13.41,3.25-12.65,6.83-26.48,10-38.52,4.68-18,8.33-32,8.33-32H390.71S386.41,227.22,381,245c-8.83,28.83-20.64,68.52-21.8,78.16C357.3,338.7,364.36,427.05,364.36,427.05Z" style="fill:#263238"></path><path d="M366.29,419.62c6.65-.14,4.74-.19,11.39-.25,3.26,0,24.65-.22,27.69.28a.07.07,0,0,1,0,.14c-3,.5-24.43.31-27.69.28-6.65-.06-4.74-.12-11.39-.25A.1.1,0,0,1,366.29,419.62Z" style="fill:#37474f"></path><path d="M391.29,317.34c1.43-6.29,3.56-12.46,5.42-18.64q5.66-18.84,11.39-37.65,2.86-9.41,5.75-18.81,1.45-4.74,2.93-9.49c1-3.09,2.07-6.15,3-9.27.35-1.27.55-.57.09,1-.91,3.25-1.82,6.5-2.77,9.74q-2.81,9.63-5.66,19.24-5.67,19.14-11.43,38.25-2.86,9.58-5.76,19.16a78.68,78.68,0,0,0-2.36,9.27,42.8,42.8,0,0,0-.38,9.92c.42,6.67,1.19,13.32,1.8,20s1.24,13.32,1.85,20q1.84,19.89,3.65,39.78c.15,1.68.3,3.36.43,5,0,.56-.81.52-.87,0-1.43-13.11-2.53-26.26-3.76-39.39s-2.45-26.13-3.67-39.2c-.31-3.28-.66-6.56-.66-9.86A40.64,40.64,0,0,1,391.29,317.34Z" style="fill:#37474f"></path><path d="M394.9,213.58c2.57,19.82,7.45,57,11,84,8.33-32.68,21.71-84,21.71-84Z" style="fill:#37474f"></path><path d="M385.84,449.4c2.12.69,62.59.13,64.88-1.36.88-.55,1.31-9.37,1.52-20,0-.11,0-.23,0-.34.05-2.2.08-4.46.1-6.75,0-.32,0-.64,0-.95.14-15.4-1-31.37-1-31.37l-39.53.26L413,419.94l0,1.23.22,6.43,0,.66s-23.05,10.57-25.4,12.47S383.72,448.71,385.84,449.4Z" style="fill: rgb(235, 148, 129);"></path><path d="M385.84,449.4c2.12.69,62.59.13,64.88-1.36.88-.55,1.31-9.37,1.52-20,0-.11,0-.23,0-.34.05-2.2.08-4.46.1-6.75,0-.32,0-.64,0-.95l-39.39,0,0,1.23.22,6.43,0,.66s-23.05,10.57-25.4,12.47S383.72,448.71,385.84,449.4Z" style="fill:#ebebeb"></path><path d="M385.84,449.4c2.12.69,62.59.13,64.88-1.36.88-.55,1.31-9.37,1.52-20,0-.11,0-.23,0-.34l-39-.07,0,.66s-23.05,10.57-25.4,12.47S383.72,448.71,385.84,449.4Z" style="fill:#455a64"></path><path d="M386.5,447.05c10.19-.35,51.33-.78,61.43-.35.08,0,.09.06,0,.07-10.09.56-51.23.66-61.43.44C386.29,447.21,386.29,447.05,386.5,447.05Z" style="fill:#263238"></path><path d="M408.89,427.75c4-.78,8.91-.21,12,2.62.12.11,0,.27-.17.23a56.63,56.63,0,0,0-11.82-2.34A.26.26,0,0,1,408.89,427.75Z" style="fill:#263238"></path><path d="M406,429.52c4-.78,8.91-.21,12,2.62.12.11,0,.28-.17.24A56.52,56.52,0,0,0,406,430,.26.26,0,0,1,406,429.52Z" style="fill:#263238"></path><path d="M403.13,431.3c4-.79,8.92-.22,12,2.61.12.11,0,.28-.17.24a56.52,56.52,0,0,0-11.82-2.35A.25.25,0,0,1,403.13,431.3Z" style="fill:#263238"></path><path d="M391.91,213.58s.85,17.66,4.89,31.65c.32,1.15.68,2.29,1.06,3.38a66.15,66.15,0,0,1,10.63,5.47s.43,14.21.85,30c.48,17.72,1,37.48.86,41.67-.37,15.68,2,101.89,2,101.89l43.54.18s-7.87-96.28-7.82-102c.08-9.23-2.11-50-3.8-79.79-1-18.34-1.89-32.47-1.89-32.47Z" style="fill:#263238"></path><path d="M413.66,420c6.65-.11,4.74-.18,11.39-.21,3.26,0,24.65-.12,27.69.4a.07.07,0,0,1,0,.14c-3.05.49-24.44.21-27.69.16-6.65-.09-4.74-.13-11.39-.3A.1.1,0,1,1,413.66,420Z" style="fill:#37474f"></path><path d="M438.54,219.89c.8,24.29,1.65,48.59,2.74,72.87s2.56,48.72,4.6,73c1.14,13.58,2.21,32.68,3.68,46.22,0,.1-.13.13-.14,0-3.18-24.1-4.94-53.9-6.5-78.15s-2.62-48.53-3.44-72.81c-.47-13.74-.83-27.48-1.24-41.22C438.23,219.68,438.54,219.7,438.54,219.89Z" style="fill:#37474f"></path><path d="M396.05,247.56a80.5,80.5,0,0,1,12.44,6.52.15.15,0,0,1-.13.26c-4.2-2.05-8.49-4-12.57-6.28A.28.28,0,0,1,396.05,247.56Z" style="fill:#37474f"></path><path d="M395.8,232.58c.29,1.54.66,3.08,1,4.62s.54,2.91.92,4.34a7.38,7.38,0,0,0,2,3.64c.56.52,1.19,1,1.79,1.47.33.26.68.51,1,.77-.05-.2-.08-.41-.12-.62l-.3-1.76c-.22-1.3-.43-2.61-.63-3.92-.39-2.56-.75-5.16-1.29-7.7,0-.1.14-.14.16,0,.64,2.52,1.35,5,1.9,7.55.28,1.25,1.25,7.4,1.3,7.84s.08.9.09,1.35a5.31,5.31,0,0,1,0,1.38.12.12,0,0,1-.21,0h0a5.45,5.45,0,0,1-.39-1.34c-.11-.43-.21-.88-.29-1.33,0-.16,0-.32-.08-.49-.6-.37-1.17-.85-1.73-1.26s-1.24-.88-1.81-1.36a6.88,6.88,0,0,1-2.21-3.45,25.59,25.59,0,0,1-.73-4.43c-.19-1.74-.33-3.5-.58-5.24C395.63,232.51,395.78,232.47,395.8,232.58Z" style="fill:#37474f"></path><path d="M403.56,170.19c-4.29,10.87-26,36.43-34.86,38.43-6.39,1.44-31.73-12.51-38.78-17.72-6.8-5,11.5-24.87,15.7-22.19,5.93,3.78,19.43,15.26,22,15.27,1.8,0,11.72-6.84,26.83-19.15C402.8,158,406.11,163.7,403.56,170.19Z" style="fill: rgb(235, 148, 129);"></path><path d="M336.52,160.58c-3.93-1.42-8.32-3.37-12.69-3.32s-8.06,5.8-8.07,7.45,1.56,12,5.93,12,1.8-7.91,2-8.82.35-2.06,1.17-2S340.05,173,340.05,173Z" style="fill: rgb(235, 148, 129);"></path><path d="M336.24,161.19c-.25,0-11.94-4.72-16.32-4.67s-8.05,5.79-8.06,7.45,1.55,12,5.93,12,1.8-7.92,2-8.82.34-2.07,1.17-2,15.22,7.06,15.22,7.06Z" style="fill: rgb(235, 148, 129);"></path><path d="M319.28,175.44a5.17,5.17,0,0,0,.75-2.57,9.07,9.07,0,0,0-.14-2.8,14.36,14.36,0,0,1-.51-2.41,4.79,4.79,0,0,1,.63-2.31c.34-.61,1-.4,1.53-.2a23.13,23.13,0,0,1,2.37,1.1c.84.42,1.66.86,2.48,1.29a23.12,23.12,0,0,1,2.53,1.42.07.07,0,0,1-.05.12,23.19,23.19,0,0,1-2.21-1c-.83-.39-1.66-.79-2.5-1.16s-1.54-.76-2.33-1.1a2.49,2.49,0,0,0-1.15-.35c-.33.07-.5.89-.58,1.16a4.13,4.13,0,0,0,.13,2.36,12.36,12.36,0,0,1,.44,2.4,6.46,6.46,0,0,1-.2,2.28,8.72,8.72,0,0,1-1.06,1.88C319.36,175.61,319.22,175.52,319.28,175.44Z" style="fill:#263238"></path><path d="M350,172.78s-12-11.15-14.55-13.36c-5-4.45-26.29-13.32-29.26-13.66s-4.09,5.75,10.33,12.19c7.61,3.4,8.93,7.78,8.77,10.2s-2.51,6.91-6.59,6.77-6.66-6.11-10.4-6.8-1.32,6.19,1.29,10.18a25,25,0,0,0,10.89,8.64c3.51,1.34,14.38,6.13,14.38,6.13Z" style="fill: rgb(235, 148, 129);"></path><path d="M313.7,172c1.53,1.2,3.25,2.75,5.27,2.84s3.45-1.25,4.43-2.94a7.72,7.72,0,0,0,1.12-5.62,9.53,9.53,0,0,0-2.76-4.6,23.26,23.26,0,0,0-5.49-3.71c-.09-.05,0-.17.08-.13,1.87.85,7.68,3.28,8.81,8.44A7.92,7.92,0,0,1,324,172c-.91,1.62-2.24,3.17-4.22,3.31-2.4.18-4.46-1.79-6.18-3.27C313.51,172,313.62,172,313.7,172Z" style="fill:#263238"></path><path d="M346.11,169l-11.39,32.14s26.79,10.29,34.54,8.2,27.59-24.58,34.53-38.27c4.22-8.33-.67-14-10.4-6.62-10,7.54-24,18-25.1,18.34S346.11,169,346.11,169Z" style="fill:#000000"></path><path d="M347.64,188.29c.75-2.39,3.65-12,4.19-14.44,0,0-.05-.07-.07,0-1,2.23-4.11,11.63-4.86,14a137.09,137.09,0,0,0-4,14.49c0,.09.11.15.15.06C344.86,197.81,346.18,193,347.64,188.29Z" style="fill:#263238"></path><path d="M403.79,171.08c-5.63,11.1-19.73,28-29,35.07l24.56-44.84h0C404.91,159.9,407,164.7,403.79,171.08Z" style="fill:#263238"></path><path d="M446.36,235.82c-.13.18-63.78,6.4-64.42,5.81-.9-.85,8.32-68.12,11.74-78.35,1.46-4.36,11.54-6.64,16.19-3.53,11.66,7.79,23.79,37.24,26.8,46.17C441.64,220.64,446.83,235.18,446.36,235.82Z" style="fill:#000000"></path><path d="M393.47,164.37s0,0,0,0c.11,2.9.53,9.62,5,8.77a9.66,9.66,0,0,0,4.64-2.89,25.49,25.49,0,0,0,3.47-4.28,37.91,37.91,0,0,0,3.09-5.35c0-.08.15,0,.12.07-.91,1.87-1.62,3.79-2.71,5.57a22.06,22.06,0,0,1-3.72,4.72,9.71,9.71,0,0,1-5,2.87,3.66,3.66,0,0,1-4-2.39A16,16,0,0,1,393.47,164.37Z" style="fill:#263238"></path><polygon points="363.94 262.99 401.69 252.78 370.97 209.11 333.22 219.32 363.94 262.99" style="fill:#ebebeb"></polygon><polygon points="361.36 263.68 399.11 253.48 368.39 209.81 330.63 220.02 361.36 263.68" style="fill:#455a64"></polygon><path d="M364.38,210.9a3.43,3.43,0,0,0,2.15,1.53c.41.1.38-.4,0-.48a2.61,2.61,0,0,1-1.44-.95l-.16-.25a1.76,1.76,0,0,1-.3-.9.65.65,0,0,1,.12-.39l0,0s0,0,0,0l.07,0a.4.4,0,0,1,.27-.05,1.16,1.16,0,0,1,.51.16,2.5,2.5,0,0,1,.51.4,2.61,2.61,0,0,1,.24.23l0,.06.07.09s0,0,0,.05l.54-.14a4.74,4.74,0,0,0-.76-.8,2.1,2.1,0,0,0-1.7-.52.85.85,0,0,0-.64,1A2.28,2.28,0,0,0,364.38,210.9Z" style="fill:#a6a6a6"></path><path d="M361.42,211.7a3.45,3.45,0,0,0,2.16,1.53c.41.1.38-.4,0-.49a2.55,2.55,0,0,1-1.43-.94,1.75,1.75,0,0,1-.16-.25,1.91,1.91,0,0,1-.31-.9.59.59,0,0,1,.13-.39.1.1,0,0,0,0,0s0,0,0,0l.07,0a.42.42,0,0,1,.27,0,1,1,0,0,1,.51.16,2.06,2.06,0,0,1,.51.4c.09.07.16.15.25.23l0,.06.07.08s0,0,0,.06l.53-.14a3.8,3.8,0,0,0-.76-.8,2.14,2.14,0,0,0-1.7-.53.86.86,0,0,0-.63,1A2.37,2.37,0,0,0,361.42,211.7Z" style="fill:#a6a6a6"></path><path d="M358.47,212.5a3.47,3.47,0,0,0,2.15,1.53c.41.1.38-.4,0-.49a2.6,2.6,0,0,1-1.44-.94l-.16-.25a1.79,1.79,0,0,1-.3-.9.65.65,0,0,1,.12-.39l0,0s0,0,0,0l.07,0a.57.57,0,0,1,.27-.05,1.06,1.06,0,0,1,.51.17,2.5,2.5,0,0,1,.51.4,2.61,2.61,0,0,1,.24.23l0,.06.07.08s0,0,0,.06l.54-.14a4.39,4.39,0,0,0-.76-.8,2.15,2.15,0,0,0-1.7-.53.86.86,0,0,0-.64,1A2.28,2.28,0,0,0,358.47,212.5Z" style="fill:#a6a6a6"></path><path d="M355.51,213.3a3.49,3.49,0,0,0,2.16,1.53c.41.1.38-.4,0-.49a2.66,2.66,0,0,1-1.43-.94,1.75,1.75,0,0,1-.16-.25,1.94,1.94,0,0,1-.31-.91.63.63,0,0,1,.13-.39v0s0,0,0,0a.15.15,0,0,0,.07,0,.62.62,0,0,1,.27,0,1.12,1.12,0,0,1,.51.16,2.09,2.09,0,0,1,.51.41,2.61,2.61,0,0,1,.25.23l0,.06a.27.27,0,0,1,.07.08s0,0,0,.06l.53-.14a3.8,3.8,0,0,0-.76-.8,2.14,2.14,0,0,0-1.7-.53.86.86,0,0,0-.63,1A2.41,2.41,0,0,0,355.51,213.3Z" style="fill:#a6a6a6"></path><path d="M352.56,214.09a3.48,3.48,0,0,0,2.15,1.54c.41.09.38-.4,0-.49a2.61,2.61,0,0,1-1.44-.95l-.16-.24a1.82,1.82,0,0,1-.3-.91.67.67,0,0,1,.12-.39l0,0,0,0,.07,0a.57.57,0,0,1,.27-.05,1.16,1.16,0,0,1,.51.16,2.55,2.55,0,0,1,.51.41,1.73,1.73,0,0,1,.24.23l0,.06a.27.27,0,0,1,.07.08s0,0,0,.06l.54-.15a4.34,4.34,0,0,0-.76-.79,2.15,2.15,0,0,0-1.7-.53.86.86,0,0,0-.64,1A2.24,2.24,0,0,0,352.56,214.09Z" style="fill:#a6a6a6"></path><path d="M349.6,214.89a3.5,3.5,0,0,0,2.16,1.54c.41.09.38-.4,0-.49a2.62,2.62,0,0,1-1.43-.95,1.25,1.25,0,0,1-.16-.24,1.94,1.94,0,0,1-.31-.91.61.61,0,0,1,.13-.39,0,0,0,0,0,0,0s0,0,0,0l.07,0a.5.5,0,0,1,.27-.05,1.12,1.12,0,0,1,.51.16,2.32,2.32,0,0,1,.51.4c.09.07.16.16.25.24l0,.06a.27.27,0,0,1,.07.08s0,0,0,.06l.53-.15a3.76,3.76,0,0,0-.76-.79,2.14,2.14,0,0,0-1.7-.53.86.86,0,0,0-.63,1A2.33,2.33,0,0,0,349.6,214.89Z" style="fill:#a6a6a6"></path><path d="M346.65,215.69a3.48,3.48,0,0,0,2.15,1.54c.41.09.38-.41,0-.49a2.61,2.61,0,0,1-1.44-1l-.16-.24a1.82,1.82,0,0,1-.3-.91.67.67,0,0,1,.12-.39,0,0,0,0,0,0,0l0,0,.07,0a.4.4,0,0,1,.27,0,1.16,1.16,0,0,1,.51.16,2.91,2.91,0,0,1,.51.4,2.72,2.72,0,0,1,.24.24l0,.05.07.09s0,0,0,.06l.54-.15a4.34,4.34,0,0,0-.76-.79,2.11,2.11,0,0,0-1.7-.53.86.86,0,0,0-.64,1A2.24,2.24,0,0,0,346.65,215.69Z" style="fill:#a6a6a6"></path><path d="M343.69,216.49a3.5,3.5,0,0,0,2.16,1.54c.41.09.38-.41,0-.49a2.62,2.62,0,0,1-1.43-.95,1.67,1.67,0,0,1-.16-.24,1.94,1.94,0,0,1-.31-.91.59.59,0,0,1,.13-.39v0l0,0,.07,0a.42.42,0,0,1,.27-.05,1.12,1.12,0,0,1,.51.16,2.06,2.06,0,0,1,.51.4,2.77,2.77,0,0,1,.25.24l0,0,.07.09s0,0,0,.06l.54-.15a4.09,4.09,0,0,0-.77-.79,2.1,2.1,0,0,0-1.7-.53.85.85,0,0,0-.63,1A2.38,2.38,0,0,0,343.69,216.49Z" style="fill:#a6a6a6"></path><path d="M340.74,217.29a3.43,3.43,0,0,0,2.15,1.53c.41.1.38-.4,0-.48a2.61,2.61,0,0,1-1.44-1l-.16-.25a1.76,1.76,0,0,1-.3-.9.65.65,0,0,1,.12-.39s0,0,0,0,0,0,0,0l.07,0a.4.4,0,0,1,.27,0,1.16,1.16,0,0,1,.51.16,2.5,2.5,0,0,1,.51.4,2.61,2.61,0,0,1,.24.23l0,.06.07.09s0,0,0,0l.54-.14a4.74,4.74,0,0,0-.76-.8,2.1,2.1,0,0,0-1.7-.52.86.86,0,0,0-.64,1A2.28,2.28,0,0,0,340.74,217.29Z" style="fill:#a6a6a6"></path><path d="M337.78,218.09a3.45,3.45,0,0,0,2.16,1.53c.41.1.38-.4,0-.49a2.55,2.55,0,0,1-1.43-.94,1.75,1.75,0,0,1-.16-.25,1.91,1.91,0,0,1-.31-.9.59.59,0,0,1,.13-.39v0l0,0,.07,0a.42.42,0,0,1,.27-.05,1,1,0,0,1,.51.16,2.06,2.06,0,0,1,.51.4c.09.07.16.15.25.23l0,.06.07.08s0,0,0,.06l.54-.14a4.44,4.44,0,0,0-.77-.8A2.14,2.14,0,0,0,338,216a.86.86,0,0,0-.63,1A2.37,2.37,0,0,0,337.78,218.09Z" style="fill:#a6a6a6"></path><path d="M334.83,218.89a3.47,3.47,0,0,0,2.15,1.53c.41.1.38-.4,0-.49a2.54,2.54,0,0,1-1.44-.94c0-.08-.11-.17-.15-.25a1.71,1.71,0,0,1-.31-.9.65.65,0,0,1,.12-.39s0,0,0,0,0,0,0,0l.07,0a.57.57,0,0,1,.27,0,1.18,1.18,0,0,1,.51.17,2.5,2.5,0,0,1,.51.4,2.61,2.61,0,0,1,.24.23l0,.06.07.08s0,0,0,.06l.54-.14a4.39,4.39,0,0,0-.76-.8,2.15,2.15,0,0,0-1.7-.53.86.86,0,0,0-.64,1A2.28,2.28,0,0,0,334.83,218.89Z" style="fill:#a6a6a6"></path><path d="M331.87,219.69a3.49,3.49,0,0,0,2.16,1.53c.41.1.38-.4,0-.49a2.66,2.66,0,0,1-1.43-.94,1.75,1.75,0,0,1-.16-.25,1.91,1.91,0,0,1-.31-.91.63.63,0,0,1,.13-.39v0s0,0,0,0a.15.15,0,0,0,.07,0,.62.62,0,0,1,.27-.05,1.12,1.12,0,0,1,.51.16,2.09,2.09,0,0,1,.51.41c.09.07.16.15.25.23l0,.06a.27.27,0,0,1,.07.08s0,0,0,.06l.54-.14a4.13,4.13,0,0,0-.77-.8,2.14,2.14,0,0,0-1.7-.53.86.86,0,0,0-.63,1A2.41,2.41,0,0,0,331.87,219.69Z" style="fill:#a6a6a6"></path><path d="M418.75,166.65c12.67,12.59,40.23,41.55,35,50.19-8.64,14.2-33,29.44-40.78,33.27-3.36,1.65-20.33-21.94-17.35-24.61,3.58-3.21,27.54-17.57,27.45-18.83s-7.83-18.18-11.73-31.79C406.47,158,413.47,161.4,418.75,166.65Z" style="fill: rgb(235, 148, 129);"></path><path d="M408.18,221.54s-11.31-1.36-18.75-1.9c-4.15-.3-11.31-.18-14.46,1-4.71,1.76-23.3,12.1-20.89,16.66,2.19,4.13,17-6.79,17-6.79s-15.95,9.7-12.41,14.19,18.67-10.08,18.67-10.08S361.21,244.93,365.59,249c3.32,3.06,17.76-9.36,17.76-9.36s-13.83,9-10.56,12.27c3.62,3.64,17.67-7,17.67-7,9.73,7,17.14,6.88,22.48,5.21C414.18,249.72,408.18,221.54,408.18,221.54Z" style="fill: rgb(235, 148, 129);"></path><path d="M375.67,227.28c-12.29,6.24-16.41,13.07-16.26,12.91,3.45-3.76,9.87-8.29,11.68-9.53s2.82-2.08,4.63-3.31C375.76,227.32,375.71,227.26,375.67,227.28Z" style="fill:#263238"></path><path d="M381,233.26a46.88,46.88,0,0,0-13.68,9.42c-.15.16-.05.18.13,0,2.26-1.63,11.26-7.89,13.59-9.41C381.07,233.29,381,233.25,381,233.26Z" style="fill:#263238"></path><path d="M385.93,238.1a34.74,34.74,0,0,0-10.38,7.61c-.15.15,0,.18.18,0,3.4-2.6,6-4.65,10.27-7.53C386.07,238.19,386,238.06,385.93,238.1Z" style="fill:#263238"></path><path d="M402.82,220.2l19.58,28.37s31.3-24.3,32.44-33.45-28.66-43.55-37.08-50.18-10.19-3-8.49,5.84,13.35,35.51,13.27,36.06S402.82,220.2,402.82,220.2Z" style="fill:#000000"></path><path d="M417.78,194.14q-1.23-3-2.41-6c-.41-1.05-.82-2.1-1.24-3.14l-.59-1.44c-.1-.24-.22-.48-.3-.72a4,4,0,0,0-.42-.95c0-.05-.11,0-.1,0,.16.56,0,.35.18.77a9.9,9.9,0,0,1,.34,1c.16.49.33,1,.49,1.47.34,1,.7,2,1.06,3l.15.39s0-.07-.05-.1c-.57-1-1.15-2.1-1.73-3.14,0-.05-.09,0-.07,0a35.45,35.45,0,0,0,1.51,3.25c.32.62.68,1.21,1,1.8.5,1.33,1,2.66,1.51,4,1.61,4.09,3.24,8.2,5.17,12.15-1.66,1.12-3.38,2.17-5,3.3s-3.31,2.29-5,3.44-3.3,2.3-4.93,3.48c-.78.56-1.55,1.14-2.32,1.71s-1.61,1.34-2.47,1.94c-.08.07,0,.19.11.13.89-.61,1.87-1.1,2.77-1.69s1.6-1,2.39-1.54c1.68-1.12,3.34-2.27,5-3.41s3.32-2.28,5-3.44,3.23-2.4,4.87-3.57a.2.2,0,0,0,.09-.15.23.23,0,0,0,.06-.25C421.23,202.29,419.44,198.24,417.78,194.14Z" style="fill:#263238"></path><path d="M419.19,229.94c-1.44-2.05-7.29-10.21-8.9-12.12,0,0-.08,0-.06,0,1.18,2.12,6.71,10.35,8.16,12.4a137.3,137.3,0,0,0,9,12.05c.06.06.19,0,.14-.09C425,238,422.05,234,419.19,229.94Z" style="fill:#263238"></path><path d="M444.61,229.2c-.71.58-1.36,1.26-2,1.91l-2.06,2c-1.35,1.32-2.7,2.67-4.17,3.85-.08.07,0,.19.11.12,1.49-1.22,3-2.37,4.44-3.67a24.81,24.81,0,0,0,3.81-4.12C444.76,229.23,444.67,229.15,444.61,229.2Z" style="fill:#263238"></path><path d="M398,170.09c3.29,0,8.11-6.58,9.31-10.94a66.45,66.45,0,0,0-2.12-6.32c-.68-2-1.39-4.3-1.89-6.42l-12.53,6.36a34.94,34.94,0,0,1,3.2,7.84,4.8,4.8,0,0,1,.11.89s0,.09,0,.15C394.21,163.37,394.81,170.08,398,170.09Z" style="fill: rgb(235, 148, 129);"></path><path d="M395.47,161.4a8.42,8.42,0,0,1-1.38.25c0-.06,0-.11,0-.15a4.8,4.8,0,0,0-.11-.89,34.94,34.94,0,0,0-3.2-7.84l12.13-6.16C403.05,149.76,402.91,159.47,395.47,161.4Z" style="fill:#263238"></path><path d="M405.42,133.71c1.31,4.89-1.71,18.79-5.26,21.79-5.14,4.36-13.33,4.52-17-1.61-3.53-5.94.73-24,4.67-26.69C393.67,123.21,403.47,126.48,405.42,133.71Z" style="fill: rgb(235, 148, 129);"></path><path d="M391,142.18s.06.06,0,.09c-.23.94-.33,2,.45,2.53a0,0,0,0,1,0,0C390.46,144.49,390.61,143,391,142.18Z" style="fill:#263238"></path><path d="M392,141.38c1.54.2,1,3.25-.41,3.06S390.74,141.2,392,141.38Z" style="fill:#263238"></path><path d="M385.75,141.22s-.08,0-.09.07c-.13,1-.44,2-1.35,2.18,0,0,0,.06,0,.06C385.38,143.56,385.78,142.14,385.75,141.22Z" style="fill:#263238"></path><path d="M385.07,140.09c-1.49-.38-2.14,2.65-.75,3S386.33,140.4,385.07,140.09Z" style="fill:#263238"></path><path d="M393.47,140.19c-.4-.18-.74-.41-1.11-.62a2,2,0,0,1-1-.85.65.65,0,0,1,.23-.76,1.61,1.61,0,0,1,1.64.11,2.4,2.4,0,0,1,1.18,1.25A.7.7,0,0,1,393.47,140.19Z" style="fill:#263238"></path><path d="M384.16,138.35a10.88,10.88,0,0,0,1.27-.11,2,2,0,0,0,1.27-.35.65.65,0,0,0,.09-.79,1.61,1.61,0,0,0-1.54-.58,2.44,2.44,0,0,0-1.59.66A.7.7,0,0,0,384.16,138.35Z" style="fill:#263238"></path><path d="M390.87,150.94c-.27.18-.54.44-.89.41a2.63,2.63,0,0,1-1-.41s-.06,0,0,0a1.27,1.27,0,0,0,1.11.72A1,1,0,0,0,391,151C391,150.94,390.91,150.91,390.87,150.94Z" style="fill:#263238"></path><path d="M390.36,147.94A3.26,3.26,0,0,1,388,149a3.88,3.88,0,0,1-1.17-.15.73.73,0,0,1-.21-.06l-.2-.07a.23.23,0,0,1-.16-.24h0l0-.09h0l0-.08c.1-.73.36-1.83.36-1.83-.29.09-1.75.47-1.66.09A49.58,49.58,0,0,1,387.9,137a.09.09,0,0,1,.17.06c-.58,3-1.69,5.91-2.32,8.94a5.45,5.45,0,0,1,1.59-.2c.1,0-.54,2.1-.56,2.43v0a4.59,4.59,0,0,0,3.51-.46C390.37,147.8,390.43,147.87,390.36,147.94Z" style="fill:#263238"></path><path d="M387.3,148.56a3.79,3.79,0,0,0,1.32,1.44,1.74,1.74,0,0,0,1,.25c.79-.07.93-.76.89-1.37a4.36,4.36,0,0,0-.18-1A5,5,0,0,1,387.3,148.56Z" style="fill:#263238"></path><path d="M388.62,150a1.74,1.74,0,0,0,1,.25c.79-.07.93-.76.89-1.37A1.79,1.79,0,0,0,388.62,150Z" style="fill:#ff98b9"></path><path d="M403.39,145.18c-2.53-.28-2-6.46-2-6.46s-3.83-.89-5.45-6.29c0,0-5.13,2.87-9.26,1.89-6.48-1.52-5.87-10-3.34-11.61,3.59-2.28,9.59,1.61,9.59,1.61s9.48-2.12,11.94,4.34a4.82,4.82,0,0,1,4.22,5C409.17,138.3,405.27,145.39,403.39,145.18Z" style="fill:#263238"></path><path d="M402.29,139.49a8.7,8.7,0,0,1-4.75-2.91,6.47,6.47,0,0,1-1.19-5.8.09.09,0,0,0-.17-.05,7.44,7.44,0,0,0,.72,6.26,6,6,0,0,0,5.37,2.69A.1.1,0,0,0,402.29,139.49Z" style="fill:#263238"></path><path d="M409.59,131c-1.21-1.7-3.16-2.06-5.11-2.09-.11,0-.11.18,0,.17a5.41,5.41,0,0,1,4.7,2.87c.9,1.59.58,3.51.1,5.18a13.59,13.59,0,0,1-5.83,7.82,0,0,0,1,0,0,.07,13.63,13.63,0,0,0,6.54-8.55C410.45,134.71,410.7,132.56,409.59,131Z" style="fill:#263238"></path><path d="M393.2,124.64a6.37,6.37,0,0,0-3.45-2.93,7.65,7.65,0,0,0-5.45.27,4.3,4.3,0,0,0-2.45,3.56,7.58,7.58,0,0,0,1.46,4.91c0,.05.09,0,.07,0a7.65,7.65,0,0,1-1.12-4.45,4,4,0,0,1,2.52-3.39c2.74-1.06,6.66-.66,8.28,2.16C393.11,124.83,393.26,124.74,393.2,124.64Z" style="fill:#263238"></path><path d="M382.3,145.79c-1.49-.3-2.35-2.38-1.9-4.64s2-3.87,3.52-3.58,2.35,2.38,1.91,4.65S383.8,146.08,382.3,145.79Zm1.51-7.66c-1.19-.24-2.48,1.16-2.86,3.13s.27,3.74,1.46,4,2.48-1.17,2.87-3.13S385,138.36,383.81,138.13Z" style="fill:#000000"></path><path d="M391.51,147.6a4.19,4.19,0,1,1,4.64-3.35A4.07,4.07,0,0,1,391.51,147.6Zm1.51-7.66a3.64,3.64,0,1,0,2.58,4.2A3.5,3.5,0,0,0,393,139.94Z" style="fill:#000000"></path><path d="M388.74,142.4c-1.91-1.12-3-.63-3-.63l-.26-.5c.05,0,1.32-.65,3.52.65Z" style="fill:#000000"></path><path d="M396,143.83v-.56c.37,0,9.06.11,10,.24s3,1.83,3.19,2l-.37.43a10.52,10.52,0,0,0-2.86-1.89h0C405.14,144,399.06,143.87,396,143.83Z" style="fill:#000000"></path><path d="M402.05,145s3.4-4.35,5.39-3.12-.74,7.66-3.19,8.43a2.45,2.45,0,0,1-3.21-1.49Z" style="fill: rgb(235, 148, 129);"></path><path d="M406.61,143.72s.05.05,0,.06a6.16,6.16,0,0,0-3.4,3.7,1.35,1.35,0,0,1,2-.26s0,.1-.05.09a1.52,1.52,0,0,0-1.69.43,7.51,7.51,0,0,0-.86,1.3c-.09.15-.36.05-.29-.12v0C402.46,146.73,404.29,143.81,406.61,143.72Z" style="fill:#263238"></path><path d="M394,161.43l4.6,7.36,8.06-11.8,3.36,2.72s-6.78,17.66-7,16.95l-4.49-6.25-3.87,5.6-1.75-12Z" style="fill:#fff"></path><path d="M393.49,170.13c-.22-2-.5-4-.63-6,0-.07.1-.12.13,0,.73,1.83,1.55,9.46,1.88,11.26l0,0c.16-.24,3.62-5,3.67-4.91.9,1,4.19,5.51,4.44,5.93,1.07-2.8,5.26-13.05,6.64-15.77a.07.07,0,0,1,.13.05c-.87,2.91-6.38,16.69-6.51,16.68a80.21,80.21,0,0,1-4.71-6.62c-.55,1-4,6.24-4,5.95A65.08,65.08,0,0,1,393.49,170.13Z" style="fill:#263238"></path></g><g id="freepik--character-1--inject-2"><path d="M37,418c-.23,1.34-.44,2.64-.65,3.91-1.32,8.13-2.1,14.4-1.49,15,1.87,1.78,58,13,60.1,12.79s1.48-6.26-.35-8.43c-1.11-1.32-8.78-7-14.62-11.22l0,0c-3.76-2.72-6.76-4.86-6.76-4.86l11.27-36.39-37.72-7.43S37.39,415.81,37,418Z" style="fill: rgb(235, 148, 129);"></path><path d="M95,449.63c-2.1.26-58.24-11-60.1-12.79-.61-.57.17-6.84,1.49-15,.1-.58.19-1.17.29-1.76C44,422,70.82,433.75,82.35,434.28c4.13.19-.63-3-.63-3,5.54,4,11.91,8.78,12.92,10C96.47,443.38,97.08,449.37,95,449.63Z" style="fill:#263238"></path><path d="M81.14,416.82c.4-.2,14.68-54.78,19.66-73.93,7.2-27.62,14.17-72.65,16.27-82a138,138,0,0,0,8.72-33.65s-45.37,0-45.37,0S68.51,250,74.65,266.06c.56,1.47-7.92,58.34-12.31,67.55-3.8,8-24.83,73.59-25.58,74Z" style="fill:#37474f"></path><path d="M81.09,406.11c-1.14-.33-2.33-.47-3.49-.7s-2.45-.47-3.68-.68c-2.46-.41-4.93-.79-7.39-1.17-4.92-.77-9.86-1.48-14.79-2.19l-4.05-.55a22.64,22.64,0,0,0-4.09-.38.07.07,0,0,0,0,.14,20,20,0,0,0,3.45.76c1.23.23,2.45.44,3.69.65,2.42.4,4.84.81,7.26,1.19,4.89.77,9.77,1.57,14.66,2.26,1.39.2,2.78.4,4.17.55s2.79.43,4.19.45C81.17,406.45,81.29,406.17,81.09,406.11Z" style="fill:#263238"></path><path d="M105.19,258.77c-.87,4.73-1.59,9.49-2.38,14.23-.4,2.41-.92,4.81-1.32,7.22s-.78,4.75-1.16,7.12Q98,301.66,95.75,316c-.76,4.73-1.51,9.47-2.28,14.21a133,133,0,0,1-2.86,13.86c-1.26,4.56-2.72,9.06-4.12,13.58s-2.84,9.27-4.27,13.9c-2.83,9.21-5.76,18.41-8.29,27.71l-1,3.47c0,.13.16.18.2,0,3.13-9.13,6-18.33,8.94-27.54s5.83-18.31,8.57-27.51a118.72,118.72,0,0,0,3.2-13.66c.81-4.74,1.51-9.5,2.27-14.25q2.3-14.32,4.57-28.65c.75-4.69,1.58-9.38,2.16-14.1.6-4.88,1.45-9.74,2.17-14.61.18-1.19.36-2.38.52-3.57C105.61,258.63,105.24,258.52,105.19,258.77Z" style="fill:#263238"></path><path d="M105.5,421.9c0,2.29.08,4.54.14,6.72,0,1.36.08,2.68.12,4,.28,8.23.73,14.54,1.44,15,2.18,1.38,59.43,1.55,61.44.89s.24-6.42-2-8.2c-1.35-1.08-10-5.15-16.52-8.17l0,0c-4.21-1.93-7.57-3.45-7.57-3.45l.18-6.72.52-30.59H105.43S105.24,407.06,105.5,421.9Z" style="fill: rgb(235, 148, 129);"></path><path d="M168.63,448.46c-2,.66-59.25.49-61.43-.89-.71-.45-1.16-6.76-1.44-15,0-1.17-.07-2.38-.11-3.62,7,.85,37.35,7.48,50.33,7.48,3.16,0-1.86-2.16-1.24-2.21,5.44,2.55,10.87,5.19,11.92,6C168.88,442,170.63,447.8,168.63,448.46Z" style="fill:#263238"></path><path d="M98.75,267.81s6.46,63.44,6.57,64.94c0,.58-2.78,84.88-2.78,84.88H145.3s-1.52-79.42-2.17-88.38c-.08-1-2.84-65.53-15.28-102H80.35s.41,21.45,10.17,37A80.05,80.05,0,0,1,98.75,267.81Z" style="fill:#37474f"></path><path d="M142.6,409.62c-1.17-.17-2.37-.13-3.55-.19s-2.49-.12-3.74-.14c-2.49-.06-5-.08-7.48-.11-5-.05-10-.05-15,0l-4.09,0a22.57,22.57,0,0,0-4.11.21c-.07,0-.06.12,0,.14a19.73,19.73,0,0,0,3.52.26c1.25,0,2.5.08,3.74.11,2.46.05,4.91.11,7.36.14,5,.06,9.9.14,14.84.13,1.4,0,2.81,0,4.21-.06s2.82,0,4.2-.15C142.73,409.94,142.81,409.65,142.6,409.62Z" style="fill:#263238"></path><path d="M132.91,336.29c-1.12-22.85-3.52-45.6-6.55-68.27-1.66-12.41-3.59-24.81-7-36.89,0,0-.09,0-.08,0a295.13,295.13,0,0,1,5.91,33.53c1.41,11.17,2.76,22.35,3.89,33.55,2.31,22.71,3.33,45.53,3.47,68.36.08,12.84-.26,25.67-.62,38.51a.1.1,0,0,0,.19,0A526.69,526.69,0,0,0,132.91,336.29Z" style="fill:#263238"></path><path d="M130.62,236.05c0-.08-.15-.06-.14,0,.18,2.71.64,5.66-.56,8.2-1.06,2.26-3.08,3.52-4.94,5-.06.05,0,.14.08.12,2.47-.75,4.93-2.12,5.9-4.64C132.05,242,131.46,238.87,130.62,236.05Z" style="fill:#263238"></path><path d="M110,266.42a45.36,45.36,0,0,0-5.94.2,40.12,40.12,0,0,1-5.8-.11,23.35,23.35,0,0,1-2.88-.47c-1-.23-1.91-.6-2.88-.87a5.41,5.41,0,0,0-2.68.1,30,30,0,0,1-3.1.53,29.92,29.92,0,0,1-7.2.19c-.09,0-.13.12,0,.14a29.24,29.24,0,0,0,6.12.64,23.78,23.78,0,0,0,3.15-.28,9.87,9.87,0,0,1,2.94-.39,27.78,27.78,0,0,1,2.88,1,22.09,22.09,0,0,0,2.91.6,30.35,30.35,0,0,0,6,.18,26.33,26.33,0,0,0,6.62-1A.21.21,0,0,0,110,266.42Z" style="fill:#263238"></path><path d="M105.42,329.25a.1.1,0,0,0,0,0l-.06,0s0,0,0,.06l0,.15a.06.06,0,0,0,0,0h0s.06,0,.06,0l0-.15A.09.09,0,0,0,105.42,329.25Z" style="fill:#263238"></path><path d="M104.29,318.33q-.56-6.16-1.21-12.33c-.86-8.22-1.68-16.45-2.52-24.67-.48-4.66-.83-9.37-1.59-14,0-.12-.21-.12-.21,0,.07,4.12.51,8.24.86,12.34s.71,8.23,1.1,12.35c.77,8.22,1.51,16.45,2.47,24.66.27,2.33.57,4.66.87,7s.72,4.66,1,7c0,.09.17.09.16,0C104.86,326.56,104.67,322.44,104.29,318.33Z" style="fill:#263238"></path><path d="M103.4,172.8c.27.9,5.06,6.53,9.23,6,1.36-.16.8-7.6.8-7.6l.08-.56,1.18-7.83-9.47-5.16-1.36-.68s-.18,2.16-.38,4.86l0,.38c0,.16,0,.3,0,.44,0,.4-.07.81-.1,1.22s0,.62,0,.95,0,.65,0,1A50,50,0,0,0,103.4,172.8Z" style="fill: rgb(235, 148, 129);"></path><path d="M103.48,161.86a15.9,15.9,0,0,0,10,8.81l1.18-7.83-9.47-5.16-1.36-.68S103.68,159.16,103.48,161.86Z" style="fill:#263238"></path><path d="M125.62,149.77c2.94,13.58-4.8,17-7.79,17.49-2.69.45-11.79,2.18-16.11-11s1.07-18.86,7.08-20.49S122.69,136.19,125.62,149.77Z" style="fill: rgb(235, 148, 129);"></path><path d="M124.32,147c-.33,0-.63,0-1-.06a1.61,1.61,0,0,1-1-.25.5.5,0,0,1-.09-.6,1.27,1.27,0,0,1,1.16-.46,1.85,1.85,0,0,1,1.21.47A.53.53,0,0,1,124.32,147Z" style="fill:#263238"></path><path d="M115.51,148.74a6.9,6.9,0,0,0,.9-.33,1.58,1.58,0,0,0,.86-.51.5.5,0,0,0-.09-.6,1.24,1.24,0,0,0-1.24-.11,1.79,1.79,0,0,0-1,.79A.53.53,0,0,0,115.51,148.74Z" style="fill:#263238"></path><path d="M118,151.83s-.06.06,0,.1c.18.93.24,2-.55,2.47,0,0,0,.06,0,0C118.44,154.13,118.35,152.68,118,151.83Z" style="fill:#263238"></path><path d="M117,151c-1.52.14-1.14,3.16.27,3S118.3,150.88,117,151Z" style="fill:#263238"></path><path d="M116.45,151.23c-.24.21-.46.55-.77.62s-.69-.2-1-.47c0,0,0,0,0,0,.07.58.37,1.15,1,1.15s.92-.56,1-1.16C116.66,151.3,116.55,151.15,116.45,151.23Z" style="fill:#263238"></path><path d="M123,150.67s.08,0,.08.07c.08.94.34,2,1.22,2.22,0,0,0,0,0,0C123.25,153,122.93,151.57,123,150.67Z" style="fill:#263238"></path><path d="M123.72,149.59c1.5-.3,2,2.72.59,3S122.47,149.83,123.72,149.59Z" style="fill:#263238"></path><path d="M124.38,149.68c.26.13.55.38.83.35s.53-.39.69-.74c0,0,0,0,0,0,.11.58,0,1.21-.52,1.41s-.94-.26-1.17-.81C124.22,149.81,124.27,149.63,124.38,149.68Z" style="fill:#263238"></path><path d="M118.93,159.08c.25.2.5.49.84.49a2.61,2.61,0,0,0,1-.32s.06,0,0,0a1.28,1.28,0,0,1-1.15.61,1,1,0,0,1-.81-.77A0,0,0,0,1,118.93,159.08Z" style="fill:#263238"></path><path d="M122.38,155.15s.38,1.37.48,2c0,.06-.15.11-.37.16h0a3.16,3.16,0,0,1-3.21-.75c0-.05,0-.13.09-.1a4.73,4.73,0,0,0,3,.42c0-.19-.75-2.33-.64-2.35a5.62,5.62,0,0,1,1.54.13c-.72-2.88-1.91-5.62-2.59-8.5a.09.09,0,0,1,.17-.07,48.57,48.57,0,0,1,3.18,9C124.08,155.53,122.66,155.22,122.38,155.15Z" style="fill:#263238"></path><path d="M122.36,156.84a3.83,3.83,0,0,1-1.2,1.55,1.74,1.74,0,0,1-1,.33c-.79,0-1-.68-1-1.3a4.48,4.48,0,0,1,.1-1A5,5,0,0,0,122.36,156.84Z" style="fill:#263238"></path><path d="M121.16,158.39a1.74,1.74,0,0,1-1,.33c-.79,0-1-.68-1-1.3A1.79,1.79,0,0,1,121.16,158.39Z" style="fill:#ff98b9"></path><path d="M101.86,155.52c1.48-.33,4.71-5.1,3.64-12.37,0,0,.51,6.59.18,7.63s1.8-2.69,1-8.56a24.16,24.16,0,0,0,6.51,2.12c2.89.32,4.57,0,4.74-.22s-4.11-.84-5.42-1.92c0,0,7.91,2.2,11.33,1.9.4,0-.46-8.16-6.25-10.71s-13.48,2.5-15.35,5c0,0-2.55.8-4.76,5.14S100.26,155.89,101.86,155.52Z" style="fill:#263238"></path><path d="M128.94,214.58,133.12,237s-49.53.69-61.17-.13c0,0,12.17-47.37,24.68-60.95,6.25-6.8,13.6-6.29,18.28-1.54,1.18,1.2,15.32,19.88,16.81,27C133,207.65,128.94,214.58,128.94,214.58Z" style="fill:#000000"></path><path d="M107.34,178.42a7.41,7.41,0,0,1-.61,2,7.27,7.27,0,0,1-1.12,1.81,7.43,7.43,0,0,1,.62-2A7.73,7.73,0,0,1,107.34,178.42Zm-8.22,28.24a7.41,7.41,0,0,0-.61,2,7.27,7.27,0,0,0,1.12-1.81,7.41,7.41,0,0,0,.61-2A7.57,7.57,0,0,0,99.12,206.66Zm-6.74,28a7.66,7.66,0,0,0-.61,2,7.51,7.51,0,0,0,1.12-1.82,7.31,7.31,0,0,0,.61-2A7.83,7.83,0,0,0,92.38,234.7Zm29-34.51a7.32,7.32,0,0,0-.62,2,7.51,7.51,0,0,0,1.12-1.82,7.31,7.31,0,0,0,.61-2A7.47,7.47,0,0,0,121.34,200.19ZM107.09,231a7.31,7.31,0,0,0-.61,2,7.83,7.83,0,0,0,1.12-1.82,7.66,7.66,0,0,0,.61-2A7.83,7.83,0,0,0,107.09,231ZM78.35,217.63a7.43,7.43,0,0,0-.62,2,7.27,7.27,0,0,0,1.12-1.81,7.41,7.41,0,0,0,.61-2A7.73,7.73,0,0,0,78.35,217.63Zm8.2-22a7.43,7.43,0,0,0-.62,2,8.19,8.19,0,0,0,1.73-3.86A7.47,7.47,0,0,0,86.55,195.62Zm26.7-6.51a7.43,7.43,0,0,0-2-.62,7.27,7.27,0,0,0,1.81,1.12,7.41,7.41,0,0,0,2,.61A7.73,7.73,0,0,0,113.25,189.11Zm6,23.27a7.41,7.41,0,0,0-2-.61,7.57,7.57,0,0,0,1.81,1.12,7.77,7.77,0,0,0,2,.61A7.57,7.57,0,0,0,119.22,212.38Zm-26.89,4.25a7.43,7.43,0,0,0-2-.62,7.27,7.27,0,0,0,1.81,1.12,7.79,7.79,0,0,0,2,.62A7.27,7.27,0,0,0,92.33,216.63Zm37.59-11.41a7.55,7.55,0,0,0,1,1.87,8.2,8.2,0,0,0-1.5-4A8,8,0,0,0,129.92,205.22Zm-.52,26.83a7.13,7.13,0,0,0,1,1.88,7.47,7.47,0,0,0-.5-2.07,7.13,7.13,0,0,0-1-1.88A7.55,7.55,0,0,0,129.4,232.05ZM98.74,192.86a7.44,7.44,0,0,0,1,1.88,8.2,8.2,0,0,0-1.5-4A7.54,7.54,0,0,0,98.74,192.86Zm9.49,24a7.4,7.4,0,0,0,1,1.88,7.12,7.12,0,0,0-.49-2.07,7.44,7.44,0,0,0-1-1.88A7.55,7.55,0,0,0,108.23,216.89Zm-25.18,10a7.51,7.51,0,0,0,1,1.87,8.2,8.2,0,0,0-1.5-3.95A7.62,7.62,0,0,0,83.05,226.92Zm17.43-54.28-.43.28a6.29,6.29,0,0,0,.72,1.19A6.49,6.49,0,0,0,100.48,172.64Zm-7.42,11.1a7.79,7.79,0,0,0,1.88-1,7.53,7.53,0,0,0-2.08.49,7.79,7.79,0,0,0-1.88,1A7.53,7.53,0,0,0,93.06,183.74Zm26.05,41.81a7.46,7.46,0,0,0,1.88-1,7.54,7.54,0,0,0-2.08.5,7.46,7.46,0,0,0-1.88,1A7.54,7.54,0,0,0,119.11,225.55Zm-34-17.75a7.55,7.55,0,0,0,1.87-1,8.2,8.2,0,0,0-4,1.5A7.61,7.61,0,0,0,85.1,207.8Zm38.67-21.35-.17.06a7.44,7.44,0,0,0-1.88,1,7.92,7.92,0,0,0,2.07-.49l.29-.12Zm-25.42,39.1a7.23,7.23,0,0,0,1.87-1,7.55,7.55,0,0,0-2.07.5,7.46,7.46,0,0,0-1.88,1A7.62,7.62,0,0,0,98.35,225.55Zm-22.5,8.64a7.44,7.44,0,0,0,1.88-1,7.54,7.54,0,0,0-2.07.49,7.44,7.44,0,0,0-1.88,1A7.46,7.46,0,0,0,75.85,234.19Zm32.85-34.72a7.13,7.13,0,0,0,1.88-1,7.55,7.55,0,0,0-2.07.5,7.13,7.13,0,0,0-1.88,1A7.55,7.55,0,0,0,108.7,199.47Z" style="opacity:0.2"></path><path d="M157.74,140.85s-6.32-.6-6.39,3.74,6.27,3.91,6.27,3.91Z" style="fill:#455a64"></path><path d="M202,149.12h0l5.55-2.81,1.84-.91-1.81-1-5.46-2.95h0l-44.64-.61-.11,7.65,44.65.61Z" style="fill:#455a64"></path><polygon points="207.57 146.31 209.41 145.4 207.6 144.41 207.57 146.31" style="fill:#37474f"></polygon><polygon points="158.9 149.16 159.03 140.22 157.26 140.2 157.12 149.14 158.9 149.16" style="fill:#37474f"></polygon><polygon points="160.86 149.19 160.99 140.25 159.22 140.23 159.08 149.17 160.86 149.19" style="fill:#37474f"></polygon><polygon points="160.99 140.25 160.95 143.14 177.12 141.77 177.08 140.7 160.99 140.25" style="fill:#37474f"></polygon><path d="M111.32,185c7.56,5.09,36.76,19.27,44.51,15.37,12.15-6.11,26.46-20.61,32.88-26.35,3.48-3.12-19.56-21.93-22.17-17.39-3.4,5.92-18.66,19.08-20.44,20.76s-19.22-1.62-31.93-3.33C103.57,172.6,101.76,178.53,111.32,185Z" style="fill: rgb(235, 148, 129);"></path><path d="M189.28,135.42a3.94,3.94,0,0,1,2.3,3.87,5.85,5.85,0,0,1,3.91.71c2,1.31.85,5.05.85,5.05a7.26,7.26,0,0,1,4,1.41c1.81,1.45,1.17,5.39,1.17,5.39a6.3,6.3,0,0,1,2.74,3.46c1.1,3.9-3.07,8.49-5.69,11.43s-12.82,8.83-14.64,10.15L164.61,162s1.72-12.72,11.87-21.36C179.48,138.11,186.44,134.25,189.28,135.42Z" style="fill: rgb(235, 148, 129);"></path><path d="M191.16,139.15c-3.85,1.94-6.92,4.91-10.15,7.7-.07.06,0,.18.1.11,3.18-2.81,6.87-5,10.16-7.64C191.36,139.25,191.26,139.1,191.16,139.15Z" style="fill:#263238"></path><path d="M196,144.9a11.25,11.25,0,0,0-2.26,1.87c-.75.72-1.49,1.46-2.22,2.2q-2.19,2.24-4.26,4.57c-.06.07,0,.18.09.11,1.46-1.48,2.94-2.94,4.46-4.36l2.29-2.11a13.2,13.2,0,0,0,2.09-2.07A.15.15,0,0,0,196,144.9Z" style="fill:#263238"></path><path d="M201.46,151.91a8.12,8.12,0,0,0-2,1.8l-2,2.07c-1.32,1.37-2.63,2.74-4,4.06-.07.06,0,.17.1.11,1.39-1.34,2.8-2.66,4.18-4,.68-.66,1.36-1.32,2-2a7.48,7.48,0,0,0,1.67-2S201.49,151.89,201.46,151.91Z" style="fill:#263238"></path><path d="M151.17,171.81l17.87,23s-10.56,7.52-15.33,7.45-29-7.18-41.67-16-7.83-13.52,2.65-12.36,29.88,3.28,30.59,3.06S151.17,171.81,151.17,171.81Z" style="fill:#000000"></path><path d="M107.34,178.42a7.41,7.41,0,0,1-.61,2,8,8,0,0,1-.4.77,4,4,0,0,1-.33-.42c.07-.2.15-.39.23-.58A7.73,7.73,0,0,1,107.34,178.42Zm28.3,3a7.32,7.32,0,0,0-.62,2,7.51,7.51,0,0,0,1.12-1.82,7.67,7.67,0,0,0,.62-2A7.51,7.51,0,0,0,135.64,181.44ZM151.85,176a7.74,7.74,0,0,0-.62,2.05,7.51,7.51,0,0,0,1.12-1.82,7.79,7.79,0,0,0,.62-2A7.45,7.45,0,0,0,151.85,176Zm-16.13,15.88a7.32,7.32,0,0,0-2-.62,7.51,7.51,0,0,0,1.82,1.12,7.67,7.67,0,0,0,2,.62A7.51,7.51,0,0,0,135.72,191.88Zm24.43-1.19a7.43,7.43,0,0,0-2-.62,7.32,7.32,0,0,0,1.82,1.12,7.21,7.21,0,0,0,2,.61A7.79,7.79,0,0,0,160.15,190.69Zm-38.5-15.4c-.1-.24-.2-.48-.31-.72l-.51-.06a9.24,9.24,0,0,0,.31,1,7.75,7.75,0,0,0,1,1.88A7.18,7.18,0,0,0,121.65,175.29Zm29.44,22.53a7.44,7.44,0,0,0,1,1.88,7.54,7.54,0,0,0-.49-2.07,7.44,7.44,0,0,0-1-1.88A7.46,7.46,0,0,0,151.09,197.82Zm-25.77-11.76a8.21,8.21,0,0,0-1.72.45,7.44,7.44,0,0,0-1.88,1,7.92,7.92,0,0,0,2.07-.49,8.37,8.37,0,0,0,1.58-.8A1.09,1.09,0,0,0,125.32,186.06Zm21.85-.25a7.44,7.44,0,0,0,1.88-1,8.2,8.2,0,0,0-4,1.5A7.54,7.54,0,0,0,147.17,185.81Z" style="opacity:0.2"></path><path d="M163.51,195.82c-4.7-6.53-9.44-13.08-14.75-19.14,0-.05-.14,0-.1.09,4.49,6.68,9.61,12.93,14.72,19.14C163.44,196,163.57,195.9,163.51,195.82Z" style="fill:#263238"></path><path d="M128.91,194.81c-4.28-1.93-8.5-4-12.83-5.81,0,0-.08.05,0,.07a56.33,56.33,0,0,0,5.19,2.78c-.72-.2-1.45-.41-2.18-.57-.06,0-.1.08,0,.1a9.86,9.86,0,0,0,2,.65c.37.09.74.16,1.11.23,2.2,1,4.45,1.88,6.75,2.7A.08.08,0,0,0,128.91,194.81Z" style="fill:#263238"></path><path d="M102.25,138.41c-5.31,2.38-10.86,7.68-12.41,27s1.42,33.45,7.1,36.82,18,1.59,24.65-3.49c0,0-13.62-14.43-15.61-35.6-.64-6.77,3.49-17.38.86-22.29Z" style="fill:#263238"></path><path d="M122.39,197.74c-1-1.51-1.91-3.1-2.89-4.63s-1.9-3-2.81-4.54a92.22,92.22,0,0,1-5.1-9.5,54.69,54.69,0,0,1-5.25-20.68c-.15-4.31.33-8.56.58-12.85,0-.08-.12-.09-.14,0-1.27,7.44-1.8,15.08-.11,22.48a67.41,67.41,0,0,0,8.48,19.75c1,1.72,2.16,3.4,3.31,5.05s2.54,3.34,3.8,5C122.32,197.9,122.45,197.82,122.39,197.74Z" style="fill:#263238"></path><path d="M96.74,144c.06-.08-.06-.16-.12-.1-4.77,5.87-6.7,13.51-7.94,20.82a61.49,61.49,0,0,0,.52,24.73,35.59,35.59,0,0,0,2,6.13A33.88,33.88,0,0,0,94.39,201c.06.1.19,0,.12-.09a17.65,17.65,0,0,1-2.73-5.14,36.94,36.94,0,0,1-1.49-5.28,61.91,61.91,0,0,1-1.45-12.06,80.56,80.56,0,0,1,2.75-23.28A34.7,34.7,0,0,1,96.74,144Z" style="fill:#263238"></path><path d="M91.93,194a52,52,0,0,1-2-5.38,54.62,54.62,0,0,1-2.29-11.16,49.93,49.93,0,0,1,2.92-22.2,55.94,55.94,0,0,1,5.83-11.33.07.07,0,0,0-.11-.08,47.95,47.95,0,0,0-7.47,43.63,48.73,48.73,0,0,0,2.42,5.9c1,2,2.22,3.89,3.31,5.85,0,.09.19,0,.14-.08A29.16,29.16,0,0,1,91.93,194Z" style="fill:#263238"></path><path d="M106.87,154.76s-3.42-4-5.28-2.79,1,7.31,3.36,7.95a2.34,2.34,0,0,0,3-1.54Z" style="fill: rgb(235, 148, 129);"></path><path d="M102.45,153.68s0,.06,0,.07a5.94,5.94,0,0,1,3.4,3.42,1.31,1.31,0,0,0-2-.18s0,.1,0,.08a1.44,1.44,0,0,1,1.63.36,7.48,7.48,0,0,1,.88,1.21c.09.14.34,0,.27-.12l0,0C106.54,156.42,104.68,153.69,102.45,153.68Z" style="fill:#263238"></path></g><g id="freepik--speech-bubble--inject-2"><path d="M366,131.82a10.86,10.86,0,0,0,1.87-6c0-7.62-8.38-13.8-18.7-13.8s-18.68,6.18-18.68,13.8,8.36,13.81,18.68,13.81a22.47,22.47,0,0,0,12.9-3.82l6.44,1.63Z" style="fill:#fff"></path><path d="M366,131.82a10.94,10.94,0,0,0,1.78-5.69,10.71,10.71,0,0,0-1.58-5.71,17,17,0,0,0-9.44-7A25,25,0,0,0,345,112.7a19.57,19.57,0,0,0-10.52,5.18,12.08,12.08,0,0,0-3.07,5,9.92,9.92,0,0,0-.08,5.76,12.06,12.06,0,0,0,3,5,17.36,17.36,0,0,0,4.81,3.45,21.56,21.56,0,0,0,5.66,1.84,24.83,24.83,0,0,0,6,.41A22.06,22.06,0,0,0,362,135.65l.06-.05.08,0,6.42,1.72-.1.12Zm0,0,2.58,5.57.07.15-.17,0L362.05,136l.14,0a22.2,22.2,0,0,1-11.44,3.9,24,24,0,0,1-11.95-2.2,18,18,0,0,1-5-3.55,12.89,12.89,0,0,1-3.19-5.29,10.58,10.58,0,0,1,.05-6.18,13.05,13.05,0,0,1,3.28-5.24,20.19,20.19,0,0,1,10.92-5.31A24.4,24.4,0,0,1,357,113a17.16,17.16,0,0,1,9.56,7.29,10.91,10.91,0,0,1,1.46,5.87A11,11,0,0,1,366,131.82Z" style="fill:#263238"></path><path d="M342.48,125.8a1.94,1.94,0,1,1-1.94-1.94A1.94,1.94,0,0,1,342.48,125.8Z" style="fill:#263238"></path><path d="M351.14,125.8a1.94,1.94,0,1,1-1.94-1.94A1.94,1.94,0,0,1,351.14,125.8Z" style="fill:#263238"></path><path d="M359.8,125.8a1.94,1.94,0,1,1-1.93-1.94A1.93,1.93,0,0,1,359.8,125.8Z" style="fill:#263238"></path></g></svg>